<svg width="50" height="50" viewBox="0 0 50 50" fill="none" xmlns="http://www.w3.org/2000/svg">
<path d="M48.4375 25C48.4375 27 45.9805 28.6484 45.4883 30.4922C44.9805 32.3984 46.2656 35.0547 45.3008 36.7227C44.3203 38.418 41.3711 38.6211 39.9961 39.9961C38.6211 41.3711 38.418 44.3203 36.7227 45.3008C35.0547 46.2656 32.3984 44.9805 30.4922 45.4883C28.6484 45.9805 27 48.4375 25 48.4375C23 48.4375 21.3516 45.9805 19.5078 45.4883C17.6016 44.9805 14.9453 46.2656 13.2773 45.3008C11.582 44.3203 11.3789 41.3711 10.0039 39.9961C8.62891 38.6211 5.67969 38.418 4.69922 36.7227C3.73438 35.0547 5.01953 32.3984 4.51172 30.4922C4.01953 28.6484 1.5625 27 1.5625 25C1.5625 23 4.01953 21.3516 4.51172 19.5078C5.01953 17.6016 3.73438 14.9453 4.69922 13.2773C5.67969 11.582 8.62891 11.3789 10.0039 10.0039C11.3789 8.62891 11.582 5.67969 13.2773 4.69922C14.9453 3.73438 17.6016 5.01953 19.5078 4.51172C21.3516 4.01953 23 1.5625 25 1.5625C27 1.5625 28.6484 4.01953 30.4922 4.51172C32.3984 5.01953 35.0547 3.73438 36.7227 4.69922C38.418 5.67969 38.6211 8.62891 39.9961 10.0039C41.3711 11.3789 44.3203 11.582 45.3008 13.2773C46.2656 14.9453 44.9805 17.6016 45.4883 19.5078C45.9805 21.3516 48.4375 23 48.4375 25Z" fill="#2F6390"/>
<path d="M31.7734 18.0156L22.8516 26.9375L18.2266 22.3164C17.2227 21.3125 15.5938 21.3125 14.5898 22.3164C13.5859 23.3203 13.5859 24.9492 14.5898 25.9531L21.0781 32.4414C22.0547 33.418 23.6406 33.418 24.6172 32.4414L35.4063 21.6523C36.4102 20.6484 36.4102 19.0195 35.4063 18.0156C34.4023 17.0117 32.7773 17.0117 31.7734 18.0156Z" fill="#FFFCEE"/>
</svg>
