<svg width="24" height="24" viewBox="0 0 24 24" fill="none" xmlns="http://www.w3.org/2000/svg">
<g clip-path="url(#clip0_275_871)">
<path d="M15.997 3.985H18.188V0.169C17.81 0.117 16.51 0 14.996 0C11.837 0 9.67301 1.987 9.67301 5.639V9H6.18701V13.266H9.67301V24H13.947V13.267H17.292L17.823 9.001H13.946V6.062C13.947 4.829 14.279 3.985 15.997 3.985Z" fill="#FFD9AD"/>
<g clip-path="url(#clip1_275_871)">
<path d="M104.078 50.4111L103.924 51.6924C66.3578 32.969 62.4287 30.4749 57.577 37.7524C54.2116 42.792 44.4057 54.2207 41.4503 57.6032C38.4607 60.9344 35.4882 61.1907 30.4145 58.8845C25.2895 56.322 8.83824 50.9407 -10.6368 33.5157C-25.8068 19.9345 -35.9884 3.27821 -38.9951 -1.84679C-44.0005 -10.491 -33.5284 -11.7209 -23.9959 -29.7609C-22.2876 -33.3484 -23.1589 -36.1672 -24.423 -38.7126C-25.7043 -41.2751 -35.903 -66.3876 -40.1738 -76.3985C-44.2738 -86.3751 -48.4934 -85.1109 -51.6538 -85.1109C-61.4938 -85.9651 -68.6859 -85.8285 -75.0238 -79.2343C-102.596 -48.9285 -95.6434 -17.666 -72.0513 15.5782C-25.6872 76.2582 -0.984673 87.4307 44.1837 102.942C56.3812 106.82 67.5024 106.274 76.3003 105.009C86.1062 103.455 106.487 92.6924 110.74 80.6486C115.097 68.6049 115.097 58.6111 113.815 56.3049C112.551 53.9986 109.203 52.7174 104.078 50.4111Z" fill="#FFD9AD"/>
<path d="M155.55 -135.08C24.1963 -262.06 -193.189 -169.964 -193.275 9.17216C-193.275 44.9788 -183.896 79.8972 -166.027 110.733L-195 216L-86.7771 187.778C48.2667 260.724 214.932 163.862 215 9.27467C215 -44.982 193.817 -96.0441 155.294 -134.413L155.55 -135.08ZM180.868 8.71092C180.765 139.108 37.6237 220.544 -75.5875 153.988L-81.7375 150.332L-145.8 166.988L-128.631 104.719L-132.714 98.313C-203.166 -13.8391 -122.225 -160.414 11.23 -160.414C56.5692 -160.414 99.1238 -142.733 131.172 -110.702C163.203 -78.9437 180.868 -36.3891 180.868 8.71092Z" fill="#FFD9AD"/>
</g>
</g>
<defs>
<clipPath id="clip0_275_871">
<rect width="24" height="24" fill="white"/>
</clipPath>
<clipPath id="clip1_275_871">
<rect width="410" height="410" fill="white" transform="translate(-195 -194)"/>
</clipPath>
</defs>
</svg>
