<svg width="24" height="24" viewBox="0 0 24 24" fill="none" xmlns="http://www.w3.org/2000/svg">
<g clip-path="url(#clip0_275_867)">
<path d="M12.0042 5.83789C8.60119 5.83789 5.84619 8.59589 5.84619 11.9959C5.84619 15.3989 8.60419 18.1539 12.0042 18.1539C15.4072 18.1539 18.1622 15.3959 18.1622 11.9959C18.1622 8.59289 15.4042 5.83789 12.0042 5.83789ZM12.0042 15.9929C9.79519 15.9929 8.00719 14.2039 8.00719 11.9959C8.00719 9.78789 9.79619 7.99889 12.0042 7.99889C14.2122 7.99889 16.0012 9.78789 16.0012 11.9959C16.0022 14.2039 14.2132 15.9929 12.0042 15.9929Z" fill="#FFD9AD"/>
<path d="M16.9477 0.0768515C14.7397 -0.0261485 9.27074 -0.0211485 7.06074 0.0768515C5.11874 0.167852 3.40574 0.636852 2.02474 2.01785C-0.283261 4.32585 0.011739 7.43586 0.011739 11.9969C0.011739 16.6649 -0.248261 19.7029 2.02474 21.9759C4.34174 24.2919 7.49674 23.9889 12.0037 23.9889C16.6277 23.9889 18.2237 23.9919 19.8587 23.3589C22.0817 22.4959 23.7597 20.5089 23.9237 16.9399C24.0277 14.7309 24.0217 9.26286 23.9237 7.05286C23.7257 2.83985 21.4647 0.284852 16.9477 0.0768515ZM20.4427 20.4489C18.9297 21.9619 16.8307 21.8269 11.9747 21.8269C6.97474 21.8269 4.96974 21.9009 3.50674 20.4339C1.82174 18.7569 2.12674 16.0639 2.12674 11.9809C2.12674 6.45585 1.55974 2.47685 7.10474 2.19285C8.37874 2.14785 8.75374 2.13285 11.9607 2.13285L12.0057 2.16285C17.3347 2.16285 21.5157 1.60485 21.7667 7.14885C21.8237 8.41386 21.8367 8.79386 21.8367 11.9959C21.8357 16.9379 21.9297 18.9549 20.4427 20.4489Z" fill="#FFD9AD"/>
<path d="M18.4058 7.03376C19.2005 7.03376 19.8448 6.3895 19.8448 5.59476C19.8448 4.80002 19.2005 4.15576 18.4058 4.15576C17.6111 4.15576 16.9668 4.80002 16.9668 5.59476C16.9668 6.3895 17.6111 7.03376 18.4058 7.03376Z" fill="#FFD9AD"/>
</g>
<defs>
<clipPath id="clip0_275_867">
<rect width="24" height="24" fill="white"/>
</clipPath>
</defs>
</svg>
