<svg width="30" height="30" viewBox="0 0 30 30" fill="none" xmlns="http://www.w3.org/2000/svg">
<g clip-path="url(#clip0_19_971)">
<path d="M29.0625 15C29.0625 16.2 27.5883 17.1891 27.293 18.2953C26.9883 19.4391 27.7594 21.0328 27.1805 22.0336C26.5922 23.0508 24.8227 23.1727 23.9977 23.9977C23.1727 24.8227 23.0508 26.5922 22.0336 27.1805C21.0328 27.7594 19.4391 26.9883 18.2953 27.293C17.1891 27.5883 16.2 29.0625 15 29.0625C13.8 29.0625 12.8109 27.5883 11.7047 27.293C10.5609 26.9883 8.96719 27.7594 7.96641 27.1805C6.94922 26.5922 6.82734 24.8227 6.00234 23.9977C5.17734 23.1727 3.40781 23.0508 2.81953 22.0336C2.24062 21.0328 3.01172 19.4391 2.70703 18.2953C2.41172 17.1891 0.9375 16.2 0.9375 15C0.9375 13.8 2.41172 12.8109 2.70703 11.7047C3.01172 10.5609 2.24062 8.96719 2.81953 7.96641C3.40781 6.94922 5.17734 6.82734 6.00234 6.00234C6.82734 5.17734 6.94922 3.40781 7.96641 2.81953C8.96719 2.24062 10.5609 3.01172 11.7047 2.70703C12.8109 2.41172 13.8 0.9375 15 0.9375C16.2 0.9375 17.1891 2.41172 18.2953 2.70703C19.4391 3.01172 21.0328 2.24062 22.0336 2.81953C23.0508 3.40781 23.1727 5.17734 23.9977 6.00234C24.8227 6.82734 26.5922 6.94922 27.1805 7.96641C27.7594 8.96719 26.9883 10.5609 27.293 11.7047C27.5883 12.8109 29.0625 13.8 29.0625 15Z" fill="#F97D73"/>
<path d="M19.0641 10.8094L13.7109 16.1625L10.9359 13.3899C10.3336 12.7875 9.35626 12.7875 8.75391 13.3899C8.15157 13.9922 8.15157 14.9696 8.75391 15.5719L12.6469 19.4649C13.2328 20.0508 14.1844 20.0508 14.7703 19.4649L21.2438 12.9915C21.8461 12.3891 21.8461 11.4118 21.2438 10.8094C20.6414 10.2071 19.6664 10.2071 19.0641 10.8094Z" fill="#FFFCEE"/>
</g>
<defs>
<clipPath id="clip0_19_971">
<rect width="30" height="30" fill="white"/>
</clipPath>
</defs>
</svg>
