<svg width="64" height="64" viewBox="0 0 64 64" fill="none" xmlns="http://www.w3.org/2000/svg">
<circle cx="32" cy="32" r="32" fill="#ECE6E0"/>
<g clip-path="url(#clip0_11_840)">
<path d="M49.2308 23.2512C48.5537 20.194 45.59 17.3935 42.5244 16.7986C40.6562 16.4253 35.4453 15.964 32 15.9999C28.5547 15.9619 23.3445 16.4218 21.4763 16.7965C18.4107 17.3935 15.447 20.194 14.7734 23.2512C14.3846 25.1075 14.0056 27.6331 14 31.0805C14.0056 34.5258 14.3846 37.0522 14.7734 38.9091C15.4505 41.9663 18.4142 44.7668 21.4798 45.3617C22.4881 45.5628 24.4716 45.7906 26.6246 45.9509C26.8684 46.3339 27.1332 46.7417 27.4191 47.1743C28.5617 48.9054 29.4357 50.1113 30.0988 50.9515C31.2013 52.3493 32.8058 52.3493 33.9083 50.9515C34.5713 50.1113 35.4453 48.9054 36.5879 47.1743C36.8738 46.7422 37.1387 46.3343 37.3824 45.9509C39.5361 45.7906 41.5189 45.5628 42.5279 45.3617C45.5935 44.7668 48.5572 41.9663 49.2343 38.9091C49.6196 37.0522 49.9979 34.5272 50.0042 31.0805C49.9944 27.6324 49.6161 25.1082 49.2308 23.2512Z" fill="#F97D73"/>
<path d="M32 15.9999C28.5547 15.9619 23.3445 16.4218 21.4763 16.7965C18.4107 17.3935 15.447 20.194 14.7734 23.2512C14.3846 25.1075 14.0056 27.6331 14 31.0805C14.0056 34.5258 14.3846 37.0522 14.7734 38.9091C15.1721 40.7084 16.3632 42.4191 17.9009 43.6432C19.4009 44.0024 20.938 44.1834 22.4804 44.1825C33.2825 44.1825 42.0392 35.4258 42.0392 24.6244C42.0417 21.8114 41.4348 19.0313 40.2603 16.4752C37.8577 16.2052 34.4743 15.9746 32 15.9999Z" fill="#FF968D"/>
<path d="M33.9884 41.5333C33.9418 41.7523 33.8326 41.9531 33.6743 42.1114C33.516 42.2698 33.3152 42.3789 33.0962 42.4256C32.3699 42.5371 31.6308 42.5371 30.9045 42.4256C30.6855 42.379 30.4846 42.2699 30.3263 42.1115C30.1679 41.9532 30.0589 41.7523 30.0123 41.5333C29.8998 40.8068 29.8998 40.0674 30.0123 39.341C30.0589 39.1219 30.1679 38.9211 30.3263 38.7627C30.4846 38.6044 30.6855 38.4953 30.9045 38.4487C31.6308 38.3371 32.3699 38.3371 33.0962 38.4487C33.3155 38.4956 33.5166 38.6051 33.675 38.764C33.8334 38.9228 33.9422 39.1242 33.9884 39.3438C34.1009 40.0702 34.1009 40.8097 33.9884 41.5361V41.5333ZM38.2691 30.0168C37.7262 30.7846 36.9127 31.4856 35.709 32.2218C34.1853 33.1612 33.9413 33.5472 33.9413 34.3031V34.6019C33.9462 34.8603 33.8996 35.117 33.8041 35.3572C33.7086 35.5973 33.5662 35.816 33.3853 36.0004C33.2043 36.1849 32.9883 36.3314 32.7501 36.4315C32.5118 36.5315 32.256 36.583 31.9975 36.583C31.7391 36.583 31.4833 36.5315 31.245 36.4315C31.0067 36.3314 30.7908 36.1849 30.6098 36.0004C30.4288 35.816 30.2864 35.5973 30.191 35.3572C30.0955 35.117 30.0488 34.8603 30.0537 34.6019V33.9093C30.0537 33.0177 30.2766 32.2612 30.7351 31.5967C31.1794 30.9527 31.846 30.3803 32.8332 29.7932C34.6536 28.7224 34.9869 28.1212 34.9869 27.3231C34.9869 26.3205 34.1326 25.6722 32.8072 25.6722C31.3594 25.6722 30.4166 26.3303 30.0052 27.629C29.872 28.0468 29.6086 28.411 29.2537 28.6686C28.8987 28.9261 28.4708 29.0635 28.0323 29.0606C27.9816 29.0606 27.9303 29.0606 27.8804 29.0549C27.5654 29.0327 27.2596 28.9388 26.9864 28.7804C26.7131 28.622 26.4797 28.4033 26.304 28.1409C26.1284 27.8832 26.014 27.5887 25.9697 27.28C25.9253 26.9713 25.9521 26.6566 26.048 26.3599C26.4699 25.0076 27.3351 23.837 28.5041 23.0369C29.6825 22.2339 31.171 21.8099 32.8072 21.8099C34.5066 21.8099 36.0837 22.352 37.2481 23.3364C38.4469 24.3489 39.1065 25.746 39.1065 27.2697C39.11 28.3174 38.8351 29.2188 38.2691 30.0168Z" fill="white"/>
</g>
<defs>
<clipPath id="clip0_11_840">
<rect width="36" height="36" fill="white" transform="translate(14 16)"/>
</clipPath>
</defs>
</svg>
