<svg width="28" height="28" viewBox="0 0 28 28" fill="none" xmlns="http://www.w3.org/2000/svg">
<path id="Vector" d="M27.125 14C27.125 15.12 25.7491 16.0431 25.4734 17.0756C25.1891 18.1431 25.9088 19.6306 25.3684 20.5647C24.8194 21.5141 23.1678 21.6278 22.3978 22.3978C21.6278 23.1678 21.5141 24.8194 20.5647 25.3684C19.6306 25.9088 18.1431 25.1891 17.0756 25.4734C16.0431 25.7491 15.12 27.125 14 27.125C12.88 27.125 11.9569 25.7491 10.9244 25.4734C9.85687 25.1891 8.36938 25.9088 7.43531 25.3684C6.48594 24.8194 6.37219 23.1678 5.60219 22.3978C4.83219 21.6278 3.18062 21.5141 2.63156 20.5647C2.09125 19.6306 2.81094 18.1431 2.52656 17.0756C2.25094 16.0431 0.875 15.12 0.875 14C0.875 12.88 2.25094 11.9569 2.52656 10.9244C2.81094 9.85687 2.09125 8.36938 2.63156 7.43531C3.18062 6.48594 4.83219 6.37219 5.60219 5.60219C6.37219 4.83219 6.48594 3.18062 7.43531 2.63156C8.36938 2.09125 9.85687 2.81094 10.9244 2.52656C11.9569 2.25094 12.88 0.875 14 0.875C15.12 0.875 16.0431 2.25094 17.0756 2.52656C18.1431 2.81094 19.6306 2.09125 20.5647 2.63156C21.5141 3.18062 21.6278 4.83219 22.3978 5.60219C23.1678 6.37219 24.8194 6.48594 25.3684 7.43531C25.9088 8.36938 25.1891 9.85687 25.4734 10.9244C25.7491 11.9569 27.125 12.88 27.125 14Z" fill="#4343FF"/>
</svg>
