<svg width="94" height="56" viewBox="0 0 94 56" fill="none" xmlns="http://www.w3.org/2000/svg">
<g id="Group">
<path id="Vector" d="M93.9927 24.6227C93.9678 24.2935 93.9208 23.9698 93.8544 23.6572L93.8461 23.6434C93.7825 23.3419 93.7023 23.0459 93.5944 22.7333L93.5142 22.5037C93.4754 22.3958 93.4367 22.2796 93.3924 22.1635L93.3703 22.1054C93.3095 21.9394 93.2431 21.7596 93.1712 21.5715C93.1712 21.5659 93.149 21.5078 93.1048 21.3474C93.0909 21.2976 93.066 21.1897 93.0273 20.9712C93.0162 20.902 92.9969 20.7803 92.9858 20.595C92.972 20.3737 92.9664 20.1385 92.972 19.8923C92.9747 19.6572 92.9941 19.375 93.0301 19.0514C93.066 18.7222 93.1214 18.3294 93.2016 17.8813L93.2541 17.4414C93.2735 17.1648 93.2929 16.902 93.3095 16.642C93.3205 16.4732 93.3316 16.31 93.3427 16.1496L93.362 15.8674C93.3952 15.3916 93.3842 14.8937 93.3288 14.393C93.2846 13.9836 93.2099 13.5659 93.1048 13.1537C92.9941 12.6115 92.8281 12.0776 92.6096 11.5658C92.3717 11.007 92.0674 10.4676 91.7216 9.97521C91.3952 9.50771 91.0162 9.05957 90.5985 8.6391C90.1919 8.23246 89.7465 7.85348 89.279 7.51876C88.8004 7.17297 88.2859 6.86315 87.7548 6.59758C87.2319 6.33755 86.6759 6.10795 86.1088 5.92261C85.2845 5.64875 84.4214 5.46341 83.467 5.35552C82.8695 5.28913 82.2499 5.25594 81.5721 5.25594C81.4034 5.25594 81.2319 5.25594 81.0548 5.26147C80.9165 5.26423 80.7727 5.26424 80.6261 5.267C80.1752 5.267 79.6108 5.27253 78.9165 5.33063C77.7491 5.42745 76.5292 5.65705 75.1875 6.03326C73.5333 6.49523 72.0921 7.25043 70.9828 8.23799C70.9607 8.1965 70.9385 8.15224 70.9164 8.11074C70.6757 7.6875 70.424 7.31682 70.1474 6.97656L68.9496 5.96964C68.2082 5.5547 67.4752 5.23381 66.7946 5.01804C65.9537 4.74971 65.1266 4.61416 64.3299 4.61416C63.6466 4.61416 62.9827 4.71098 62.3575 4.89909C61.6964 5.09826 61.0712 5.40255 60.5069 5.80366L60.4737 5.82856C60.3741 5.90048 60.2773 5.9724 60.1832 6.04986C59.8789 5.88112 59.547 5.73174 59.1763 5.60172C58.8499 5.48554 58.4847 5.38042 58.0919 5.28637C57.6632 5.18401 57.2178 5.10932 56.7752 5.05953C56.3381 5.0125 55.8955 4.98761 55.4529 4.98761C54.9301 4.98761 54.4045 5.0291 53.8927 5.11486C53.3699 5.20061 52.8526 5.33339 52.3574 5.51043C51.5801 5.78706 50.8802 6.19924 50.2827 6.7359C50.0227 6.96827 49.7931 7.22553 49.5801 7.49939C49.3588 7.31129 49.1292 7.13148 48.894 6.96273C48.4155 6.61695 47.9009 6.30712 47.3698 6.04156C46.847 5.78153 46.291 5.55193 45.7266 5.36659C44.9023 5.09273 44.0392 4.90738 43.0848 4.7995C42.4873 4.73311 41.8677 4.69991 41.1899 4.69991C41.0212 4.69991 40.8497 4.69991 40.6726 4.70545C40.5343 4.70821 40.3905 4.70821 40.2466 4.71098C39.7957 4.71098 39.2314 4.71651 38.5371 4.7746C37.3697 4.87142 36.1498 5.10102 34.8054 5.47724C33.3226 5.88941 32.017 6.54226 30.963 7.38044C30.844 7.00699 30.7196 6.63631 30.5923 6.28499C30.4651 5.92814 30.3212 5.55193 30.1386 5.10656L30.122 5.06783C29.9173 4.58096 29.7126 4.15496 29.4886 3.75938C29.2202 3.28081 28.9353 2.8631 28.6172 2.48136L27.4388 1.49932C26.6255 1.04565 25.8205 0.688804 25.0487 0.442605C24.1358 0.149379 23.2312 0 22.3626 0C21.6213 0 20.9076 0.105117 20.2381 0.309822C19.5244 0.528359 18.8605 0.857547 18.2658 1.28355C18.0168 1.46336 17.7734 1.657 17.541 1.86447L17.3667 1.73169C16.9739 1.48826 16.5424 1.28355 16.0472 1.11204C15.707 0.993095 15.3335 0.882443 14.8992 0.774558L14.866 0.766259C14.393 0.652842 13.9006 0.567088 13.4026 0.514529C12.9185 0.461969 12.4178 0.434306 11.9199 0.434306C11.3362 0.434306 10.7608 0.481333 10.202 0.57262C9.63496 0.666674 9.07064 0.813287 8.52015 1.00693L8.48972 1.01799C7.6709 1.31398 6.9406 1.74829 6.32095 2.30708C5.67364 2.89076 5.15635 3.59617 4.78567 4.40945C4.40669 5.2421 4.0941 6.09135 3.85343 6.93784C3.60723 7.80092 3.42742 8.69166 3.31954 9.58794C3.23378 10.2878 3.15356 10.9821 3.0761 11.6792C2.99865 12.3763 2.92672 13.0679 2.85757 13.7623C2.80224 14.3293 2.72479 14.9241 2.62797 15.5327C2.53945 16.097 2.4288 16.6779 2.29878 17.2561C2.21303 17.6351 2.08854 18.014 1.92257 18.3792C1.75106 18.7637 1.52699 19.151 1.26419 19.5327L0.904573 20.1579C0.807754 20.3654 0.683272 20.642 0.564322 20.9408C0.442605 21.2478 0.354084 21.494 0.276628 21.7402C0.0912873 22.3211 0 22.9214 0 23.53C0 24.1026 0.0829883 24.678 0.246199 25.2451L0.373448 25.6185C0.639011 26.288 0.998627 26.9049 1.43847 27.4498C1.89214 28.0086 2.42603 28.4899 3.02631 28.88C3.49935 29.187 4.00558 29.4471 4.53394 29.6545C5.06783 29.862 5.62938 30.0142 6.19924 30.1055L6.57545 30.1469C7.85347 30.2327 8.94062 30.2742 9.89776 30.277C9.89776 30.277 9.95308 30.277 9.98351 30.277C10.0305 30.9326 10.1467 31.6075 10.3404 32.2936C10.9434 34.4347 12.3017 36.0087 14.1661 36.833C14.0002 37.3586 13.9338 37.8179 13.9089 38.1415C13.8729 38.6201 13.895 39.0903 13.9753 39.5468C13.2118 39.8704 12.4953 40.3435 11.848 40.9603C10.7774 41.9783 10.1578 43.1402 9.88669 43.7322C9.45239 44.562 8.52568 46.7059 8.99871 49.1458C9.43855 51.4197 11.3141 55.2731 18.9407 55.5138C19.4857 55.5304 20.0223 55.5387 20.5396 55.5387C23.9366 55.5387 26.7251 55.1597 28.8357 54.41C30.4817 53.8208 31.508 53.0822 32.147 52.4238C33.7431 51.0711 34.8607 49.5082 35.4803 47.8318C36.1221 47.8207 37.3752 47.7294 38.6422 47.0517C38.822 47.1983 39.0101 47.3311 39.2121 47.4556C39.6685 47.735 40.1664 47.948 40.7446 48.1112C41.6325 48.3601 42.6146 48.4929 43.5855 48.4929C44.9742 48.4929 46.2882 48.2246 47.3836 47.7211C47.7239 47.5635 48.042 47.3781 48.3408 47.1762C48.8885 47.5054 49.4777 47.7626 50.1029 47.9369C50.7945 48.1305 51.5303 48.2274 52.2883 48.2274C52.9771 48.2274 53.6603 48.1471 54.3879 47.9784C54.883 47.8622 55.3893 47.7073 55.8983 47.5109C55.9923 47.5718 56.0864 47.6298 56.1832 47.6852C56.6175 47.9341 57.0933 48.1333 57.6023 48.2799C57.973 48.385 58.352 48.468 58.7226 48.5206C59.1099 48.5759 59.511 48.6036 59.9121 48.6036C60.2413 48.6036 60.5705 48.5842 60.8803 48.551C61.2012 48.5151 61.4972 48.4708 61.7904 48.4099C62.0947 48.3463 62.3714 48.2772 62.6314 48.1997C62.7337 48.1693 62.8306 48.1361 62.9302 48.1057C63.1017 48.3408 63.2787 48.5704 63.4696 48.7945C63.8762 49.2786 64.3299 49.7378 64.8029 50.1444C65.2538 50.54 65.7379 50.9051 66.2995 51.273C66.8057 51.6022 67.3451 51.9065 67.9178 52.1859C68.471 52.4543 69.0519 52.6894 69.6412 52.8886C70.2221 53.085 70.8251 53.2482 71.4392 53.3727L71.7574 53.4252C72.1972 53.4805 72.6509 53.5082 73.1045 53.5082C73.3203 53.5082 73.5388 53.5027 73.7353 53.4916C74.3798 53.4584 75.0492 53.3727 75.7187 53.2371C76.1447 53.1514 76.5735 53.0462 76.9995 52.9218C77.4172 52.8 77.8376 52.659 78.2913 52.4819C78.7229 52.3132 79.1433 52.1306 79.5306 51.9397C79.9373 51.7405 80.3356 51.522 80.7173 51.2924C81.124 51.0462 81.5223 50.7807 81.893 50.4985C82.272 50.2136 82.6371 49.9037 82.9774 49.5856C83.3508 49.2343 83.7022 48.8525 84.0396 48.4293C84.3384 48.0503 84.6067 47.6575 84.8446 47.2592C85.0549 46.9272 85.2513 46.5842 85.4283 46.2329C85.622 45.8567 85.8018 45.4556 85.9678 45.0378C86.2886 44.2273 86.7091 42.988 86.6566 41.6243C86.5736 39.0876 84.9193 37.0599 82.4407 36.4568L82.4297 36.4402C82.1171 36.3656 81.7962 36.313 81.4725 36.2853C81.6136 36.0917 81.7492 35.8925 81.8737 35.685C82.0811 35.3393 82.2582 34.9962 82.4214 34.6339C82.5929 34.2493 82.7395 33.8538 82.8557 33.4665C82.9774 33.0543 83.0687 32.6283 83.1268 32.2051C83.1627 31.9423 83.1821 31.6767 83.1932 31.4139C83.5805 31.5218 83.9733 31.6075 84.3661 31.6629C84.781 31.721 85.2015 31.7486 85.6164 31.7486C85.9346 31.7486 86.2693 31.732 86.6123 31.6988C86.9553 31.6656 87.3039 31.6131 87.6469 31.5412C87.9788 31.472 88.2831 31.3945 88.5791 31.306C88.9138 31.2064 89.196 31.1096 89.4671 31.0017C89.8239 30.8606 90.1448 30.714 90.4464 30.5508C90.7756 30.3738 91.066 30.194 91.3316 30.0031C91.6608 29.7707 91.9678 29.5079 92.25 29.2258C92.5321 28.9436 92.8115 28.6089 93.0494 28.2659L93.4284 27.5854C93.6221 27.1428 93.7631 26.7195 93.86 26.288C93.9844 25.7264 94.0259 25.1649 93.9844 24.6171L93.9927 24.6227Z" fill="#4343FF"/>
<g id="Group_2">
<path id="Vector_2" d="M14.4721 25.1971H14.4776C14.6796 24.9979 14.8124 24.7655 14.8815 24.5C14.9507 24.2344 14.9479 23.9357 14.8815 23.6065C14.8151 23.2773 14.7294 22.9177 14.6298 22.5332C14.5302 22.1486 14.4112 21.7337 14.2785 21.2911C14.1429 20.8485 14.0184 20.381 13.8995 19.8886C13.7805 19.3962 13.6726 18.8789 13.5731 18.3339C13.4735 17.7917 13.432 17.2247 13.4541 16.6327C13.4762 16.0407 13.5592 15.4266 13.7058 14.7903C13.9078 14.9369 14.0793 15.0836 14.2176 15.2357C14.3559 15.3878 14.4666 15.54 14.544 15.6977C14.6215 15.8553 14.7128 16.0186 14.8124 16.1928C14.9119 16.3671 15.0254 16.5469 15.1471 16.7378C15.2135 16.9065 15.2854 17.0697 15.3573 17.233C15.4292 17.3962 15.5067 17.5538 15.5841 17.7115C15.6616 17.8692 15.7474 18.0186 15.8386 18.1597C15.9299 18.3007 16.0295 18.4391 16.1374 18.5663C16.2425 18.6963 16.3559 18.8125 16.4721 18.9149C16.5883 19.0172 16.7128 19.1085 16.8428 19.1887C16.9701 19.2662 17.1028 19.327 17.2411 19.3658C17.3795 19.4045 17.5205 19.4238 17.6644 19.4238C17.8995 19.4238 18.143 19.3685 18.3947 19.2551C18.6464 19.1417 18.9065 18.9757 19.1748 18.7516C19.2965 18.6521 19.4154 18.5137 19.5261 18.3367C19.6367 18.1597 19.7446 17.9467 19.8442 17.6949C19.9438 17.4432 20.0462 17.1887 20.1457 16.9314C20.2453 16.6742 20.3477 16.4141 20.4473 16.1513C20.5469 15.8885 20.6464 15.6423 20.746 15.4127C20.8456 15.1831 20.9397 14.9701 21.0365 14.7737C21.1305 14.5773 21.2301 14.4307 21.3352 14.3339C21.4404 14.2371 21.5455 14.1873 21.6589 14.1873C21.7474 14.1873 21.8359 14.2232 21.9245 14.2924C22.013 14.3616 22.096 14.4667 22.1817 14.6077C22.2647 14.7488 22.3532 14.9342 22.4473 15.1665C22.5413 15.3989 22.6354 15.6783 22.7377 16.002C22.8844 16.3145 22.9839 16.6299 23.0448 16.9425C23.1057 17.2551 23.1195 17.5704 23.0918 17.883C23.0642 18.1956 23.0144 18.5054 22.9452 18.807C22.8761 19.1085 22.7848 19.4045 22.6714 19.6977C22.5579 19.9882 22.439 20.2731 22.3145 20.5497C22.19 20.8264 22.0545 21.0974 21.9162 21.3602C21.7751 21.623 21.6506 21.8775 21.5427 22.1237C21.4348 22.3699 21.3408 22.6078 21.2606 22.8374C21.1831 23.067 21.1333 23.2856 21.1139 23.4931C21.0946 23.7005 21.1029 23.8969 21.1444 24.0795C21.1831 24.2648 21.2772 24.4364 21.4265 24.5913C21.5759 24.7462 21.7779 24.89 22.0351 25.02C22.2924 25.1501 22.6133 25.2607 23.0005 25.3548C23.3878 25.4488 23.836 25.529 24.3533 25.5899C24.8678 25.6508 25.4736 25.695 26.1679 25.7199C26.8623 25.7448 27.6451 25.7531 28.5193 25.742C28.677 25.7199 28.8319 25.695 28.9895 25.6701C29.1472 25.6452 29.3021 25.6176 29.4598 25.5899C29.6175 25.5622 29.7696 25.529 29.9163 25.4903C30.0629 25.4516 30.2095 25.4073 30.3478 25.3548C30.4889 25.305 30.6217 25.2441 30.7461 25.1694C30.8706 25.0947 30.9923 25.0117 31.103 24.9177C31.2136 24.8236 31.316 24.713 31.4045 24.5857C31.493 24.4585 31.5733 24.3174 31.6396 24.1625C31.7503 23.872 31.8361 23.6065 31.8941 23.3658C31.9522 23.1251 31.9854 22.9094 31.991 22.7185C31.9965 22.5276 31.9827 22.3506 31.9522 22.1846C31.9218 22.0186 31.872 21.8665 31.8056 21.7282C31.7392 21.5871 31.659 21.4488 31.565 21.3132C31.4709 21.1777 31.3686 21.0394 31.2496 20.9066C31.1306 20.771 31.0117 20.6217 30.8872 20.4584C30.7627 20.2952 30.6383 20.1127 30.5082 19.9162C30.3782 19.7198 30.251 19.5013 30.121 19.2579C29.9909 19.0144 29.8637 18.7461 29.7337 18.4556C29.6037 18.1652 29.4847 17.8305 29.3768 17.457C29.2689 17.0836 29.1694 16.6659 29.0781 16.2067C29.0227 16.1071 28.9619 15.966 28.901 15.7862C28.8402 15.6064 28.7765 15.3878 28.7074 15.1306C28.641 14.8733 28.5691 14.5939 28.4944 14.2924C28.4197 13.9909 28.3395 13.6645 28.2565 13.3187C28.1735 12.9729 28.085 12.6133 27.9909 12.2398C27.8969 11.8664 27.8028 11.4819 27.7005 11.0863C27.6009 10.6879 27.4958 10.2979 27.3851 9.9106C27.2745 9.52332 27.1638 9.14434 27.0449 8.76813C26.9259 8.39191 26.8042 8.02953 26.6797 7.68098C26.5552 7.33243 26.4224 6.99494 26.2897 6.66852C26.1541 6.34487 26.0158 6.05441 25.8692 5.79438C25.7226 5.53435 25.5732 5.31304 25.4155 5.12217C24.8346 4.79852 24.2869 4.55508 23.7779 4.39187C23.2689 4.22866 22.7958 4.14844 22.3588 4.14844C22.0351 4.14844 21.7308 4.18993 21.4514 4.27569C21.172 4.36144 20.9148 4.48592 20.6796 4.65467C20.4445 4.82341 20.2204 5.01982 20.0074 5.24665C19.7944 5.47349 19.5925 5.73075 19.4016 6.01568C19.2107 6.30061 19.0254 6.60766 18.8428 6.93132C18.6602 7.25497 18.4832 7.60076 18.3089 7.96314C18.1347 8.32829 17.9548 8.70174 17.7667 9.08348C17.5786 9.46523 17.385 9.86081 17.1831 10.2619C17.0475 10.0489 16.9341 9.83315 16.84 9.61461C16.746 9.39608 16.6685 9.17477 16.6132 8.9507C16.5579 8.72663 16.5026 8.50257 16.45 8.2785C16.3974 8.05443 16.3449 7.83036 16.2951 7.60629C16.2453 7.38222 16.1872 7.16369 16.1236 6.95068C16.0599 6.73768 15.988 6.53021 15.9106 6.32827C15.8331 6.12633 15.7308 5.93546 15.609 5.75842C15.4873 5.58137 15.3407 5.41263 15.172 5.25495C15.0475 5.17749 14.8815 5.10004 14.6685 5.02535C14.4555 4.95066 14.1982 4.87597 13.8967 4.80128C13.5952 4.72936 13.2771 4.67403 12.9479 4.63807C12.6187 4.60211 12.2729 4.58275 11.9161 4.58275C11.5592 4.58275 11.2107 4.61041 10.8759 4.66573C10.5412 4.72106 10.2148 4.80681 9.9022 4.91747C9.58961 5.03088 9.32128 5.18579 9.09721 5.38773C8.87315 5.58967 8.69334 5.83587 8.56055 6.12633C8.27009 6.76534 8.02943 7.41265 7.84132 8.07379C7.65322 8.73493 7.51767 9.40714 7.43468 10.0876C7.35169 10.7709 7.27147 11.4514 7.19678 12.1319C7.12209 12.8124 7.05017 13.4902 6.98377 14.1679C6.91738 14.8457 6.82886 15.5179 6.72374 16.1818C6.61862 16.8457 6.49138 17.5068 6.34476 18.1624C6.19815 18.818 5.98515 19.457 5.70575 20.0795C5.42636 20.7019 5.07781 21.3132 4.66563 21.9052C4.57711 22.0961 4.49412 22.2814 4.4222 22.464C4.35027 22.6466 4.28388 22.8236 4.22856 22.9979C4.17323 23.1722 4.14557 23.3492 4.14557 23.5318C4.14557 23.7144 4.17323 23.8997 4.22856 24.0906C4.33921 24.37 4.48306 24.6189 4.6601 24.8375C4.83714 25.056 5.04461 25.2441 5.28528 25.399C5.52594 25.5567 5.77491 25.6839 6.03771 25.7863C6.3005 25.8887 6.56883 25.9606 6.84823 26.0048C8.01283 26.0823 9.03359 26.1238 9.90774 26.1265C10.7819 26.1293 11.5149 26.0934 12.1042 26.0214C12.6906 25.9495 13.183 25.8444 13.5786 25.7061C13.9742 25.5678 14.2702 25.399 14.4721 25.1971Z" fill="#FFCAD8"/>
<path id="Vector_3" d="M66.015 26.9998V26.9943C66.4521 27.0468 66.9666 27.0828 67.5558 27.1049C68.145 27.1271 68.8117 27.1326 69.5559 27.1215C69.6886 27.1022 69.8214 27.0828 69.9542 27.0607C70.087 27.0385 70.2198 27.0164 70.3553 26.9915C70.4881 26.9666 70.6181 26.939 70.7454 26.9058C70.8726 26.8726 70.9943 26.8338 71.1133 26.7923C71.2322 26.7509 71.3456 26.6983 71.4535 26.6347C71.5614 26.5738 71.661 26.5019 71.7578 26.4217C71.8519 26.3414 71.9376 26.2474 72.0151 26.1395C72.0925 26.0316 72.1589 25.9127 72.2142 25.7799C72.3083 25.5337 72.383 25.3069 72.4328 25.1021C72.4826 24.8974 72.5102 24.7149 72.5158 24.5517C72.5213 24.3912 72.5102 24.2391 72.4826 24.098C72.4577 23.9569 72.4162 23.8269 72.3581 23.7079C72.3 23.589 72.2336 23.47 72.1534 23.3539C72.0759 23.2377 71.9846 23.1215 71.8851 23.0081C71.7855 22.8947 71.6831 22.7674 71.578 22.6263C71.4729 22.4852 71.365 22.3331 71.2571 22.1671C71.1465 22.0011 71.0386 21.813 70.9279 21.6083C70.8173 21.4009 70.7094 21.174 70.5987 20.9251C70.4881 20.6789 70.3885 20.3939 70.2944 20.0758C70.2004 19.7577 70.1174 19.4036 70.04 19.0108C69.9929 18.925 69.9431 18.8061 69.8906 18.6539C69.838 18.5018 69.7827 18.3165 69.7274 18.0979C69.6693 17.8794 69.6084 17.6415 69.5448 17.3842C69.4812 17.127 69.412 16.8503 69.3401 16.5571C69.2682 16.2611 69.1935 15.9568 69.116 15.6387C69.0386 15.3206 68.9556 14.9942 68.8698 14.6567C68.7841 14.3192 68.6955 13.9845 68.6015 13.658C68.5074 13.3289 68.4134 13.0052 68.311 12.6871C68.2114 12.369 68.1063 12.0591 68.0012 11.7631C67.8933 11.4644 67.7827 11.1794 67.6692 10.9028C67.5558 10.6262 67.4369 10.38 67.3124 10.1615C67.1879 9.94292 67.0607 9.75205 66.9279 9.58883C66.4327 9.31221 65.968 9.10474 65.5364 8.96919C65.1021 8.83088 64.701 8.76172 64.3303 8.76172C64.0537 8.76172 63.7965 8.79768 63.5586 8.8696C63.3207 8.94153 63.1021 9.04941 62.9029 9.19049C62.7038 9.33434 62.5129 9.50031 62.3331 9.69395C62.1533 9.88759 61.9818 10.1034 61.8186 10.3468C61.6553 10.5902 61.4977 10.8503 61.3428 11.1241C61.1878 11.4008 61.0385 11.694 60.8891 12.001C60.7425 12.3109 60.5876 12.629 60.4299 12.9554C60.2722 13.2818 60.1062 13.6165 59.9347 13.9596C59.8213 13.7798 59.7217 13.5944 59.6415 13.4091C59.5613 13.2237 59.4976 13.0356 59.4479 12.8448C59.4008 12.6539 59.3538 12.463 59.3095 12.2749C59.2653 12.0868 59.221 11.8932 59.1768 11.705C59.1353 11.5142 59.0855 11.3288 59.0302 11.149C58.9748 10.9692 58.914 10.7922 58.8476 10.6207C58.7812 10.4492 58.6954 10.2887 58.5903 10.1366C58.4852 9.98442 58.3607 9.84057 58.2196 9.70779C58.1145 9.6414 57.9707 9.575 57.7909 9.51138C57.611 9.44775 57.3925 9.38413 57.1352 9.32327C56.878 9.26242 56.6097 9.21539 56.3275 9.18496C56.0453 9.15453 55.7549 9.13793 55.4506 9.13793C55.1463 9.13793 54.8503 9.16283 54.5654 9.20986C54.2804 9.25688 54.0038 9.32881 53.7383 9.42286C53.4727 9.51691 53.2431 9.65246 53.0522 9.82397C52.8613 9.99548 52.7092 10.2057 52.5958 10.4519C52.3468 10.9941 52.1449 11.5474 51.9844 12.1089C51.824 12.6705 51.7106 13.2403 51.6386 13.8212C51.5667 14.4022 51.5003 14.9803 51.4339 15.5585C51.3703 16.1366 51.3095 16.7148 51.2514 17.2902C51.1407 18.4188 50.8475 19.5004 50.5875 20.5793C50.3274 21.6581 50.1034 22.737 50.1227 23.8601C50.1255 24.0261 50.1338 24.192 50.1476 24.3608C50.1614 24.5295 50.1836 24.6983 50.2085 24.867C50.2361 25.0385 50.2693 25.2073 50.3136 25.376C50.3579 25.5448 50.4159 25.7052 50.4934 25.8601C50.9554 26.7785 51.8046 27.2101 52.7507 27.3843C53.6968 27.5586 54.7452 27.4784 55.6 27.3705C56.1007 27.3096 56.5184 27.2184 56.8531 27.1022C57.1878 26.986 57.4423 26.8421 57.6138 26.6706C57.7853 26.4991 57.8987 26.3 57.9568 26.0759C58.0149 25.849 58.0149 25.5973 57.9568 25.3152C57.8987 25.0358 57.8296 24.7287 57.7438 24.4023C57.6581 24.0731 57.5585 23.7218 57.4451 23.3456C57.3317 22.9693 57.2238 22.571 57.1242 22.1533C57.0246 21.7356 56.9305 21.293 56.8448 20.8338C56.759 20.3718 56.7258 19.8905 56.7452 19.387C56.7646 18.8835 56.8365 18.3635 56.9582 17.8213C57.1297 17.9458 57.2736 18.0703 57.3925 18.2003C57.5115 18.3275 57.6055 18.4603 57.6719 18.5931C57.7383 18.7259 57.8157 18.8669 57.9015 19.0136C57.9873 19.1602 58.0813 19.3151 58.1864 19.4783C58.2445 19.6221 58.3026 19.7605 58.3662 19.8988C58.4271 20.0371 58.4935 20.1726 58.5599 20.3054C58.6263 20.4382 58.6982 20.5654 58.7784 20.6872C58.8559 20.8089 58.9416 20.9251 59.0329 21.0329C59.1242 21.1436 59.2183 21.2404 59.3178 21.3289C59.4174 21.4175 59.5225 21.4949 59.6332 21.5613C59.7439 21.6277 59.8545 21.6775 59.9734 21.7107C60.0924 21.7439 60.2114 21.7605 60.3331 21.7605C60.5322 21.7605 60.7397 21.7135 60.9555 21.6166C61.1713 21.5198 61.3898 21.3787 61.6194 21.1879C61.7245 21.1021 61.8241 20.9832 61.9181 20.8338C62.0122 20.6844 62.1035 20.5018 62.1892 20.2888C62.275 20.0758 62.3607 19.8573 62.4465 19.6387C62.5323 19.4202 62.618 19.1989 62.7038 18.9748C62.7895 18.7508 62.8725 18.5405 62.9583 18.3469C63.0413 18.1505 63.1242 17.9707 63.2045 17.8047C63.2847 17.6387 63.3704 17.5142 63.459 17.4312C63.5475 17.3483 63.6388 17.3068 63.7328 17.3068C63.8103 17.3068 63.885 17.3372 63.9569 17.3953C64.0316 17.4561 64.1035 17.5447 64.1754 17.6636C64.2474 17.7826 64.322 17.9402 64.3995 18.1394C64.477 18.3358 64.5599 18.5737 64.6457 18.8504C64.7702 19.1159 64.8559 19.3842 64.9057 19.6498C64.9555 19.9154 64.9694 20.1837 64.9445 20.4493C64.9196 20.7148 64.8781 20.9776 64.82 21.2349C64.7591 21.4922 64.6844 21.7439 64.5876 21.9901C64.4936 22.239 64.3912 22.4797 64.2833 22.7149C64.1754 22.95 64.062 23.1796 63.9431 23.4037C63.8241 23.6277 63.719 23.8435 63.6249 24.0537C63.5309 24.264 63.4534 24.4659 63.387 24.6595C63.3207 24.856 63.2792 25.0413 63.2626 25.2156C63.246 25.3898 63.2543 25.5586 63.2875 25.7163C63.3207 25.8739 63.4009 26.0178 63.5254 26.1506C63.6498 26.2834 63.8241 26.4051 64.0427 26.5157C64.2612 26.6264 64.5351 26.7204 64.8642 26.8006C65.1934 26.8809 65.5752 26.9473 66.015 26.9998Z" fill="#FFCAD8"/>
<path id="Vector_4" d="M48.941 25.733L48.9354 25.7274C49.0516 25.6113 49.1567 25.484 49.248 25.3512C49.3282 25.1687 49.3891 24.9944 49.4251 24.8312C49.461 24.668 49.4748 24.5158 49.4638 24.372C49.4527 24.2281 49.4333 24.0843 49.4029 23.9404C49.3725 23.7966 49.331 23.6472 49.2812 23.5006C49.2286 23.354 49.1733 23.1935 49.1125 23.0276C49.0516 22.8616 48.9852 22.679 48.9133 22.4909C48.8414 22.3028 48.7777 22.0953 48.7169 21.8712C48.656 21.6472 48.6062 21.4037 48.5592 21.1437C48.5122 20.8837 48.479 20.596 48.4596 20.2834C48.4403 19.9708 48.432 19.6278 48.4375 19.2626C48.443 18.8947 48.4707 18.4881 48.5177 18.0455C48.5647 17.6029 48.6367 17.1188 48.7279 16.5987C48.7473 16.3138 48.7667 16.0399 48.786 15.7771C48.8054 15.5143 48.8192 15.2626 48.8358 15.0219C48.8524 14.7813 48.8441 14.5351 48.8165 14.2833C48.7888 14.0316 48.739 13.7716 48.6671 13.506C48.6145 13.21 48.5288 12.9196 48.4071 12.6346C48.2853 12.3497 48.1277 12.0675 47.934 11.7937C47.7404 11.5171 47.5191 11.257 47.2756 11.0136C47.0322 10.7702 46.7611 10.5378 46.4651 10.3248C46.1691 10.1118 45.851 9.91814 45.508 9.74663C45.165 9.57513 44.7998 9.42574 44.4125 9.29849C43.8289 9.10485 43.223 8.98591 42.6117 8.91675C42.0004 8.84759 41.3807 8.83376 40.7694 8.84759C40.2133 8.86142 39.6352 8.83929 38.8772 8.90292C38.1193 8.96654 37.1843 9.11315 35.9145 9.46724C34.6946 9.80749 33.7458 10.3442 33.1178 10.9998C32.4899 11.6554 32.18 12.4355 32.2354 13.2598C32.2464 13.4175 32.2547 13.6001 32.2879 13.7716C32.3211 13.9458 32.3765 14.1118 32.4816 14.2363C32.5867 14.3636 32.7222 14.4853 32.8689 14.5932C33.0155 14.6983 33.1731 14.7896 33.3253 14.8532C33.5189 14.9334 33.7264 14.9804 33.9339 15.0109C34.1413 15.0413 34.3543 15.0524 34.5674 15.0634C34.6808 15.069 34.7969 15.0745 34.9104 15.0745C35.0238 15.0745 35.14 15.069 35.2506 15.0524C35.3696 15.0358 35.4858 15.0081 35.6019 14.9721C35.7181 14.9389 35.8315 14.8975 35.945 14.8587C36.1552 14.784 36.371 14.7149 36.5812 14.6374C36.7914 14.5572 36.9961 14.4659 37.1898 14.3525C37.3724 14.2446 37.5217 14.1008 37.6767 13.9597C37.8316 13.8186 37.9865 13.672 38.1773 13.5613C38.3544 13.4562 38.5342 13.3539 38.7168 13.2598C38.8993 13.1685 39.0902 13.0855 39.2866 13.0247C39.5024 12.9583 39.7237 12.9196 39.945 12.8947C40.1691 12.8725 40.3931 12.867 40.62 12.867C40.8053 12.867 40.9934 12.8753 41.1788 12.9002C41.3641 12.9251 41.5439 12.9666 41.7154 13.0385C42.0308 13.1741 42.2936 13.412 42.4734 13.7052C42.6532 13.9984 42.7528 14.3414 42.7445 14.6844C42.7362 14.9721 42.656 15.2543 42.5232 15.506C42.3904 15.7605 42.2023 15.9846 41.9755 16.1616C41.7099 16.3691 41.3613 16.4908 40.999 16.5738C40.6366 16.6568 40.2604 16.6955 39.9367 16.7481C39.0515 16.8864 38.1608 16.9611 37.2811 17.116C36.4014 17.2709 35.53 17.5005 34.6863 17.9514C34.4595 18.0731 34.2326 18.2059 34.0252 18.3553C33.8149 18.5047 33.6213 18.6762 33.4525 18.8698C32.8937 19.5199 32.6254 20.5158 32.5729 21.5421C32.5203 22.5684 32.6835 23.6195 32.9933 24.3775C33.1261 24.7039 33.3032 25.0027 33.5217 25.2682C33.7402 25.5366 34.003 25.7745 34.3101 25.9847C34.6171 26.1949 34.9546 26.3499 35.3281 26.455C35.7015 26.5601 36.1054 26.6127 36.5452 26.6127C36.9851 26.6127 37.4028 26.5601 37.8648 26.4522C38.3267 26.3443 38.8108 26.1839 39.3143 25.9709C39.8178 25.7579 40.3461 25.4674 40.8938 25.105C41.4416 24.7426 42.0142 24.3056 42.6062 23.7966C42.4927 24.0815 42.4181 24.3471 42.3793 24.5933C42.3406 24.8395 42.3406 25.0635 42.3766 25.2655C42.4125 25.4702 42.4734 25.6555 42.5564 25.8243C42.6394 25.993 42.75 26.1424 42.8828 26.2752C43.0156 26.408 43.1677 26.5214 43.3392 26.6182C43.5107 26.715 43.7016 26.7952 43.9091 26.8561C44.1193 26.9169 44.3351 26.964 44.5564 26.9944C44.7777 27.0248 45.0073 27.0414 45.2424 27.0414C45.4361 27.0414 45.6325 27.0304 45.8289 27.011C46.0253 26.9916 46.2245 26.9612 46.4236 26.9197C46.6228 26.8782 46.8164 26.8312 47.0101 26.7731C47.2037 26.715 47.3891 26.6542 47.5716 26.5822C47.7542 26.5103 47.9285 26.4328 48.0917 26.3443C48.2549 26.2558 48.4071 26.1645 48.5509 26.0622C48.6948 25.9598 48.8248 25.8492 48.941 25.733ZM40.5287 20.8975C40.2908 21.1133 39.9422 21.2959 39.7569 21.3871C39.5909 21.4701 39.389 21.5227 39.1843 21.5587C38.9796 21.5974 38.7693 21.6195 38.5868 21.6444C38.5038 21.6555 38.4097 21.6748 38.3184 21.6776C38.2271 21.6804 38.1386 21.6721 38.0639 21.6278C38.0639 21.6278 38.0556 21.6223 38.0529 21.6223C38.0501 21.6223 38.0473 21.6167 38.0418 21.6167C37.9284 21.5365 37.8343 21.3512 37.7735 21.1548C37.7126 20.9556 37.6877 20.7454 37.7181 20.6181C37.7596 20.4521 37.8648 20.3166 38.0003 20.2115C38.1359 20.1064 38.3018 20.0289 38.465 19.9736C38.7472 19.8823 39.0432 19.8353 39.3392 19.8353C39.6352 19.8353 39.9312 19.8795 40.2133 19.9708C40.2908 19.9957 40.3682 20.0261 40.4402 20.0621C40.5121 20.0981 40.5812 20.1423 40.6421 20.1976C40.8966 20.4272 40.7694 20.679 40.5287 20.8975Z" fill="#FFCAD8"/>
<path id="Vector_5" d="M89.7935 24.5065L89.788 24.501C89.7576 24.3544 89.7161 24.2078 89.6663 24.0611C89.6137 23.9145 89.5584 23.7541 89.4975 23.5881C89.4367 23.4221 89.3703 23.2395 89.2984 23.0514C89.2264 22.8633 89.1628 22.6559 89.102 22.4318C89.0411 22.2077 88.9913 21.9643 88.9443 21.7043C88.8973 21.4442 88.8641 21.1565 88.8447 20.8439C88.8253 20.5314 88.817 20.1883 88.8226 19.8232C88.8281 19.4553 88.8558 19.0486 88.9028 18.606C88.9498 18.1634 89.0217 17.6793 89.113 17.1593C89.1324 16.8743 89.1517 16.6005 89.1711 16.3377C89.1905 16.0749 89.2043 15.8231 89.2209 15.5825C89.2375 15.3418 89.2292 15.0956 89.2015 14.8439C89.1739 14.5922 89.1241 14.3321 89.0522 14.0666C88.9996 13.7706 88.9138 13.4801 88.7921 13.1952C88.6704 12.9102 88.5127 12.6281 88.3191 12.3542C88.1255 12.0776 87.9042 11.8176 87.6607 11.5741C87.4173 11.3307 87.1462 11.0983 86.8502 10.8853C86.5542 10.6723 86.2361 10.4787 85.8931 10.3072C85.5501 10.1357 85.1849 9.98629 84.7976 9.85904C84.2139 9.6654 83.6081 9.54645 82.9968 9.4773C82.3854 9.40814 81.7658 9.39431 81.1544 9.40814C80.5984 9.42197 80.0203 9.39984 79.2623 9.46346C78.5043 9.52709 77.5693 9.6737 76.2996 10.0278C75.0797 10.368 74.1308 10.9047 73.5029 11.5603C72.8749 12.2159 72.5651 12.996 72.6204 13.8204C72.6315 13.978 72.6398 14.1606 72.673 14.3321C72.7062 14.5064 72.7615 14.6724 72.8666 14.7969C72.9718 14.9241 73.1073 15.0458 73.2539 15.1537C73.4005 15.2588 73.5582 15.3501 73.7104 15.4137C73.904 15.494 74.1115 15.541 74.3189 15.5714C74.5264 15.6018 74.7394 15.6129 74.9524 15.624C75.0658 15.6295 75.182 15.635 75.2954 15.635C75.4089 15.635 75.525 15.6295 75.6357 15.6129C75.7546 15.5963 75.8708 15.5687 75.987 15.5327C76.1032 15.4995 76.2166 15.458 76.33 15.4193C76.5403 15.3446 76.756 15.2754 76.9663 15.198C77.1765 15.1177 77.3812 15.0265 77.5749 14.913C77.7574 14.8052 77.9068 14.6613 78.0617 14.5202C78.2166 14.3791 78.3715 14.2325 78.5624 14.1219C78.7395 14.0168 78.9193 13.9144 79.1018 13.8204C79.2844 13.7291 79.4753 13.6461 79.6717 13.5852C79.8875 13.5188 80.1088 13.4801 80.3301 13.4552C80.5541 13.4331 80.7782 13.4275 81.005 13.4275C81.1904 13.4275 81.3785 13.4358 81.5638 13.4607C81.7492 13.4856 81.929 13.5271 82.1005 13.5991C82.4158 13.7346 82.6786 13.9725 82.8585 14.2657C83.0383 14.559 83.1378 14.902 83.1295 15.245C83.1212 15.5327 83.041 15.8148 82.9082 16.0666C82.7755 16.3211 82.5874 16.5451 82.3605 16.7222C82.095 16.9297 81.7464 17.0514 81.384 17.1344C81.0216 17.2174 80.6454 17.2561 80.3218 17.3086C79.4366 17.447 78.5458 17.5216 77.6661 17.6766C76.7865 17.8315 75.9151 18.0611 75.0714 18.512C74.8445 18.6337 74.6177 18.7665 74.4102 18.9159C74.2 19.0652 74.0063 19.2367 73.8376 19.4304C73.2788 20.0805 73.0105 21.0763 72.9579 22.1026C72.9054 23.1289 73.0686 24.1801 73.3784 24.938C73.5112 25.2645 73.6882 25.5632 73.9068 25.8288C74.1253 26.0971 74.3881 26.335 74.6952 26.5453C75.0022 26.7555 75.3397 26.9104 75.7131 27.0155C76.0866 27.1206 76.4905 27.1732 76.9303 27.1732C77.3701 27.1732 77.7879 27.1206 78.2498 27.0128C78.7118 26.9049 79.1959 26.7444 79.6994 26.5314C80.2028 26.3184 80.7312 26.028 81.2789 25.6656C81.8266 25.3032 82.3992 24.8661 82.9912 24.3571C82.8778 24.6421 82.8031 24.9076 82.7644 25.1538C82.7257 25.4 82.7257 25.6241 82.7616 25.826C82.7976 26.0307 82.8585 26.2161 82.9414 26.3848C83.0244 26.5536 83.1351 26.7029 83.2679 26.8357C83.4006 26.9685 83.5528 27.0819 83.7243 27.1787C83.8958 27.2756 84.0867 27.3558 84.2942 27.4166C84.5044 27.4775 84.7202 27.5245 84.9415 27.555C85.1628 27.5854 85.3924 27.602 85.6275 27.602C85.8211 27.602 86.0176 27.5909 86.214 27.5715C86.4104 27.5522 86.6095 27.5218 86.8087 27.4803C87.0079 27.4388 87.2015 27.3917 87.3952 27.3336C87.5888 27.2756 87.7741 27.2147 87.9567 27.1428C88.1393 27.0709 88.3136 26.9934 88.4768 26.9049C88.64 26.8164 88.7921 26.7251 88.936 26.6227C89.0798 26.5204 89.2098 26.4097 89.326 26.2935C89.4422 26.1773 89.5473 26.0501 89.6386 25.9173C89.7188 25.7347 89.7797 25.5605 89.8157 25.3972C89.8516 25.234 89.8654 25.0819 89.8544 24.938C89.8433 24.7942 89.8239 24.6504 89.7935 24.5065ZM80.9138 21.4581C80.6759 21.6738 80.3273 21.8564 80.142 21.9477C79.976 22.0307 79.774 22.0832 79.5693 22.1192C79.3646 22.1579 79.1544 22.1801 78.9718 22.205C78.8888 22.216 78.7948 22.2354 78.7035 22.2382C78.6122 22.2409 78.5237 22.2326 78.449 22.1884C78.4462 22.1884 78.4407 22.1828 78.4379 22.1828C78.4352 22.1828 78.4324 22.1773 78.4269 22.1773C78.3135 22.0971 78.2194 21.9117 78.1585 21.7153C78.0977 21.5162 78.0728 21.3059 78.1032 21.1787C78.1447 21.0127 78.2498 20.8771 78.3854 20.772C78.5209 20.6669 78.6869 20.5895 78.8501 20.5341C79.1323 20.4428 79.4283 20.3958 79.7243 20.3958C80.0202 20.3958 80.3162 20.4401 80.5984 20.5314C80.6759 20.5563 80.7533 20.5867 80.8252 20.6226C80.8972 20.6586 80.9663 20.7029 81.0272 20.7582C81.2817 20.9878 81.1544 21.2395 80.9138 21.4581Z" fill="#FFCAD8"/>
<path id="Vector_6" d="M63.4638 41.3597C63.4195 41.2324 63.3697 41.0941 63.3144 40.9475C63.2618 40.8009 63.2037 40.6432 63.1401 40.4772C63.0765 40.3112 63.0211 40.1314 62.9686 39.9323C62.916 39.7359 62.8718 39.5229 62.8303 39.2933C62.7888 39.0637 62.7611 38.8119 62.7418 38.5381C62.7224 38.2642 62.7169 37.9627 62.7224 37.6418C62.7279 37.3181 62.7501 36.964 62.7943 36.574C62.8358 36.184 62.8994 35.7607 62.9797 35.3043C62.9963 35.0525 63.0156 34.8119 63.0294 34.5823C63.046 34.3527 63.0599 34.1314 63.0737 33.9211C63.0875 33.7109 63.082 33.4951 63.0571 33.2738C63.0322 33.0525 62.988 32.8257 62.9271 32.5933C62.8828 32.3333 62.8054 32.0788 62.6975 31.8271C62.5896 31.5753 62.4513 31.3291 62.2825 31.0885C62.111 30.8478 61.9202 30.6182 61.7044 30.4024C61.4886 30.1867 61.2535 29.9847 60.9935 29.7966C60.7334 29.6085 60.454 29.4398 60.1525 29.2904C59.8538 29.141 59.5329 29.0082 59.1926 28.8976C58.6809 28.7288 58.1497 28.6237 57.6131 28.5628C57.0764 28.502 56.5342 28.4882 55.9976 28.502C55.5107 28.5158 55.0017 28.4965 54.3378 28.5518C53.6739 28.6071 52.8523 28.7371 51.7402 29.0469C50.6697 29.3457 49.837 29.816 49.2866 30.3914C48.7361 30.9667 48.4622 31.65 48.512 32.3748C48.5203 32.5131 48.5286 32.6735 48.559 32.8257C48.5867 32.9778 48.6365 33.1244 48.7278 33.2351C48.819 33.3457 48.938 33.4536 49.068 33.5477C49.198 33.6417 49.3363 33.7192 49.4691 33.7745C49.6406 33.8464 49.8204 33.8879 50.003 33.9128C50.1856 33.9377 50.3737 33.9488 50.559 33.9571C50.6586 33.9626 50.761 33.9654 50.8606 33.9654C50.9602 33.9654 51.0597 33.9599 51.1593 33.946C51.2644 33.9322 51.3668 33.9073 51.4664 33.8769C51.5687 33.8464 51.6683 33.8132 51.7679 33.7773C51.9533 33.7137 52.1414 33.6528 52.3267 33.5809C52.512 33.509 52.6918 33.4315 52.8606 33.3292C53.0183 33.2351 53.1538 33.1106 53.2866 32.9834C53.4221 32.8589 53.5577 32.7316 53.7237 32.632C53.8786 32.5408 54.0363 32.4495 54.1967 32.3692C54.3572 32.289 54.5231 32.2171 54.6946 32.1645C54.8827 32.1065 55.0764 32.0705 55.2728 32.0511C55.4692 32.0318 55.6684 32.0262 55.8648 32.0262C56.028 32.0262 56.194 32.0318 56.3544 32.0539C56.5176 32.076 56.6753 32.112 56.8247 32.1756C57.1013 32.2946 57.3309 32.5048 57.4913 32.7593C57.649 33.0166 57.7375 33.3181 57.7292 33.6196C57.7237 33.8713 57.6518 34.1175 57.5356 34.3416C57.4194 34.5657 57.2535 34.7621 57.057 34.917C56.8247 35.0996 56.5204 35.2075 56.2023 35.2766C55.8841 35.3485 55.5549 35.3845 55.27 35.4288C54.4927 35.5505 53.7126 35.6169 52.9408 35.7524C52.169 35.888 51.4055 36.0899 50.6642 36.4855C50.465 36.5934 50.2658 36.7068 50.0832 36.8396C49.8979 36.9723 49.7292 37.119 49.5798 37.2932C49.0901 37.8631 48.8522 38.7372 48.808 39.6363C48.761 40.5353 48.9048 41.4565 49.1759 42.1232C49.2921 42.4109 49.447 42.6709 49.6379 42.906C49.8315 43.1412 50.0611 43.3514 50.3294 43.534C50.5978 43.7165 50.8965 43.8549 51.223 43.9461C51.5494 44.0374 51.9062 44.0845 52.2907 44.0845C52.6752 44.0845 53.0432 44.0374 53.4498 43.9434C53.8537 43.8493 54.2797 43.7082 54.7223 43.5201C55.1649 43.332 55.6269 43.0803 56.1082 42.7622C56.5895 42.4441 57.0902 42.0623 57.6103 41.6142C57.5107 41.8659 57.4443 42.0983 57.4111 42.314C57.3779 42.5298 57.3752 42.7262 57.4084 42.906C57.4388 43.0858 57.4914 43.249 57.566 43.3957C57.6407 43.5423 57.7348 43.675 57.851 43.7912C57.9671 43.9074 58.0999 44.007 58.2493 44.0928C58.3987 44.1785 58.5674 44.2477 58.75 44.3002C58.9326 44.3528 59.1235 44.3943 59.3171 44.4219C59.5107 44.4496 59.7127 44.4634 59.9174 44.4634C60.0861 44.4634 60.2576 44.4551 60.4319 44.4358C60.6062 44.4164 60.7777 44.3915 60.952 44.3556C61.1262 44.3196 61.2978 44.2781 61.4665 44.2283C61.6352 44.1785 61.7985 44.1232 61.9589 44.0596C62.1193 43.9959 62.2715 43.9268 62.4153 43.8521C62.5592 43.7774 62.692 43.6944 62.8192 43.6031C62.9437 43.5146 63.0599 43.4178 63.1622 43.3154C63.2646 43.2131 63.3559 43.1024 63.4389 42.9862C63.5108 42.8258 63.5606 42.6737 63.5938 42.5298C63.6242 42.386 63.6353 42.2532 63.627 42.1259C63.6187 42.0014 63.5993 41.8742 63.5744 41.7469C63.5467 41.6197 63.5108 41.4897 63.4665 41.3597H63.4638ZM55.7818 39.083V39.0775C55.5743 39.2684 55.27 39.4288 55.1068 39.5118C54.9602 39.5837 54.7832 39.6307 54.6034 39.6639C54.4235 39.6971 54.2382 39.7165 54.0805 39.7386C54.0058 39.7469 53.9256 39.7635 53.8454 39.7691C53.7652 39.7718 53.6877 39.7663 53.6213 39.7248C53.6186 39.7248 53.6158 39.722 53.613 39.7193C53.6103 39.7193 53.6075 39.7165 53.6047 39.7137C53.5051 39.6446 53.4221 39.4814 53.3668 39.3071C53.3115 39.1328 53.2921 38.9475 53.3198 38.8368C53.3558 38.6902 53.447 38.5713 53.566 38.48C53.6849 38.3859 53.8288 38.3195 53.9726 38.2725C54.2188 38.1923 54.4789 38.1508 54.7389 38.1508C54.9989 38.1508 55.259 38.1895 55.5052 38.2697C55.5743 38.2919 55.6407 38.3168 55.7043 38.35C55.768 38.3832 55.8288 38.4191 55.8814 38.4689C56.1054 38.6708 55.992 38.8921 55.7818 39.083Z" fill="#FFCAD8"/>
<path id="Vector_7" d="M28.1603 38.088L28.1492 38.0825C29.4217 37.3909 29.8754 36.0769 30.0137 34.9344C30.1492 33.7947 29.9694 32.8265 29.9694 32.8265C29.0593 28.9537 26.5143 27.294 23.9694 26.6024C21.4244 25.9108 18.8766 26.1875 17.9693 26.1875C17.062 26.1875 15.878 26.4641 15.0592 27.2248C14.2403 27.9855 13.7867 29.2304 14.3316 31.1668C14.8766 33.1032 16.5142 33.4489 18.0135 33.3106C19.5129 33.1723 20.8767 32.5499 20.8794 32.5499C21.2916 32.3618 22.1906 31.8085 23.0731 31.4849C23.9555 31.1612 24.8214 31.0699 25.1644 31.8085C25.3414 32.1903 25.2778 32.6384 25.1063 33.0727C24.9348 33.507 24.6526 33.9247 24.3898 34.2456C24.0385 34.6744 23.5987 35.0645 23.098 35.3992C22.5973 35.7339 22.033 36.0133 21.4299 36.2291C20.8186 36.4476 19.9997 36.6053 19.322 36.9068C18.6443 37.2083 18.1021 37.6565 18.044 38.4587C18.0301 38.6302 18.044 38.8072 18.0965 38.9704C18.1491 39.1337 18.2293 39.2858 18.351 39.4075C18.4202 39.4739 18.4977 39.5292 18.5806 39.5763C18.6636 39.6233 18.7521 39.6592 18.8434 39.6924C19.2888 39.8529 19.7508 39.8944 20.2155 39.9027C20.6802 39.911 21.1505 39.8888 21.6125 39.922C22.0938 39.9552 22.5724 40.0272 23.0427 40.1267C23.5129 40.2263 23.9804 40.3536 24.4424 40.5002C24.9486 40.6606 25.4078 40.7907 25.7868 40.9898C26.1658 41.189 26.4645 41.4546 26.6471 41.8861C26.9237 42.5362 26.8767 43.3052 26.5752 44.0106C26.2737 44.716 25.7176 45.3578 24.9818 45.7534C24.8048 45.8474 24.6167 45.9276 24.4175 45.9885C24.2183 46.0494 24.0109 46.0909 23.7951 46.1102C22.1574 46.2485 21.4299 46.0411 20.7494 45.5902C20.0689 45.1393 19.4299 44.4504 17.9776 43.6206C16.5253 42.7907 15.4326 43.2748 14.7051 43.9664C13.9775 44.6579 13.6152 45.557 13.6152 45.557C13.6152 45.557 12.7963 46.9401 13.0702 48.3564C13.3441 49.7728 14.7078 51.2278 19.0703 51.3662C23.4355 51.5045 25.9804 51.0204 27.4355 50.5031C28.8906 49.983 29.253 49.4298 29.253 49.4298C32.5255 46.8018 32.2544 43.9663 31.1617 41.7893C30.0718 39.6095 28.1603 38.088 28.1603 38.088Z" fill="#FFCAD8"/>
<path id="Vector_8" d="M46.0194 29.1362L46.025 29.1251C44.8189 28.4667 43.1702 28.262 42.0858 28.4003C41.6598 28.4557 41.278 28.6023 41.0125 28.8512C40.7441 29.1002 40.592 29.4488 40.6224 29.908C40.6529 30.3699 40.8714 30.7406 41.0761 31.1141C41.2808 31.4875 41.4717 31.8637 41.444 32.334C41.4385 32.417 41.4357 32.5719 41.4136 32.7157C41.3915 32.8596 41.3472 32.9951 41.2642 33.0422C41.1867 33.0837 41.0457 33.0671 40.9018 33.0339C40.758 33.0034 40.6114 32.9592 40.5284 32.9481C40.2628 32.9149 39.9889 32.8928 39.7151 32.8955C39.444 32.8983 39.1701 32.9287 38.9101 33.0034C38.6722 33.0726 38.4149 33.1528 38.2102 33.1307C38.0055 33.1085 37.8534 32.9813 37.8257 32.6355C37.8008 32.3119 37.8478 31.9605 37.9198 31.6148C37.9917 31.2662 38.0913 30.9232 38.166 30.6161C38.4426 29.5096 38.0968 28.9564 37.3029 28.6797C36.509 28.4031 35.2614 28.4031 33.7399 28.4031C32.2185 28.4031 31.7344 29.0947 31.6652 30.0269C31.596 30.9591 31.9418 32.1348 32.0801 33.103C32.177 33.7752 32.1327 34.4502 32.0718 35.1252C32.0082 35.8001 31.9252 36.4751 31.9391 37.1473C31.9557 37.9634 31.975 38.7794 31.9916 39.5955C32.0082 40.4115 32.0276 41.2276 32.0442 42.0436C32.0497 42.2539 32.0552 42.4697 32.0857 42.6771C32.1161 42.8846 32.1714 43.0865 32.2766 43.2691C32.4287 43.5374 32.614 43.6536 32.8243 43.6979C33.0345 43.7421 33.2696 43.7117 33.5214 43.684C34.0442 43.6287 34.6417 43.684 35.2254 43.684C35.8091 43.684 36.3734 43.6121 36.8271 43.3023C37.5767 42.7878 37.7206 42.2262 37.6376 41.6259C37.5546 41.0257 37.2476 40.3894 37.0982 39.731C37.0705 39.6121 37.0567 39.4931 37.0512 39.3714C37.0429 39.2497 37.0429 39.1307 37.0429 39.009V37.9357C37.0429 37.8195 37.0429 37.7033 37.0484 37.5899C37.0539 37.4737 37.0705 37.3603 37.0982 37.2497C37.2227 36.7573 37.5602 36.5249 37.9696 36.4115C38.379 36.2981 38.8631 36.3008 39.278 36.2732C39.408 36.2649 39.8672 36.2179 40.296 36.2317C40.7248 36.2483 41.1204 36.3257 41.1287 36.5664C41.1563 37.6508 41.1204 38.7324 41.0789 39.8168C41.0346 40.9012 40.9848 41.9856 40.9793 43.0727C40.9793 43.1502 40.9793 43.2304 40.9848 43.3106C40.9931 43.3881 41.0069 43.4655 41.0346 43.5402C41.0982 43.7034 41.2199 43.8224 41.3693 43.9137C41.5187 44.0049 41.693 44.0686 41.859 44.1156C43.0236 44.442 44.581 44.4392 45.6432 43.9496C46.7055 43.46 47.2753 42.4807 46.4648 40.8597C46.0499 40.0298 45.9116 38.785 46.0499 37.3327C46.1882 35.8804 46.6031 34.2206 47.2947 32.5608C47.9863 30.9011 47.2255 29.7945 46.0194 29.1362Z" fill="#FFCAD8"/>
<path id="Vector_9" d="M81.4671 40.4955V40.4817C81.0439 40.3794 80.5625 40.407 80.1144 40.537C79.6663 40.6671 79.2513 40.9049 78.9581 41.2258C78.6759 41.5329 78.427 41.8731 78.1586 42.194C77.8903 42.5149 77.6082 42.822 77.2568 43.0599C76.7783 43.3891 76.2278 43.5606 75.6496 43.6491C75.0742 43.7376 74.4712 43.7432 73.8903 43.7459C73.4117 43.7459 72.9082 43.7376 72.4352 43.6463C71.9649 43.555 71.5251 43.3808 71.1793 43.0488C70.911 42.7943 70.7312 42.4541 70.651 42.0944C70.5707 41.7348 70.5901 41.3503 70.7229 41.0045C70.7478 40.9409 70.7754 40.8801 70.8086 40.8192C70.8418 40.7583 70.8778 40.703 70.9221 40.6505C70.9774 40.5813 71.0438 40.5204 71.1129 40.4651C71.1821 40.4098 71.2568 40.36 71.3342 40.313C71.8488 39.9921 72.3495 39.9174 72.8668 39.9146C73.384 39.9119 73.9152 39.9755 74.4906 39.9368C74.7838 39.9174 75.077 39.851 75.3426 39.7376C75.6081 39.6242 75.8516 39.4637 76.0424 39.2562C76.2167 39.0681 76.2444 38.8302 76.2195 38.5896C76.1946 38.3461 76.1144 38.0999 76.0673 37.8925C76.0563 37.8399 76.0424 37.7873 76.0286 37.7348C76.012 37.6822 75.9927 37.6324 75.9678 37.5854C75.8986 37.4582 75.7907 37.3558 75.6607 37.2701C75.5334 37.1843 75.3841 37.1151 75.2375 37.0571C75.1877 37.0377 75.1379 37.0183 75.0853 37.0017C75.0328 36.9879 74.9802 36.9768 74.9249 36.9741C74.8695 36.9741 74.8142 36.9796 74.7589 36.9907C74.7036 37.0017 74.6482 37.0183 74.5957 37.0349C74.474 37.0736 74.3439 37.0985 74.2139 37.1262C74.0839 37.1539 73.9567 37.1815 73.8405 37.223C73.7105 37.2673 73.586 37.3447 73.467 37.4305C73.3481 37.5163 73.2347 37.6075 73.1268 37.685C72.8557 37.8759 72.5569 38.0529 72.2416 38.1774C71.4587 38.4872 70.4048 38.62 69.7989 37.9091C69.4615 37.5135 69.3204 36.9824 69.3038 36.4651C69.2927 36.0916 69.3397 35.7126 69.4836 35.3669C69.6357 34.9962 69.8902 34.6753 70.1779 34.3959C70.8142 33.7762 71.633 33.3336 72.5127 33.2175C72.8944 33.1649 73.3149 33.187 73.6219 33.4222C73.7852 33.5494 73.9013 33.7237 74.0286 33.8869C74.7451 34.7915 76.0812 35.259 77.1075 34.7361C77.6137 34.4789 78.0314 34.0446 78.3219 33.5632C78.4408 33.3641 78.5487 33.1594 78.6455 32.9436C78.7423 32.7278 78.8226 32.512 78.8862 32.2963C78.9498 32.0805 78.9968 31.862 79.0273 31.6407C79.0577 31.4221 79.0688 31.2064 79.0605 30.9989C79.0522 30.7914 79.0217 30.5867 78.9719 30.3875C78.9221 30.1884 78.8447 30.003 78.7423 29.8288C78.6372 29.6545 78.5072 29.494 78.3495 29.3474C77.9954 28.9574 77.5999 28.6365 77.1628 28.3848C76.7257 28.133 76.2527 27.9477 75.7381 27.8343C75.2236 27.7181 74.698 27.66 74.1641 27.6572C73.6302 27.6572 73.0853 27.707 72.5293 27.8177C71.9926 27.9228 71.467 28.0805 70.947 28.2879C70.4269 28.4954 69.9151 28.7527 69.4089 29.0625C68.9027 29.3723 68.4352 29.7264 68.0064 30.1247C67.5776 30.5231 67.182 30.9657 66.828 31.4553C66.4711 31.9422 66.1447 32.4733 65.8653 33.0459C65.5859 33.6186 65.3591 34.2271 65.2041 34.8772C65.0492 35.5245 64.7615 36.1497 64.6426 37.3005C64.5236 38.4513 64.5762 40.1304 65.1046 42.8884C65.1792 43.2757 65.2761 43.6546 65.4061 44.0281C65.5389 44.4015 65.7048 44.7639 65.9178 45.118C66.1308 45.4721 66.3743 45.8068 66.6426 46.1249C66.9109 46.443 67.2069 46.7418 67.5306 47.0212C67.8542 47.3034 68.2 47.5606 68.5652 47.8013C68.9303 48.0392 69.3176 48.2577 69.7215 48.4541C70.1281 48.6505 70.5431 48.8193 70.9691 48.9631C71.3951 49.107 71.8294 49.2232 72.2748 49.3144C72.6731 49.3642 73.0881 49.3781 73.5279 49.3532C73.965 49.331 74.4242 49.2729 74.9027 49.1761C75.2181 49.1125 75.5335 49.0351 75.8488 48.9438C76.1642 48.8525 76.4767 48.7446 76.7921 48.6229C77.1047 48.5012 77.4118 48.3684 77.7105 48.2218C78.0093 48.0752 78.2997 47.9175 78.5847 47.746C78.8696 47.5745 79.1407 47.3919 79.4007 47.1955C79.6607 46.9991 79.9069 46.7916 80.1421 46.5703C80.3772 46.349 80.5902 46.1166 80.7866 45.8704C80.9803 45.6242 81.1573 45.367 81.3122 45.0986C81.4644 44.8635 81.6082 44.6145 81.741 44.3517C81.8765 44.0889 82.001 43.8123 82.1172 43.5191C82.3164 43.0156 82.5404 42.3517 82.5183 41.768C82.4989 41.1843 82.2362 40.6809 81.4671 40.4955Z" fill="#FFCAD8"/>
</g>
</g>
</svg>
