<svg width="156" height="103" viewBox="0 0 156 103" fill="none" xmlns="http://www.w3.org/2000/svg">
<g clip-path="url(#clip0_46_2929)">
<path d="M144.773 49.0307C144.737 48.5538 144.67 48.0849 144.574 47.632L144.562 47.6119C144.471 47.1751 144.355 46.7463 144.2 46.2934L144.085 45.9607C144.029 45.8044 143.973 45.6361 143.91 45.4678L143.878 45.3836C143.79 45.1431 143.695 44.8826 143.591 44.6101C143.591 44.6021 143.559 44.5179 143.496 44.2855C143.476 44.2133 143.44 44.057 143.384 43.7404C143.368 43.6402 143.341 43.4639 143.325 43.1954C143.305 42.8747 143.297 42.5341 143.305 42.1774C143.309 41.8367 143.337 41.4279 143.388 40.959C143.44 40.4821 143.52 39.913 143.635 39.2637L143.711 38.6265C143.739 38.2257 143.766 37.845 143.79 37.4682C143.806 37.2238 143.822 36.9873 143.838 36.7549L143.866 36.3461C143.914 35.6567 143.898 34.9353 143.818 34.2099C143.754 33.6168 143.647 33.0116 143.496 32.4144C143.337 31.6289 143.098 30.8554 142.783 30.114C142.441 29.3044 142.003 28.5229 141.506 27.8095C141.036 27.1322 140.491 26.4829 139.89 25.8737C139.305 25.2846 138.665 24.7355 137.992 24.2506C137.304 23.7496 136.563 23.3007 135.799 22.916C135.047 22.5393 134.247 22.2066 133.431 21.9381C132.246 21.5413 131.004 21.2728 129.631 21.1165C128.771 21.0203 127.88 20.9722 126.905 20.9722C126.662 20.9722 126.415 20.9722 126.161 20.9802C125.962 20.9842 125.755 20.9842 125.544 20.9882C124.895 20.9882 124.083 20.9963 123.084 21.0804C121.405 21.2207 119.65 21.5533 117.72 22.0984C115.34 22.7677 113.267 23.8618 111.671 25.2926C111.639 25.2325 111.607 25.1684 111.576 25.1082C111.229 24.495 110.867 23.958 110.469 23.465L108.746 22.0062C107.679 21.405 106.625 20.9401 105.646 20.6275C104.436 20.2388 103.246 20.0424 102.1 20.0424C101.117 20.0424 100.162 20.1827 99.2626 20.4552C98.3115 20.7438 97.4121 21.1846 96.6003 21.7657L96.5525 21.8018C96.4093 21.906 96.27 22.0102 96.1347 22.1224C95.6969 21.878 95.2194 21.6615 94.6861 21.4732C94.2165 21.3049 93.6912 21.1526 93.1261 21.0163C92.5093 20.868 91.8686 20.7598 91.2318 20.6877C90.6031 20.6195 89.9663 20.5835 89.3296 20.5835C88.5774 20.5835 87.8213 20.6436 87.0851 20.7678C86.3329 20.8921 85.5888 21.0844 84.8764 21.3409C83.7582 21.7417 82.7513 22.3389 81.8917 23.1164C81.5176 23.453 81.1873 23.8257 80.8809 24.2225C80.5625 23.95 80.2322 23.6895 79.894 23.445C79.2055 22.944 78.4653 22.4952 77.7012 22.1104C76.9491 21.7337 76.1492 21.401 75.3373 21.1325C74.1514 20.7357 72.9098 20.4672 71.5368 20.3109C70.6772 20.2147 69.7858 20.1666 68.8108 20.1666C68.5681 20.1666 68.3213 20.1666 68.0666 20.1747C67.8676 20.1787 67.6607 20.1787 67.4538 20.1827C66.8051 20.1827 65.9933 20.1907 64.9944 20.2749C63.315 20.4151 61.56 20.7478 59.6259 21.2928C57.4929 21.89 55.6145 22.8358 54.0983 24.0502C53.9271 23.5091 53.7481 22.9721 53.565 22.4631C53.3819 21.9461 53.175 21.401 52.9123 20.7558L52.8885 20.6997C52.594 19.9943 52.2995 19.3771 51.9771 18.804C51.5911 18.1107 51.1812 17.5055 50.7236 16.9524L49.0283 15.5296C47.8583 14.8724 46.7002 14.3554 45.5899 13.9987C44.2766 13.5738 42.9753 13.3574 41.7257 13.3574C40.6592 13.3574 39.6324 13.5097 38.6694 13.8063C37.6426 14.1229 36.6875 14.5998 35.8319 15.217C35.4738 15.4775 35.1236 15.7581 34.7893 16.0587L34.5386 15.8663C33.9735 15.5136 33.3526 15.217 32.6403 14.9685C32.1508 14.7962 31.6136 14.6359 30.9888 14.4796L30.941 14.4676C30.2605 14.3033 29.5521 14.179 28.8358 14.1029C28.1394 14.0267 27.4191 13.9866 26.7028 13.9866C25.8631 13.9866 25.0353 14.0548 24.2314 14.187C23.4156 14.3233 22.6038 14.5357 21.8118 14.8163L21.7681 14.8323C20.5901 15.2611 19.5395 15.8903 18.6481 16.6999C17.7168 17.5456 16.9726 18.5675 16.4394 19.7458C15.8942 20.9522 15.4445 22.1826 15.0983 23.4089C14.7441 24.6594 14.4854 25.9499 14.3302 27.2484C14.2068 28.2624 14.0914 29.2683 13.98 30.2783C13.8686 31.2882 13.7651 32.2902 13.6656 33.2961C13.586 34.1177 13.4746 34.9794 13.3353 35.8611C13.208 36.6787 13.0488 37.5203 12.8617 38.358C12.7384 38.907 12.5593 39.4561 12.3205 39.9851C12.0738 40.5422 11.7514 41.1033 11.3734 41.6564L10.856 42.5621C10.7167 42.8627 10.5376 43.2635 10.3665 43.6963C10.1914 44.1412 10.0641 44.4979 9.95265 44.8546C9.68601 45.6962 9.55469 46.5659 9.55469 47.4476C9.55469 48.2772 9.67408 49.1108 9.90887 49.9324L10.0919 50.4735C10.474 51.4434 10.9913 52.3371 11.6241 53.1266C12.2767 53.9362 13.0448 54.6336 13.9084 55.1987C14.5889 55.6435 15.3171 56.0203 16.0772 56.3208C16.8453 56.6214 17.6532 56.8419 18.473 56.9741L19.0142 57.0342C20.8527 57.1585 22.4167 57.2186 23.7937 57.2226C23.7937 57.2226 23.8733 57.2226 23.917 57.2226C23.9847 58.1724 24.1518 59.1503 24.4304 60.1443C25.298 63.2463 27.2519 65.5267 29.9342 66.721C29.6954 67.4825 29.5999 68.1478 29.5641 68.6167C29.5123 69.3101 29.5442 69.9914 29.6596 70.6527C28.5612 71.1216 27.5305 71.8069 26.5993 72.7006C25.0592 74.1755 24.1677 75.8588 23.7777 76.7164C23.153 77.9188 21.8198 81.0248 22.5003 84.5597C23.1331 87.8541 25.8312 93.4369 36.803 93.7856C37.5869 93.8096 38.359 93.8217 39.1032 93.8217C43.9901 93.8217 48.0015 93.2726 51.038 92.1865C53.4058 91.3328 54.8822 90.2627 55.8015 89.3089C58.0978 87.3491 59.7055 85.0847 60.5969 82.656C61.5202 82.6399 63.323 82.5077 65.1456 81.5258C65.4043 81.7382 65.6749 81.9306 65.9654 82.1109C66.622 82.5157 67.3384 82.8243 68.1701 83.0608C69.4476 83.4215 70.8603 83.6138 72.2571 83.6138C74.2549 83.6138 76.1452 83.2251 77.7211 82.4957C78.2106 82.2672 78.6683 81.9987 79.0981 81.7061C79.886 82.1831 80.7337 82.5558 81.6331 82.8083C82.628 83.0888 83.6865 83.2291 84.7769 83.2291C85.7679 83.2291 86.7508 83.1129 87.7974 82.8684C88.5098 82.7001 89.2381 82.4756 89.9703 82.1911C90.1056 82.2792 90.2409 82.3634 90.3802 82.4436C91.005 82.8043 91.6895 83.0928 92.4217 83.3052C92.955 83.4575 93.5002 83.5778 94.0335 83.6539C94.5906 83.7341 95.1676 83.7742 95.7447 83.7742C96.2183 83.7742 96.6918 83.7461 97.1375 83.698C97.5992 83.6459 98.025 83.5818 98.4468 83.4936C98.8846 83.4014 99.2825 83.3012 99.6566 83.189C99.8039 83.1449 99.9432 83.0968 100.086 83.0528C100.333 83.3934 100.588 83.7261 100.862 84.0507C101.447 84.7521 102.1 85.4173 102.781 86.0065C103.429 86.5796 104.126 87.1086 104.934 87.6417C105.662 88.1186 106.438 88.5594 107.262 88.9642C108.058 89.353 108.893 89.6936 109.741 89.9822C110.577 90.2668 111.444 90.5032 112.328 90.6836L112.785 90.7597C113.418 90.8399 114.071 90.88 114.723 90.88C115.034 90.88 115.348 90.8719 115.631 90.8559C116.558 90.8078 117.521 90.6836 118.484 90.4872C119.097 90.3629 119.714 90.2107 120.327 90.0303C120.928 89.854 121.532 89.6496 122.185 89.3931C122.806 89.1486 123.411 88.8841 123.968 88.6075C124.553 88.319 125.126 88.0024 125.675 87.6697C126.26 87.313 126.833 86.9283 127.367 86.5195C127.912 86.1067 128.437 85.6578 128.927 85.1969C129.464 84.6879 129.969 84.1348 130.455 83.5217C130.884 82.9726 131.271 82.4035 131.613 81.8264C131.915 81.3454 132.198 80.8485 132.452 80.3395C132.731 79.7944 132.99 79.2133 133.228 78.6081C133.69 77.4338 134.295 75.6384 134.219 73.6625C134.1 69.9874 131.72 67.0497 128.154 66.176L128.139 66.1519C127.689 66.0437 127.227 65.9676 126.762 65.9275C126.965 65.647 127.16 65.3584 127.339 65.0578C127.637 64.5568 127.892 64.0599 128.127 63.5349C128.373 62.9778 128.584 62.4047 128.751 61.8436C128.927 61.2464 129.058 60.6292 129.141 60.016C129.193 59.6353 129.221 59.2505 129.237 58.8698C129.794 59.0261 130.359 59.1503 130.924 59.2305C131.521 59.3147 132.126 59.3547 132.723 59.3547C133.181 59.3547 133.662 59.3307 134.156 59.2826C134.649 59.2345 135.151 59.1584 135.644 59.0542C136.122 58.954 136.559 58.8417 136.985 58.7135C137.467 58.5692 137.873 58.4289 138.263 58.2726C138.776 58.0682 139.238 57.8558 139.671 57.6194C140.145 57.3629 140.563 57.1024 140.945 56.8258C141.418 56.4892 141.86 56.1084 142.266 55.6996C142.672 55.2908 143.074 54.8059 143.416 54.3089L143.961 53.323C144.24 52.6818 144.443 52.0686 144.582 51.4434C144.761 50.6298 144.821 49.8162 144.761 49.0227L144.773 49.0307Z" fill="#16551C"/>
<path d="M30.3714 49.8683H30.3794C30.6699 49.5797 30.8609 49.243 30.9604 48.8583C31.0599 48.4736 31.0559 48.0407 30.9604 47.5638C30.8649 47.0869 30.7415 46.5659 30.5983 46.0088C30.455 45.4517 30.2839 44.8505 30.0929 44.2093C29.8979 43.568 29.7188 42.8907 29.5477 42.1773C29.3765 41.4639 29.2213 40.7145 29.0781 39.925C28.9348 39.1394 28.8751 38.3178 28.907 37.4602C28.9388 36.6025 29.0582 35.7128 29.2691 34.791C29.5596 35.0034 29.8063 35.2158 30.0053 35.4362C30.2043 35.6567 30.3635 35.8771 30.4749 36.1055C30.5863 36.334 30.7177 36.5704 30.8609 36.8229C31.0042 37.0754 31.1674 37.3359 31.3425 37.6125C31.438 37.8569 31.5414 38.0934 31.6449 38.3299C31.7484 38.5663 31.8598 38.7948 31.9712 39.0232C32.0827 39.2516 32.206 39.4681 32.3374 39.6725C32.4687 39.8769 32.612 40.0773 32.7672 40.2616C32.9184 40.45 33.0815 40.6183 33.2487 40.7666C33.4158 40.9149 33.5949 41.0471 33.782 41.1634C33.965 41.2756 34.156 41.3638 34.355 41.4199C34.554 41.476 34.757 41.504 34.9639 41.504C35.3022 41.504 35.6524 41.4239 36.0145 41.2595C36.3766 41.0952 36.7507 40.8548 37.1368 40.5301C37.3119 40.3859 37.483 40.1855 37.6422 39.929C37.8013 39.6725 37.9565 39.3639 38.0998 38.9992C38.2431 38.6344 38.3903 38.2657 38.5336 37.893C38.6769 37.5203 38.8241 37.1436 38.9674 36.7628C39.1106 36.3821 39.2539 36.0254 39.3972 35.6927C39.5404 35.3601 39.6757 35.0515 39.815 34.7669C39.9503 34.4824 40.0936 34.27 40.2448 34.1297C40.396 33.9894 40.5473 33.9173 40.7104 33.9173C40.8378 33.9173 40.9651 33.9694 41.0925 34.0696C41.2198 34.1698 41.3392 34.3221 41.4626 34.5265C41.582 34.7309 41.7093 34.9994 41.8446 35.336C41.9799 35.6727 42.1152 36.0775 42.2625 36.5464C42.4734 36.9993 42.6166 37.4562 42.7042 37.909C42.7917 38.3619 42.8116 38.8188 42.7719 39.2717C42.7321 39.7246 42.6604 40.1734 42.5609 40.6103C42.4614 41.0471 42.3301 41.476 42.167 41.9008C42.0038 42.3216 41.8327 42.7344 41.6536 43.1352C41.4745 43.536 41.2795 43.9287 41.0805 44.3095C40.8776 44.6902 40.6985 45.0589 40.5433 45.4156C40.3881 45.7723 40.2528 46.117 40.1374 46.4496C40.0259 46.7823 39.9543 47.0989 39.9264 47.3995C39.8986 47.7001 39.9105 47.9846 39.9702 48.2491C40.0259 48.5176 40.1612 48.7661 40.3761 48.9906C40.591 49.215 40.8815 49.4234 41.2516 49.6118C41.6218 49.8001 42.0834 49.9604 42.6405 50.0967C43.1977 50.233 43.8424 50.3492 44.5865 50.4374C45.3267 50.5255 46.1983 50.5897 47.1972 50.6257C48.196 50.6618 49.3223 50.6738 50.5798 50.6578C50.8067 50.6257 51.0295 50.5897 51.2563 50.5536C51.4832 50.5175 51.706 50.4774 51.9329 50.4374C52.1597 50.3973 52.3786 50.3492 52.5895 50.2931C52.8004 50.237 53.0113 50.1729 53.2103 50.0967C53.4133 50.0246 53.6043 49.9364 53.7834 49.8282C53.9625 49.72 54.1376 49.5997 54.2968 49.4635C54.4559 49.3272 54.6032 49.1669 54.7305 48.9825C54.8579 48.7982 54.9733 48.5938 55.0688 48.3694C55.228 47.9485 55.3513 47.5638 55.4349 47.2151C55.5185 46.8664 55.5662 46.5538 55.5742 46.2773C55.5822 46.0008 55.5623 45.7443 55.5185 45.5038C55.4747 45.2633 55.4031 45.0429 55.3076 44.8425C55.2121 44.6381 55.0966 44.4377 54.9613 44.2413C54.826 44.045 54.6788 43.8446 54.5077 43.6522C54.3365 43.4558 54.1654 43.2394 53.9863 43.0029C53.8073 42.7665 53.6282 42.502 53.4411 42.2174C53.2541 41.9329 53.071 41.6162 52.884 41.2636C52.697 40.9109 52.5139 40.5221 52.3269 40.1013C52.1398 39.6805 51.9687 39.1955 51.8135 38.6545C51.6583 38.1134 51.515 37.5083 51.3837 36.843C51.3041 36.6987 51.2165 36.4943 51.129 36.2338C51.0414 35.9733 50.9499 35.6567 50.8504 35.2839C50.7549 34.9112 50.6514 34.5064 50.544 34.0696C50.4365 33.6327 50.3211 33.1598 50.2017 32.6588C50.0824 32.1579 49.955 31.6369 49.8197 31.0958C49.6844 30.5548 49.5491 29.9977 49.4019 29.4246C49.2586 28.8474 49.1074 28.2823 48.9482 27.7213C48.789 27.1602 48.6298 26.6111 48.4587 26.066C48.2876 25.521 48.1125 24.996 47.9334 24.491C47.7543 23.986 47.5633 23.4971 47.3723 23.0241C47.1773 22.5552 46.9783 22.1344 46.7674 21.7577C46.5564 21.3809 46.3415 21.0603 46.1147 20.7838C45.279 20.3149 44.491 19.9622 43.7588 19.7257C43.0265 19.4893 42.346 19.373 41.7173 19.373C41.2516 19.373 40.8139 19.4332 40.412 19.5574C40.01 19.6816 39.6399 19.862 39.3016 20.1065C38.9634 20.3509 38.641 20.6355 38.3346 20.9641C38.0282 21.2928 37.7377 21.6655 37.4631 22.0783C37.1885 22.4911 36.9219 22.936 36.6592 23.4049C36.3965 23.8738 36.1419 24.3748 35.8911 24.8998C35.6404 25.4288 35.3817 25.9699 35.1111 26.5229C34.8405 27.076 34.562 27.6491 34.2714 28.2302C34.0764 27.9216 33.9133 27.609 33.778 27.2924C33.6427 26.9758 33.5312 26.6552 33.4516 26.3306C33.3721 26.0059 33.2925 25.6813 33.2169 25.3567C33.1412 25.032 33.0656 24.7074 32.994 24.3828C32.9224 24.0581 32.8388 23.7415 32.7473 23.4329C32.6557 23.1243 32.5523 22.8237 32.4408 22.5312C32.3294 22.2386 32.1822 21.9621 32.0071 21.7056C31.832 21.4491 31.621 21.2046 31.3783 20.9762C31.1992 20.8639 30.9604 20.7517 30.654 20.6435C30.3476 20.5353 29.9775 20.4271 29.5437 20.3189C29.1099 20.2147 28.6523 20.1345 28.1787 20.0824C27.7051 20.0303 27.2077 20.0023 26.6943 20.0023C26.1809 20.0023 25.6795 20.0423 25.198 20.1225C24.7164 20.2027 24.2469 20.3269 23.7972 20.4872C23.3475 20.6515 22.9614 20.876 22.6391 21.1685C22.3167 21.4611 22.0581 21.8178 21.8671 22.2386C21.4492 23.1644 21.103 24.1022 20.8324 25.0601C20.5618 26.018 20.3668 26.9918 20.2474 27.9778C20.128 28.9677 20.0126 29.9536 19.9051 30.9395C19.7977 31.9254 19.6942 32.9073 19.5987 33.8892C19.5032 34.8711 19.3758 35.845 19.2246 36.8069C19.0734 37.7688 18.8903 38.7266 18.6794 39.6765C18.4685 40.6263 18.1621 41.5521 17.7601 42.4539C17.3582 43.3556 16.8567 44.2413 16.2638 45.099C16.1364 45.3755 16.0171 45.6441 15.9136 45.9086C15.8101 46.1731 15.7146 46.4296 15.635 46.6821C15.5554 46.9346 15.5156 47.1911 15.5156 47.4556C15.5156 47.7201 15.5554 47.9886 15.635 48.2651C15.7942 48.6699 16.0011 49.0306 16.2558 49.3473C16.5105 49.6639 16.809 49.9364 17.1552 50.1608C17.5014 50.3893 17.8596 50.5736 18.2377 50.7219C18.6157 50.8702 19.0017 50.9744 19.4037 51.0385C21.0791 51.1508 22.5476 51.2109 23.8051 51.2149C25.0627 51.2189 26.1173 51.1668 26.9649 51.0626C27.8086 50.9584 28.517 50.8061 29.086 50.6057C29.6551 50.4053 30.0809 50.1608 30.3714 49.8683Z" fill="#FFCAD8"/>
<path d="M104.521 52.4819V52.4739C105.149 52.55 105.89 52.6021 106.737 52.6342C107.585 52.6663 108.544 52.6743 109.615 52.6582C109.806 52.6302 109.997 52.6021 110.188 52.5701C110.379 52.538 110.57 52.5059 110.765 52.4699C110.956 52.4338 111.143 52.3937 111.326 52.3456C111.509 52.2975 111.684 52.2414 111.855 52.1813C112.026 52.1212 112.189 52.0451 112.345 51.9529C112.5 51.8647 112.643 51.7605 112.782 51.6443C112.918 51.528 113.041 51.3918 113.152 51.2355C113.264 51.0792 113.359 50.9068 113.439 50.7145C113.574 50.3578 113.682 50.0291 113.753 49.7326C113.825 49.436 113.865 49.1715 113.873 48.935C113.881 48.7026 113.865 48.4821 113.825 48.2777C113.789 48.0733 113.729 47.885 113.646 47.7126C113.562 47.5403 113.467 47.368 113.351 47.1996C113.24 47.0313 113.109 46.863 112.965 46.6987C112.822 46.5344 112.675 46.35 112.524 46.1456C112.372 45.9412 112.217 45.7208 112.062 45.4803C111.903 45.2398 111.748 44.9673 111.588 44.6707C111.429 44.3701 111.274 44.0415 111.115 43.6808C110.956 43.3241 110.812 42.9113 110.677 42.4504C110.542 41.9895 110.422 41.4765 110.311 40.9074C110.243 40.7832 110.172 40.6108 110.096 40.3904C110.02 40.17 109.941 39.9015 109.861 39.5849C109.778 39.2682 109.69 38.9236 109.599 38.5508C109.507 38.1781 109.408 37.7773 109.304 37.3525C109.201 36.9237 109.093 36.4828 108.982 36.0219C108.87 35.561 108.751 35.0881 108.628 34.5992C108.504 34.1102 108.377 33.6253 108.242 33.1524C108.106 32.6754 107.971 32.2065 107.824 31.7456C107.68 31.2847 107.529 30.8359 107.378 30.407C107.223 29.9742 107.064 29.5614 106.9 29.1606C106.737 28.7598 106.566 28.4031 106.387 28.0865C106.208 27.7699 106.025 27.4934 105.834 27.2569C105.122 26.8561 104.453 26.5556 103.832 26.3592C103.207 26.1588 102.63 26.0586 102.097 26.0586C101.699 26.0586 101.329 26.1107 100.987 26.2149C100.645 26.3191 100.33 26.4754 100.044 26.6798C99.7571 26.8882 99.4825 27.1287 99.2238 27.4092C98.9652 27.6898 98.7184 28.0024 98.4836 28.3551C98.2488 28.7077 98.022 29.0845 97.7992 29.4812C97.5763 29.882 97.3614 30.3068 97.1465 30.7517C96.9356 31.2006 96.7127 31.6615 96.4859 32.1344C96.2591 32.6073 96.0203 33.0922 95.7735 33.5892C95.6104 33.3287 95.4671 33.0602 95.3517 32.7917C95.2363 32.5231 95.1448 32.2506 95.0731 31.9741C95.0055 31.6975 94.9378 31.421 94.8742 31.1485C94.8105 30.8759 94.7468 30.5954 94.6831 30.3229C94.6234 30.0463 94.5518 29.7778 94.4722 29.5173C94.3926 29.2568 94.3051 29.0003 94.2096 28.7518C94.1141 28.5033 93.9907 28.2709 93.8395 28.0505C93.6882 27.83 93.5092 27.6216 93.3062 27.4293C93.155 27.3331 92.948 27.2369 92.6894 27.1447C92.4307 27.0525 92.1163 26.9603 91.7462 26.8722C91.3761 26.784 90.9901 26.7159 90.5842 26.6718C90.1782 26.6277 89.7604 26.6037 89.3226 26.6037C88.8849 26.6037 88.4591 26.6397 88.0492 26.7079C87.6393 26.776 87.2413 26.8802 86.8593 27.0165C86.4772 27.1527 86.1469 27.3491 85.8723 27.5976C85.5977 27.8461 85.3789 28.1507 85.2157 28.5073C84.8575 29.2929 84.567 30.0944 84.3362 30.908C84.1054 31.7216 83.9422 32.5472 83.8388 33.3888C83.7353 34.2305 83.6398 35.0681 83.5443 35.9057C83.4527 36.7433 83.3652 37.581 83.2816 38.4146C83.1224 40.0498 82.7006 41.6168 82.3265 43.1798C81.9524 44.7429 81.6301 46.3059 81.6579 47.9331C81.6619 48.1735 81.6738 48.414 81.6937 48.6585C81.7136 48.903 81.7455 49.1474 81.7813 49.3919C81.8211 49.6404 81.8689 49.8849 81.9325 50.1293C81.9962 50.3738 82.0798 50.6063 82.1912 50.8307C82.8558 52.1613 84.0775 52.7865 85.4385 53.039C86.7996 53.2915 88.3078 53.1752 89.5375 53.0189C90.2578 52.9308 90.8587 52.7985 91.3403 52.6302C91.8218 52.4619 92.1879 52.2535 92.4347 52.005C92.6814 51.7565 92.8446 51.4679 92.9281 51.1433C93.0117 50.8147 93.0117 50.45 92.9281 50.0412C92.8446 49.6364 92.7451 49.1915 92.6217 48.7186C92.4983 48.2417 92.3551 47.7327 92.1919 47.1876C92.0287 46.6426 91.8735 46.0654 91.7303 45.4603C91.587 44.8551 91.4517 44.2138 91.3283 43.5486C91.205 42.8793 91.1572 42.1819 91.1851 41.4525C91.2129 40.7231 91.3164 39.9696 91.4915 39.1841C91.7382 39.3644 91.9452 39.5448 92.1163 39.7331C92.2874 39.9175 92.4227 40.1099 92.5182 40.3022C92.6138 40.4946 92.7252 40.699 92.8485 40.9114C92.9719 41.1238 93.1072 41.3483 93.2584 41.5847C93.342 41.7931 93.4256 41.9935 93.5171 42.1939C93.6047 42.3943 93.7002 42.5907 93.7957 42.7831C93.8912 42.9754 93.9947 43.1598 94.1101 43.3361C94.2215 43.5125 94.3449 43.6808 94.4762 43.8371C94.6075 43.9974 94.7428 44.1377 94.8861 44.2659C95.0294 44.3942 95.1806 44.5064 95.3398 44.6026C95.499 44.6988 95.6581 44.7709 95.8293 44.819C96.0004 44.8671 96.1715 44.8912 96.3466 44.8912C96.6331 44.8912 96.9316 44.823 97.242 44.6828C97.5524 44.5425 97.8668 44.3381 98.1971 44.0615C98.3483 43.9373 98.4916 43.765 98.6269 43.5486C98.7622 43.3321 98.8935 43.0676 99.0169 42.759C99.1403 42.4504 99.2636 42.1338 99.387 41.8172C99.5104 41.5006 99.6338 41.18 99.7571 40.8553C99.8805 40.5307 99.9999 40.2261 100.123 39.9456C100.243 39.661 100.362 39.4005 100.477 39.16C100.593 38.9196 100.716 38.7392 100.844 38.619C100.971 38.4987 101.102 38.4386 101.238 38.4386C101.349 38.4386 101.456 38.4827 101.56 38.5669C101.667 38.655 101.771 38.7833 101.874 38.9556C101.978 39.128 102.085 39.3564 102.197 39.645C102.308 39.9295 102.427 40.2742 102.551 40.675C102.73 41.0597 102.853 41.4485 102.925 41.8332C102.997 42.218 103.016 42.6067 102.981 42.9915C102.945 43.3762 102.885 43.757 102.802 44.1297C102.714 44.5024 102.607 44.8671 102.467 45.2238C102.332 45.5845 102.185 45.9332 102.029 46.2738C101.874 46.6145 101.711 46.9471 101.54 47.2718C101.369 47.5964 101.218 47.909 101.082 48.2136C100.947 48.5182 100.836 48.8108 100.74 49.0913C100.645 49.3759 100.585 49.6444 100.561 49.8969C100.537 50.1494 100.549 50.3938 100.597 50.6223C100.645 50.8507 100.76 51.0591 100.939 51.2515C101.118 51.4439 101.369 51.6202 101.683 51.7805C101.998 51.9408 102.392 52.0771 102.865 52.1933C103.339 52.3096 103.888 52.4057 104.521 52.4819Z" fill="#FFCAD8"/>
<path d="M79.9559 50.6541L79.9479 50.6461C80.1151 50.4777 80.2663 50.2934 80.3976 50.101C80.513 49.8365 80.6006 49.584 80.6523 49.3475C80.7041 49.1111 80.724 48.8907 80.708 48.6822C80.6921 48.4738 80.6643 48.2654 80.6205 48.057C80.5767 47.8486 80.517 47.6322 80.4454 47.4198C80.3698 47.2074 80.2902 46.9749 80.2026 46.7345C80.1151 46.494 80.0196 46.2295 79.9161 45.957C79.8126 45.6844 79.7211 45.3838 79.6335 45.0592C79.546 44.7346 79.4744 44.3819 79.4067 44.0052C79.3391 43.6284 79.2913 43.2116 79.2634 42.7587C79.2356 42.3059 79.2236 41.8089 79.2316 41.2799C79.2396 40.7468 79.2794 40.1577 79.347 39.5165C79.4147 38.8752 79.5181 38.1738 79.6495 37.4204C79.6773 37.0076 79.7052 36.6108 79.733 36.2301C79.7609 35.8493 79.7808 35.4846 79.8047 35.1359C79.8285 34.7873 79.8166 34.4306 79.7768 34.0659C79.737 33.7012 79.6654 33.3244 79.5619 32.9397C79.4863 32.5108 79.3629 32.09 79.1878 31.6772C79.0127 31.2644 78.7859 30.8556 78.5073 30.4589C78.2288 30.0581 77.9104 29.6813 77.5602 29.3287C77.21 28.976 76.82 28.6393 76.3942 28.3307C75.9683 28.0221 75.5107 27.7416 75.0172 27.4931C74.5238 27.2446 73.9984 27.0282 73.4413 26.8438C72.6016 26.5633 71.7301 26.391 70.8506 26.2908C69.9711 26.1906 69.0797 26.1705 68.2002 26.1906C67.4003 26.2106 66.5685 26.1786 65.4781 26.2707C64.3877 26.3629 63.0426 26.5753 61.216 27.0883C59.461 27.5813 58.096 28.3588 57.1926 29.3086C56.2893 30.2585 55.8435 31.3887 55.9231 32.583C55.9391 32.8114 55.951 33.0759 55.9987 33.3244C56.0465 33.5769 56.1261 33.8174 56.2773 33.9977C56.4285 34.1821 56.6235 34.3584 56.8345 34.5147C57.0454 34.667 57.2722 34.7993 57.4911 34.8915C57.7697 35.0077 58.0681 35.0758 58.3666 35.1199C58.6651 35.164 58.9715 35.18 59.2779 35.1961C59.4411 35.2041 59.6082 35.2121 59.7714 35.2121C59.9346 35.2121 60.1017 35.2041 60.2609 35.18C60.432 35.156 60.5992 35.1159 60.7663 35.0638C60.9334 35.0157 61.0966 34.9556 61.2598 34.8995C61.5622 34.7913 61.8726 34.6911 62.1751 34.5789C62.4775 34.4626 62.772 34.3304 63.0506 34.1661C63.3132 34.0098 63.5281 33.8014 63.751 33.597C63.9739 33.3926 64.1967 33.1801 64.4713 33.0198C64.726 32.8675 64.9847 32.7193 65.2473 32.583C65.51 32.4507 65.7846 32.3305 66.0671 32.2423C66.3775 32.1461 66.6959 32.09 67.0143 32.054C67.3366 32.0219 67.659 32.0139 67.9853 32.0139C68.2519 32.0139 68.5225 32.0259 68.7892 32.062C69.0558 32.098 69.3145 32.1582 69.5612 32.2624C70.0149 32.4587 70.3929 32.8034 70.6516 33.2282C70.9103 33.6531 71.0535 34.15 71.0416 34.647C71.0297 35.0638 70.9143 35.4726 70.7232 35.8373C70.5322 36.206 70.2616 36.5307 69.9353 36.7871C69.5532 37.0877 69.0518 37.2641 68.5305 37.3843C68.0092 37.5045 67.4679 37.5607 67.0023 37.6368C65.7289 37.8372 64.4474 37.9454 63.1819 38.1698C61.9164 38.3943 60.6628 38.7269 59.4491 39.3802C59.1227 39.5565 58.7964 39.7489 58.4979 39.9653C58.1955 40.1817 57.9169 40.4302 57.6742 40.7108C56.8703 41.6526 56.4843 43.0954 56.4086 44.5823C56.333 46.0692 56.5678 47.5921 57.0135 48.6903C57.2046 49.1632 57.4593 49.596 57.7736 49.9808C58.088 50.3695 58.4661 50.7142 58.9078 51.0188C59.3496 51.3234 59.8351 51.5478 60.3723 51.7001C60.9096 51.8524 61.4906 51.9286 62.1233 51.9286C62.7561 51.9286 63.357 51.8524 64.0216 51.6961C64.6862 51.5398 65.3826 51.3073 66.1069 50.9987C66.8312 50.6901 67.5913 50.2693 68.3793 49.7443C69.1672 49.2193 69.991 48.5861 70.8426 47.8486C70.6795 48.2614 70.572 48.6462 70.5163 49.0029C70.4606 49.3596 70.4606 49.6842 70.5123 49.9768C70.5641 50.2733 70.6516 50.5419 70.771 50.7863C70.8904 51.0308 71.0496 51.2472 71.2406 51.4396C71.4316 51.632 71.6505 51.7963 71.8972 51.9366C72.144 52.0768 72.4186 52.1931 72.717 52.2812C73.0195 52.3694 73.3299 52.4375 73.6482 52.4816C73.9666 52.5257 74.2969 52.5498 74.6352 52.5498C74.9137 52.5498 75.1963 52.5337 75.4789 52.5057C75.7614 52.4776 76.0479 52.4335 76.3345 52.3734C76.621 52.3133 76.8996 52.2452 77.1781 52.161C77.4567 52.0768 77.7233 51.9887 77.986 51.8845C78.2486 51.7803 78.4994 51.668 78.7342 51.5398C78.969 51.4116 79.1878 51.2793 79.3948 51.131C79.6017 50.9827 79.7888 50.8224 79.9559 50.6541ZM67.854 43.6485C67.5117 43.9611 67.0103 44.2256 66.7436 44.3578C66.5049 44.4781 66.2144 44.5542 65.9199 44.6063C65.6254 44.6624 65.3229 44.6945 65.0603 44.7306C64.9409 44.7466 64.8056 44.7747 64.6743 44.7787C64.5429 44.7827 64.4156 44.7707 64.3081 44.7065C64.3081 44.7065 64.2962 44.6985 64.2922 44.6985C64.2882 44.6985 64.2843 44.6905 64.2763 44.6905C64.1131 44.5743 63.9778 44.3057 63.8903 44.0212C63.8027 43.7326 63.7669 43.428 63.8107 43.2437C63.8704 43.0032 64.0216 42.8068 64.2166 42.6545C64.4116 42.5022 64.6504 42.39 64.8852 42.3099C65.2911 42.1776 65.7169 42.1095 66.1427 42.1095C66.5685 42.1095 66.9944 42.1736 67.4003 42.3059C67.5117 42.3419 67.6231 42.386 67.7266 42.4381C67.8301 42.4902 67.9296 42.5543 68.0171 42.6345C68.3832 42.9672 68.2002 43.3319 67.854 43.6485Z" fill="#FFCAD8"/>
<path d="M138.732 48.8658L138.724 48.8578C138.68 48.6454 138.62 48.433 138.549 48.2206C138.473 48.0082 138.393 47.7757 138.306 47.5352C138.218 47.2948 138.123 47.0303 138.019 46.7577C137.916 46.4852 137.824 46.1846 137.737 45.86C137.649 45.5354 137.578 45.1827 137.51 44.8059C137.442 44.4292 137.395 44.0124 137.367 43.5595C137.339 43.1066 137.327 42.6097 137.335 42.0807C137.343 41.5476 137.383 40.9585 137.45 40.3172C137.518 39.676 137.621 38.9746 137.753 38.2212C137.781 37.8084 137.808 37.4116 137.836 37.0308C137.864 36.6501 137.884 36.2854 137.908 35.9367C137.932 35.588 137.92 35.2314 137.88 34.8666C137.84 34.5019 137.769 34.1252 137.665 33.7405C137.59 33.3116 137.466 32.8908 137.291 32.478C137.116 32.0652 136.889 31.6564 136.611 31.2596C136.332 30.8589 136.014 30.4821 135.663 30.1294C135.313 29.7768 134.923 29.4401 134.497 29.1315C134.072 28.8229 133.614 28.5424 133.12 28.2939C132.627 28.0454 132.102 27.829 131.545 27.6446C130.705 27.3641 129.833 27.1917 128.954 27.0916C128.074 26.9914 127.183 26.9713 126.303 26.9914C125.504 27.0114 124.672 26.9793 123.581 27.0715C122.491 27.1637 121.146 27.3761 119.319 27.8891C117.564 28.3821 116.199 29.1596 115.296 30.1094C114.393 31.0593 113.947 32.1895 114.026 33.3838C114.042 33.6122 114.054 33.8767 114.102 34.1252C114.15 34.3777 114.229 34.6182 114.381 34.7985C114.532 34.9829 114.727 35.1592 114.938 35.3155C115.149 35.4678 115.375 35.6001 115.594 35.6923C115.873 35.8085 116.171 35.8766 116.47 35.9207C116.768 35.9648 117.075 35.9808 117.381 35.9968C117.544 36.0049 117.712 36.0129 117.875 36.0129C118.038 36.0129 118.205 36.0049 118.364 35.9808C118.535 35.9568 118.702 35.9167 118.87 35.8646C119.037 35.8165 119.2 35.7564 119.363 35.7003C119.665 35.5921 119.976 35.4919 120.278 35.3796C120.581 35.2634 120.875 35.1312 121.154 34.9668C121.417 34.8105 121.631 34.6021 121.854 34.3977C122.077 34.1933 122.3 33.9809 122.575 33.8206C122.829 33.6683 123.088 33.52 123.351 33.3838C123.613 33.2515 123.888 33.1313 124.17 33.0431C124.481 32.9469 124.799 32.8908 125.118 32.8547C125.44 32.8227 125.762 32.8147 126.089 32.8147C126.355 32.8147 126.626 32.8267 126.892 32.8628C127.159 32.8988 127.418 32.9589 127.664 33.0631C128.118 33.2595 128.496 33.6042 128.755 34.029C129.014 34.4538 129.157 34.9508 129.145 35.4478C129.133 35.8646 129.018 36.2734 128.827 36.6381C128.635 37.0068 128.365 37.3314 128.039 37.5879C127.657 37.8885 127.155 38.0649 126.634 38.1851C126.112 38.3053 125.571 38.3614 125.106 38.4376C123.832 38.638 122.551 38.7462 121.285 38.9706C120.02 39.1951 118.766 39.5277 117.552 40.181C117.226 40.3573 116.9 40.5497 116.601 40.7661C116.299 40.9825 116.02 41.231 115.777 41.5116C114.974 42.4534 114.588 43.8962 114.512 45.3831C114.436 46.87 114.671 48.3929 115.117 49.491C115.308 49.964 115.563 50.3968 115.877 50.7816C116.191 51.1703 116.569 51.515 117.011 51.8196C117.453 52.1242 117.938 52.3486 118.476 52.5009C119.013 52.6532 119.594 52.7293 120.227 52.7293C120.859 52.7293 121.46 52.6532 122.125 52.4969C122.789 52.3406 123.486 52.1081 124.21 51.7995C124.934 51.4909 125.695 51.0701 126.483 50.5451C127.27 50.0201 128.094 49.3868 128.946 48.6494C128.783 49.0622 128.675 49.447 128.62 49.8037C128.564 50.1603 128.564 50.485 128.616 50.7775C128.667 51.0741 128.755 51.3426 128.874 51.5871C128.994 51.8316 129.153 52.048 129.344 52.2404C129.535 52.4328 129.754 52.5971 130 52.7373C130.247 52.8776 130.522 52.9938 130.82 53.082C131.123 53.1702 131.433 53.2383 131.752 53.2824C132.07 53.3265 132.4 53.3505 132.738 53.3505C133.017 53.3505 133.3 53.3345 133.582 53.3065C133.865 53.2784 134.151 53.2343 134.438 53.1742C134.724 53.1141 135.003 53.0459 135.281 52.9618C135.56 52.8776 135.827 52.7895 136.089 52.6853C136.352 52.581 136.603 52.4688 136.837 52.3406C137.072 52.2123 137.291 52.0801 137.498 51.9318C137.705 51.7835 137.892 51.6232 138.059 51.4549C138.226 51.2865 138.378 51.1022 138.509 50.9098C138.624 50.6453 138.712 50.3928 138.764 50.1563C138.815 49.9199 138.835 49.6995 138.819 49.491C138.803 49.2826 138.775 49.0742 138.732 48.8658ZM125.957 44.4493C125.615 44.7619 125.114 45.0264 124.847 45.1586C124.608 45.2789 124.318 45.355 124.023 45.4071C123.729 45.4632 123.426 45.4953 123.164 45.5314C123.044 45.5474 122.909 45.5754 122.778 45.5794C122.646 45.5835 122.519 45.5714 122.411 45.5073C122.407 45.5073 122.399 45.4993 122.395 45.4993C122.392 45.4993 122.388 45.4913 122.38 45.4913C122.216 45.375 122.081 45.1065 121.994 44.822C121.906 44.5334 121.87 44.2288 121.914 44.0445C121.974 43.804 122.125 43.6076 122.32 43.4553C122.515 43.303 122.754 43.1908 122.988 43.1107C123.394 42.9784 123.82 42.9103 124.246 42.9103C124.672 42.9103 125.098 42.9744 125.504 43.1066C125.615 43.1427 125.726 43.1868 125.83 43.2389C125.933 43.291 126.033 43.3551 126.12 43.4353C126.487 43.7679 126.303 44.1326 125.957 44.4493Z" fill="#FFCAD8"/>
<path d="M100.85 73.2779C100.786 73.0935 100.715 72.8931 100.635 72.6807C100.56 72.4683 100.476 72.2399 100.384 71.9994C100.293 71.7589 100.213 71.4984 100.138 71.2099C100.062 70.9253 99.9984 70.6167 99.9387 70.2841C99.879 69.9514 99.8392 69.5867 99.8113 69.1899C99.7835 68.7932 99.7755 68.3563 99.7835 67.8914C99.7914 67.4225 99.8233 66.9095 99.887 66.3444C99.9467 65.7793 100.038 65.1661 100.154 64.5048C100.177 64.1401 100.205 63.7915 100.225 63.4588C100.249 63.1262 100.269 62.8055 100.289 62.5009C100.309 62.1964 100.301 61.8838 100.265 61.5631C100.229 61.2425 100.166 60.9139 100.078 60.5772C100.014 60.2005 99.9029 59.8318 99.7477 59.4671C99.5925 59.1024 99.3935 58.7457 99.1507 58.397C98.904 58.0483 98.6294 57.7157 98.319 57.403C98.0086 57.0904 97.6703 56.7979 97.2962 56.5253C96.9222 56.2528 96.5202 56.0083 96.0865 55.7919C95.6567 55.5755 95.195 55.3831 94.7055 55.2228C93.9693 54.9783 93.2052 54.826 92.4332 54.7379C91.6611 54.6497 90.8811 54.6297 90.1091 54.6497C89.4087 54.6697 88.6764 54.6417 87.7213 54.7218C86.7662 54.802 85.5843 54.9904 83.9845 55.4392C82.4444 55.8721 81.2466 56.5534 80.4546 57.387C79.6627 58.2206 79.2687 59.2106 79.3403 60.2606C79.3523 60.461 79.3642 60.6934 79.408 60.9139C79.4478 61.1343 79.5194 61.3467 79.6507 61.507C79.7821 61.6673 79.9532 61.8236 80.1402 61.9599C80.3273 62.0962 80.5262 62.2084 80.7173 62.2885C80.964 62.3927 81.2227 62.4529 81.4853 62.4889C81.748 62.525 82.0186 62.541 82.2852 62.5531C82.4285 62.5611 82.5757 62.5651 82.719 62.5651C82.8623 62.5651 83.0055 62.5571 83.1488 62.537C83.3 62.517 83.4473 62.4809 83.5905 62.4368C83.7378 62.3927 83.881 62.3446 84.0243 62.2925C84.2909 62.2004 84.5616 62.1122 84.8282 62.008C85.0948 61.9038 85.3535 61.7916 85.5962 61.6433C85.8231 61.507 86.0181 61.3267 86.2091 61.1423C86.4041 60.962 86.5991 60.7776 86.8379 60.6333C87.0607 60.5011 87.2876 60.3688 87.5184 60.2526C87.7492 60.1364 87.988 60.0322 88.2347 59.956C88.5053 59.8718 88.7839 59.8197 89.0665 59.7917C89.349 59.7636 89.6355 59.7556 89.9181 59.7556C90.1529 59.7556 90.3917 59.7636 90.6225 59.7957C90.8573 59.8278 91.0841 59.8799 91.299 59.972C91.697 60.1444 92.0273 60.449 92.2581 60.8177C92.4849 61.1904 92.6123 61.6273 92.6003 62.0641C92.5924 62.4288 92.4889 62.7855 92.3218 63.1101C92.1546 63.4348 91.9158 63.7193 91.6333 63.9438C91.299 64.2083 90.8613 64.3646 90.4036 64.4648C89.9459 64.569 89.4724 64.6211 89.0625 64.6852C87.9442 64.8615 86.822 64.9577 85.7117 65.1541C84.6014 65.3505 83.503 65.6431 82.4364 66.2162C82.1499 66.3725 81.8634 66.5368 81.6007 66.7292C81.3341 66.9215 81.0914 67.1339 80.8765 67.3864C80.1721 68.212 79.8298 69.4785 79.7661 70.781C79.6985 72.0836 79.9054 73.4182 80.2954 74.384C80.4626 74.8008 80.6854 75.1776 80.96 75.5182C81.2386 75.8589 81.5689 76.1635 81.9549 76.428C82.3409 76.6925 82.7707 76.8929 83.2403 77.0252C83.7099 77.1574 84.2233 77.2255 84.7765 77.2255C85.3296 77.2255 85.8589 77.1574 86.4439 77.0211C87.0249 76.8849 87.6378 76.6805 88.2745 76.408C88.9113 76.1354 89.5758 75.7707 90.2683 75.3098C90.9607 74.8489 91.681 74.2959 92.4292 73.6466C92.2859 74.0113 92.1904 74.348 92.1427 74.6606C92.0949 74.9732 92.0909 75.2577 92.1387 75.5182C92.1825 75.7787 92.2581 76.0152 92.3655 76.2276C92.473 76.44 92.6083 76.6324 92.7754 76.8007C92.9426 76.969 93.1336 77.1133 93.3485 77.2376C93.5634 77.3618 93.8061 77.462 94.0688 77.5381C94.3315 77.6143 94.606 77.6744 94.8846 77.7145C95.1632 77.7546 95.4537 77.7746 95.7482 77.7746C95.9909 77.7746 96.2377 77.7626 96.4884 77.7345C96.7391 77.7065 96.9858 77.6704 97.2366 77.6183C97.4873 77.5662 97.734 77.5061 97.9768 77.4339C98.2195 77.3618 98.4543 77.2817 98.6851 77.1895C98.9159 77.0973 99.1348 76.9971 99.3418 76.8889C99.5487 76.7807 99.7397 76.6604 99.9228 76.5282C100.102 76.3999 100.269 76.2597 100.416 76.1114C100.563 75.9631 100.695 75.8028 100.814 75.6345C100.918 75.402 100.989 75.1816 101.037 74.9732C101.081 74.7648 101.097 74.5724 101.085 74.388C101.073 74.2077 101.045 74.0233 101.009 73.839C100.969 73.6546 100.918 73.4662 100.854 73.2779H100.85ZM89.7987 69.9795V69.9715C89.5002 70.248 89.0625 70.4804 88.8277 70.6007C88.6168 70.7049 88.3621 70.773 88.1034 70.8211C87.8447 70.8692 87.5781 70.8973 87.3512 70.9293C87.2438 70.9413 87.1284 70.9654 87.013 70.9734C86.8976 70.9774 86.7861 70.9694 86.6906 70.9093C86.6867 70.9093 86.6827 70.9053 86.6787 70.9013C86.6747 70.9013 86.6707 70.8973 86.6668 70.8932C86.5235 70.7931 86.4041 70.5566 86.3245 70.3041C86.2449 70.0516 86.2171 69.7831 86.2569 69.6228C86.3086 69.4104 86.4399 69.238 86.611 69.1058C86.7822 68.9695 86.9891 68.8733 87.196 68.8052C87.5502 68.689 87.9243 68.6289 88.2984 68.6289C88.6725 68.6289 89.0466 68.685 89.4007 68.8012C89.5002 68.8332 89.5957 68.8693 89.6873 68.9174C89.7788 68.9655 89.8664 69.0176 89.942 69.0897C90.2643 69.3823 90.1011 69.7029 89.7987 69.9795Z" fill="#FFCAD8"/>
<path d="M50.0627 68.5492L50.0468 68.5411C51.8774 67.5392 52.5301 65.6355 52.7291 63.9803C52.9241 62.3291 52.6654 60.9264 52.6654 60.9264C51.3561 55.3155 47.6949 52.9108 44.0337 51.9088C40.3724 50.9069 36.7072 51.3077 35.4019 51.3077C34.0966 51.3077 32.3933 51.7085 31.2154 52.8106C30.0374 53.9127 29.3848 55.7162 30.1688 58.5217C30.9527 61.3271 33.3087 61.8281 35.4656 61.6277C37.6225 61.4273 39.5845 60.5256 39.5884 60.5256C40.1814 60.2531 41.4748 59.4515 42.7443 58.9826C44.0138 58.5137 45.2594 58.3814 45.7528 59.4515C46.0075 60.0046 45.916 60.6538 45.6693 61.2831C45.4225 61.9123 45.0166 62.5174 44.6386 62.9823C44.1331 63.6036 43.5004 64.1687 42.7801 64.6536C42.0598 65.1385 41.2479 65.5433 40.3804 65.8559C39.5009 66.1725 38.3229 66.401 37.3479 66.8378C36.3729 67.2747 35.5929 67.9239 35.5094 69.0862C35.4895 69.3347 35.5094 69.5912 35.585 69.8276C35.6606 70.0641 35.776 70.2845 35.9511 70.4609C36.0506 70.5571 36.162 70.6372 36.2814 70.7053C36.4008 70.7735 36.5281 70.8256 36.6595 70.8737C37.3002 71.1061 37.9648 71.1662 38.6333 71.1783C39.3019 71.1903 39.9785 71.1582 40.643 71.2063C41.3355 71.2544 42.024 71.3586 42.7005 71.5029C43.377 71.6472 44.0496 71.8315 44.7142 72.0439C45.4424 72.2764 46.103 72.4648 46.6482 72.7533C47.1935 73.0419 47.6232 73.4266 47.8859 74.0518C48.2839 74.9937 48.2162 76.1078 47.7824 77.1298C47.3487 78.1518 46.5488 79.0816 45.4902 79.6547C45.2355 79.791 44.9649 79.9072 44.6784 79.9954C44.3918 80.0836 44.0934 80.1437 43.7829 80.1717C41.427 80.3721 40.3804 80.0715 39.4014 79.4183C38.4224 78.765 37.5031 77.7671 35.4139 76.5647C33.3246 75.3624 31.7526 76.0638 30.706 77.0657C29.6594 78.0676 29.138 79.3702 29.138 79.3702C29.138 79.3702 27.9601 81.3741 28.3541 83.426C28.748 85.478 30.71 87.5861 36.9858 87.7865C43.2656 87.9869 46.9268 87.2855 49.0201 86.5361C51.1133 85.7826 51.6347 84.9811 51.6347 84.9811C56.3425 81.1737 55.9525 77.0657 54.3806 73.9116C52.8126 70.7534 50.0627 68.5492 50.0627 68.5492Z" fill="#FFCAD8"/>
<path d="M75.7588 55.5785L75.7668 55.5625C74.0317 54.6087 71.6598 54.3121 70.0998 54.5125C69.487 54.5926 68.9378 54.805 68.5558 55.1657C68.1697 55.5264 67.9509 56.0314 67.9946 56.6967C68.0384 57.366 68.3528 57.9031 68.6473 58.4441C68.9418 58.9852 69.2164 59.5302 69.1766 60.2115C69.1686 60.3318 69.1646 60.5562 69.1328 60.7646C69.101 60.973 69.0373 61.1694 68.9179 61.2375C68.8065 61.2976 68.6035 61.2736 68.3966 61.2255C68.1896 61.1814 67.9787 61.1173 67.8593 61.1013C67.4773 61.0532 67.0833 61.0211 66.6893 61.0251C66.2993 61.0291 65.9053 61.0732 65.5313 61.1814C65.189 61.2816 64.8189 61.3978 64.5244 61.3658C64.2299 61.3337 64.0111 61.1494 63.9713 60.6484C63.9354 60.1795 64.0031 59.6705 64.1066 59.1695C64.21 58.6645 64.3533 58.1676 64.4608 57.7227C64.8587 56.1196 64.3613 55.318 63.2191 54.9173C62.077 54.5165 60.2822 54.5165 58.0934 54.5165C55.9046 54.5165 55.2082 55.5184 55.1087 56.869C55.0092 58.2197 55.5067 59.923 55.7057 61.3257C55.8449 62.2996 55.7813 63.2775 55.6937 64.2554C55.6022 65.2333 55.4828 66.2112 55.5027 67.1851C55.5266 68.3674 55.5544 69.5497 55.5783 70.732C55.6022 71.9143 55.63 73.0966 55.6539 74.2789C55.6619 74.5834 55.6698 74.8961 55.7136 75.1966C55.7574 75.4972 55.837 75.7898 55.9882 76.0543C56.2071 76.4431 56.4737 76.6114 56.7762 76.6755C57.0786 76.7396 57.4169 76.6955 57.779 76.6555C58.5312 76.5753 59.3908 76.6555 60.2305 76.6555C61.0701 76.6555 61.882 76.5513 62.5346 76.1024C63.6131 75.3569 63.82 74.5434 63.7007 73.6737C63.5813 72.804 63.1395 71.8822 62.9246 70.9283C62.8848 70.756 62.8649 70.5837 62.857 70.4073C62.845 70.231 62.845 70.0587 62.845 69.8823V68.3273C62.845 68.159 62.845 67.9906 62.853 67.8263C62.861 67.658 62.8848 67.4937 62.9246 67.3334C63.1037 66.62 63.5892 66.2833 64.1782 66.119C64.7672 65.9547 65.4636 65.9587 66.0606 65.9186C66.2476 65.9066 66.9082 65.8385 67.525 65.8585C68.1419 65.8825 68.711 65.9948 68.7229 66.3434C68.7627 67.9145 68.711 69.4815 68.6513 71.0526C68.5876 72.6236 68.516 74.1947 68.508 75.7697C68.508 75.882 68.508 75.9982 68.516 76.1144C68.5279 76.2266 68.5478 76.3389 68.5876 76.4471C68.6791 76.6835 68.8542 76.8559 69.0691 76.9881C69.284 77.1204 69.5347 77.2125 69.7735 77.2807C71.4489 77.7536 73.6894 77.7496 75.2176 77.0402C76.7458 76.3308 77.5656 74.9121 76.3995 72.5635C75.8026 71.3612 75.6036 69.5577 75.8026 67.4536C76.0016 65.3495 76.5985 62.9448 77.5934 60.5402C78.5883 58.1355 77.4939 56.5324 75.7588 55.5785Z" fill="#FFCAD8"/>
<path d="M126.753 72.0318V72.0117C126.144 71.8634 125.451 71.9035 124.807 72.0919C124.162 72.2802 123.565 72.6249 123.143 73.0898C122.737 73.5347 122.379 74.0276 121.993 74.4925C121.607 74.9574 121.201 75.4023 120.696 75.747C120.007 76.2239 119.215 76.4724 118.384 76.6006C117.556 76.7289 116.688 76.7369 115.853 76.7409C115.164 76.7409 114.44 76.7289 113.759 76.5966C113.083 76.4644 112.45 76.2119 111.953 75.7309C111.567 75.3622 111.308 74.8693 111.192 74.3482C111.077 73.8272 111.105 73.2702 111.296 72.7692C111.332 72.677 111.372 72.5888 111.419 72.5007C111.467 72.4125 111.519 72.3323 111.582 72.2562C111.662 72.156 111.758 72.0678 111.857 71.9877C111.957 71.9075 112.064 71.8354 112.175 71.7672C112.916 71.3023 113.636 71.1941 114.38 71.1901C115.124 71.1861 115.888 71.2783 116.716 71.2222C117.138 71.1941 117.56 71.0979 117.942 70.9336C118.324 70.7693 118.674 70.5369 118.949 70.2363C119.199 69.9637 119.239 69.6191 119.203 69.2704C119.168 68.9177 119.052 68.561 118.984 68.2604C118.969 68.1843 118.949 68.1081 118.929 68.032C118.905 67.9558 118.877 67.8837 118.841 67.8156C118.742 67.6312 118.587 67.4829 118.399 67.3587C118.216 67.2344 118.002 67.1342 117.791 67.0501C117.719 67.022 117.647 66.994 117.572 66.9699C117.496 66.9499 117.42 66.9339 117.341 66.9298C117.261 66.9298 117.182 66.9379 117.102 66.9539C117.023 66.9699 116.943 66.994 116.867 67.018C116.692 67.0741 116.505 67.1102 116.318 67.1503C116.131 67.1904 115.948 67.2304 115.781 67.2905C115.594 67.3547 115.415 67.4669 115.244 67.5911C115.073 67.7154 114.909 67.8476 114.754 67.9599C114.364 68.2364 113.934 68.4929 113.481 68.6732C112.354 69.1221 110.838 69.3145 109.967 68.2845C109.481 67.7114 109.278 66.9419 109.254 66.1924C109.238 65.6514 109.306 65.1023 109.513 64.6013C109.732 64.0643 110.098 63.5994 110.512 63.1946C111.427 62.2968 112.605 61.6556 113.871 61.4873C114.42 61.4111 115.025 61.4432 115.467 61.7839C115.701 61.9682 115.868 62.2207 116.052 62.4572C117.082 63.7677 119.004 64.445 120.481 63.6876C121.209 63.3148 121.81 62.6856 122.228 61.9883C122.399 61.6997 122.554 61.4031 122.693 61.0905C122.833 60.7779 122.948 60.4653 123.04 60.1527C123.131 59.8401 123.199 59.5235 123.243 59.2028C123.286 58.8862 123.302 58.5736 123.29 58.273C123.278 57.9725 123.235 57.6759 123.163 57.3873C123.091 57.0988 122.98 56.8302 122.833 56.5777C122.682 56.3253 122.494 56.0928 122.268 55.8804C121.758 55.3153 121.189 54.8504 120.56 54.4857C119.932 54.121 119.251 53.8525 118.511 53.6881C117.771 53.5198 117.015 53.4356 116.247 53.4316C115.478 53.4316 114.694 53.5038 113.895 53.6641C113.123 53.8164 112.366 54.0448 111.618 54.3454C110.87 54.646 110.134 55.0187 109.406 55.4676C108.677 55.9165 108.005 56.4295 107.388 57.0066C106.771 57.5837 106.202 58.2249 105.693 58.9343C105.179 59.6397 104.71 60.4092 104.308 61.2388C103.906 62.0684 103.579 62.9501 103.357 63.8919C103.134 64.8298 102.72 65.7355 102.549 67.4028C102.378 69.07 102.453 71.5027 103.213 75.4985C103.321 76.0596 103.46 76.6086 103.647 77.1497C103.838 77.6907 104.077 78.2158 104.383 78.7288C104.69 79.2418 105.04 79.7267 105.426 80.1876C105.812 80.6485 106.238 81.0813 106.703 81.4861C107.169 81.8949 107.667 82.2676 108.192 82.6163C108.717 82.961 109.274 83.2776 109.855 83.5621C110.44 83.8467 111.037 84.0912 111.65 84.2996C112.263 84.508 112.888 84.6763 113.528 84.8086C114.102 84.8807 114.698 84.9007 115.331 84.8647C115.96 84.8326 116.621 84.7484 117.309 84.6082C117.763 84.516 118.216 84.4038 118.67 84.2715C119.124 84.1393 119.573 83.983 120.027 83.8066C120.477 83.6303 120.919 83.4379 121.348 83.2255C121.778 83.0131 122.196 82.7846 122.606 82.5362C123.016 82.2877 123.406 82.0232 123.78 81.7386C124.154 81.4541 124.508 81.1535 124.846 80.8328C125.185 80.5122 125.491 80.1756 125.774 79.8189C126.052 79.4622 126.307 79.0895 126.53 78.7007C126.749 78.36 126.956 77.9993 127.147 77.6186C127.342 77.2379 127.521 76.8371 127.688 76.4123C127.974 75.6828 128.297 74.721 128.265 73.8753C128.237 73.0297 127.859 72.3003 126.753 72.0318Z" fill="#FFCAD8"/>
<path d="M13.9577 80.6364L13.5398 80.5963C11.5898 80.416 9.57216 80.2316 7.53063 79.8228C5.74777 79.4661 4.25144 78.8209 2.9541 77.847C1.67267 76.8851 0.753384 75.6868 0.228078 74.284C-0.727025 71.7551 0.00521992 68.6932 2.00297 66.8416C3.10134 65.8236 4.51012 65.2104 6.01042 65.0822C7.11675 62.8218 9.42491 61.2988 12.0634 61.2988C12.3579 61.2988 12.6563 61.3189 12.9508 61.3589C14.9327 61.6235 16.5882 62.6414 17.7343 64.3047C18.6297 65.6032 19.1272 67.0981 19.2585 68.8856C19.3659 70.3203 19.1471 71.6189 18.9441 72.5887C18.6217 74.1438 18.1999 75.6507 17.8298 76.9212L17.4438 78.2317C17.0259 79.6785 15.7485 80.6484 14.2681 80.6484L13.9577 80.6324V80.6364Z" fill="#16551C"/>
<path d="M8.48204 68.7656C8.49397 68.4089 8.48204 68.0522 8.51785 67.7035C8.73673 65.7036 10.5514 64.2729 12.5333 64.5374C13.6276 64.6816 14.4872 65.2147 15.116 66.1325C15.7368 67.0342 15.9995 68.0482 16.0831 69.1263C16.1547 70.0761 16.0194 71.0059 15.8284 71.9357C15.5418 73.3144 15.1678 74.6731 14.7738 76.0237C14.6464 76.4605 14.5151 76.9014 14.3878 77.3382C14.3679 77.4144 14.34 77.4544 14.2485 77.4464C12.2069 77.2581 10.1654 77.0857 8.15173 76.681C6.95785 76.4445 5.84357 76.0197 4.86061 75.2782C4.11642 74.7211 3.53938 74.0278 3.2051 73.1461C2.69969 71.8035 3.11357 70.1683 4.15622 69.2024C5.31826 68.1243 7.0454 68.0001 8.38653 68.7175C8.42234 68.7375 8.45816 68.7536 8.48204 68.7656Z" fill="#FFCAD8"/>
<path d="M138.662 17.1685L138.534 16.7637C137.941 14.8841 137.324 12.9403 136.903 10.8883C136.533 9.09681 136.544 7.45362 136.93 5.87055C137.313 4.30751 138.053 2.98895 139.127 1.95494C141.069 0.0873156 144.153 -0.429686 146.625 0.704516C147.986 1.32973 149.092 2.39179 149.793 3.73841C152.292 3.8867 154.584 5.4337 155.611 7.88245C155.726 8.15498 155.822 8.43953 155.901 8.72809C156.43 10.6719 156.144 12.5996 155.069 14.3109C154.23 15.6455 153.056 16.6916 151.472 17.5091C150.198 18.1664 148.929 18.467 147.962 18.6594C146.418 18.964 144.87 19.1604 143.564 19.3127L142.215 19.4649C140.731 19.6373 139.342 18.8357 138.769 17.4611L138.662 17.1645V17.1685Z" fill="#16551C"/>
<path d="M147.388 7.46872C147.719 7.34047 148.041 7.18818 148.375 7.08798C150.29 6.51086 152.303 7.63705 152.832 9.58083C153.127 10.6509 152.972 11.6569 152.379 12.5987C151.794 13.5285 150.97 14.1657 150.019 14.6587C149.179 15.0955 148.276 15.332 147.353 15.5163C145.98 15.7889 144.591 15.9692 143.202 16.1295C142.752 16.1816 142.299 16.2297 141.849 16.2858C141.773 16.2939 141.721 16.2858 141.694 16.1977C141.073 14.2298 140.436 12.27 140.018 10.2461C139.771 9.04779 139.728 7.84545 140.018 6.64713C140.241 5.74137 140.647 4.9318 141.324 4.28254C142.354 3.29262 144.014 3.04012 145.303 3.63328C146.744 4.29456 147.528 5.84557 147.392 7.36853C147.392 7.40861 147.388 7.44869 147.384 7.47674L147.388 7.46872Z" fill="#FFCAD8"/>
<path d="M133.341 101.434L133.11 101.081C132.035 99.43 130.925 97.7267 129.97 95.8671C129.138 94.24 128.708 92.6569 128.657 91.0297C128.609 89.4186 128.967 87.9518 129.727 86.6613C131.1 84.3327 133.93 83.0062 136.616 83.427C138.092 83.6594 139.445 84.3848 140.476 85.491C142.923 84.9579 145.542 85.8276 147.186 87.9077C147.369 88.1401 147.54 88.3886 147.691 88.6411C148.722 90.3685 148.96 92.3042 148.379 94.244C147.93 95.7549 147.074 97.0815 145.769 98.2958C144.718 99.2737 143.576 99.907 142.697 100.356C141.288 101.069 139.855 101.674 138.637 102.175L137.38 102.688C135.995 103.257 134.447 102.857 133.524 101.69L133.341 101.434Z" fill="#16551C"/>
<path d="M139.159 89.7277C139.446 89.5152 139.712 89.2828 140.007 89.0944C141.698 88.0203 143.939 88.5614 144.965 90.2887C145.534 91.2426 145.654 92.2485 145.335 93.3186C145.021 94.3687 144.396 95.2103 143.612 95.9397C142.916 96.585 142.112 97.0619 141.272 97.4867C140.023 98.1199 138.733 98.669 137.44 99.202C137.018 99.3744 136.596 99.5427 136.178 99.715C136.107 99.7431 136.059 99.7511 136.007 99.671C134.885 97.9436 133.747 96.2283 132.808 94.3887C132.25 93.2986 131.884 92.1564 131.849 90.922C131.821 89.9882 131.996 89.1024 132.473 88.2929C133.202 87.0585 134.73 86.3691 136.131 86.5896C137.691 86.834 138.865 88.1165 139.139 89.6194C139.147 89.6595 139.155 89.6996 139.163 89.7236L139.159 89.7277Z" fill="#FFCAD8"/>
</g>
<defs>
<clipPath id="clip0_46_2929">
<rect width="156" height="103" fill="white"/>
</clipPath>
</defs>
</svg>
