<svg width="102" height="67" viewBox="0 0 102 67" fill="none" xmlns="http://www.w3.org/2000/svg">
<g clip-path="url(#clip0_2026_1139)">
<path d="M94.6602 31.8934C94.6368 31.5832 94.5925 31.2782 94.5301 30.9836L94.5223 30.9705C94.4624 30.6864 94.387 30.4074 94.2855 30.1128L94.21 29.8965C94.1736 29.7948 94.1372 29.6853 94.0956 29.5758L94.0747 29.521C94.0175 29.3646 93.955 29.1952 93.8874 29.0179C93.8874 29.0127 93.8666 28.9579 93.8249 28.8067C93.8119 28.7598 93.7885 28.6581 93.7521 28.4522C93.7417 28.387 93.7235 28.2723 93.7131 28.0976C93.7 27.8891 93.6948 27.6675 93.7 27.4354C93.7026 27.2138 93.7209 26.9479 93.7547 26.6429C93.7885 26.3327 93.8406 25.9625 93.916 25.5401L93.9654 25.1256C93.9837 24.8649 94.0019 24.6173 94.0175 24.3722C94.0279 24.2132 94.0383 24.0594 94.0487 23.9082L94.0669 23.6423C94.0982 23.1938 94.0878 22.7246 94.0357 22.2527C93.9941 21.8669 93.9238 21.4732 93.8249 21.0848C93.7209 20.5738 93.5647 20.0707 93.3592 19.5884C93.1354 19.0617 92.8492 18.5534 92.5239 18.0893C92.2169 17.6487 91.8604 17.2264 91.4675 16.8301C91.085 16.4469 90.6661 16.0898 90.2263 15.7743C89.7762 15.4484 89.2922 15.1565 88.7926 14.9062C88.3008 14.6611 87.7778 14.4447 87.2444 14.2701C86.469 14.012 85.6571 13.8373 84.7594 13.7356C84.1974 13.6731 83.6145 13.6418 82.977 13.6418C82.8183 13.6418 82.657 13.6418 82.4904 13.647C82.3603 13.6496 82.225 13.6496 82.0871 13.6522C81.663 13.6522 81.1322 13.6574 80.4791 13.7122C79.381 13.8034 78.2335 14.0198 76.9715 14.3744C75.4155 14.8097 74.0598 15.5214 73.0164 16.4521C72.9956 16.413 72.9748 16.3713 72.954 16.3322C72.7276 15.9333 72.4908 15.584 72.2306 15.2633L71.1039 14.3144C70.4066 13.9233 69.717 13.6209 69.0769 13.4176C68.2859 13.1647 67.5079 13.037 66.7585 13.037C66.1158 13.037 65.4913 13.1282 64.9033 13.3055C64.2814 13.4932 63.6933 13.78 63.1625 14.158L63.1313 14.1814C63.0376 14.2492 62.9465 14.317 62.8581 14.39C62.5718 14.231 62.2596 14.0902 61.9109 13.9677C61.6039 13.8582 61.2604 13.7591 60.8909 13.6705C60.4876 13.574 60.0687 13.5036 59.6523 13.4567C59.2412 13.4124 58.8249 13.3889 58.4086 13.3889C57.9168 13.3889 57.4224 13.428 56.941 13.5088C56.4492 13.5896 55.9626 13.7148 55.4969 13.8816C54.7657 14.1423 54.1074 14.5308 53.5453 15.0365C53.3008 15.2555 53.0848 15.498 52.8844 15.7561C52.6763 15.5788 52.4603 15.4093 52.2391 15.2503C51.789 14.9244 51.305 14.6324 50.8054 14.3822C50.3136 14.1371 49.7906 13.9207 49.2598 13.7461C48.4844 13.488 47.6725 13.3133 46.7748 13.2116C46.2128 13.1491 45.6299 13.1178 44.9924 13.1178C44.8337 13.1178 44.6724 13.1178 44.5059 13.123C44.3758 13.1256 44.2404 13.1256 44.1051 13.1282C43.681 13.1282 43.1502 13.1334 42.4971 13.1882C41.399 13.2794 40.2515 13.4958 38.9869 13.8503C37.5922 14.2388 36.3641 14.854 35.3727 15.644C35.2608 15.292 35.1437 14.9427 35.024 14.6116C34.9043 14.2753 34.769 13.9207 34.5973 13.501L34.5817 13.4645C34.3891 13.0057 34.1966 12.6042 33.9858 12.2314C33.7334 11.7804 33.4654 11.3867 33.1662 11.027L32.0577 10.1015C31.2927 9.67392 30.5355 9.33762 29.8095 9.1056C28.9509 8.82925 28.1 8.68848 27.2829 8.68848C26.5856 8.68848 25.9143 8.78754 25.2846 8.98046C24.6133 9.18641 23.9888 9.49665 23.4293 9.89813C23.1951 10.0676 22.9662 10.2501 22.7476 10.4456L22.5837 10.3205C22.2142 10.091 21.8083 9.89813 21.3425 9.73649C21.0224 9.62439 20.6712 9.52011 20.2626 9.41844L20.2314 9.41062C19.7865 9.30373 19.3233 9.22291 18.8549 9.17338C18.3996 9.12385 17.9286 9.09778 17.4602 9.09778C16.9112 9.09778 16.37 9.1421 15.8444 9.22813C15.311 9.31676 14.7801 9.45494 14.2623 9.63743L14.2337 9.64785C13.4635 9.9268 12.7766 10.3361 12.1937 10.8627C11.5848 11.4128 11.0983 12.0776 10.7496 12.844C10.3931 13.6287 10.0991 14.4291 9.87269 15.2268C9.64111 16.0402 9.47198 16.8797 9.3705 17.7244C9.28983 18.3839 9.21437 19.0383 9.14152 19.6952C9.06866 20.3522 9.001 21.004 8.93595 21.6583C8.88391 22.1928 8.81106 22.7533 8.71999 23.3268C8.63672 23.8586 8.53264 24.4061 8.41034 24.951C8.32968 25.3081 8.21259 25.6653 8.05646 26.0094C7.89514 26.3718 7.68437 26.7368 7.43718 27.0965L7.09891 27.6857C7.00784 27.8812 6.89075 28.1419 6.77886 28.4235C6.66437 28.7129 6.58111 28.9449 6.50825 29.1769C6.33391 29.7244 6.24805 30.2901 6.24805 30.8636C6.24805 31.4033 6.32611 31.9456 6.47963 32.48L6.59932 32.8319C6.84912 33.4628 7.18738 34.0442 7.60111 34.5578C8.02784 35.0844 8.53004 35.538 9.09468 35.9056C9.53963 36.195 10.0158 36.44 10.5128 36.6356C11.015 36.8311 11.5432 36.9745 12.0792 37.0605L12.4331 37.0996C13.6352 37.1804 14.6578 37.2195 15.5581 37.2221C15.5581 37.2221 15.6102 37.2221 15.6388 37.2221C15.683 37.84 15.7923 38.4761 15.9745 39.1226C16.5417 41.1405 17.8193 42.6238 19.5731 43.4007C19.417 43.8961 19.3545 44.3288 19.3311 44.6338C19.2973 45.0849 19.3181 45.528 19.3936 45.9582C18.6754 46.2632 18.0015 46.709 17.3926 47.2904C16.3856 48.2498 15.8027 49.3447 15.5477 49.9026C15.1392 50.6847 14.2675 52.7051 14.7125 55.0045C15.1262 57.1475 16.8904 60.779 24.0642 61.0058C24.5768 61.0215 25.0816 61.0293 25.5682 61.0293C28.7635 61.0293 31.3864 60.6721 33.3717 59.9656C34.9199 59.4103 35.8853 58.7143 36.4864 58.0938C37.9877 56.819 39.039 55.346 39.6218 53.7662C40.2255 53.7557 41.4042 53.6697 42.596 53.031C42.7651 53.1692 42.942 53.2943 43.132 53.4116C43.5613 53.6749 44.0297 53.8757 44.5735 54.0295C45.4088 54.2641 46.3325 54.3893 47.2458 54.3893C48.552 54.3893 49.788 54.1364 50.8184 53.6619C51.1385 53.5133 51.4377 53.3386 51.7187 53.1483C52.2339 53.4585 52.7882 53.701 53.3762 53.8652C54.0267 54.0477 54.7189 54.139 55.4318 54.139C56.0797 54.139 56.7224 54.0634 57.4068 53.9043C57.8725 53.7949 58.3487 53.6489 58.8275 53.4638C58.916 53.5211 59.0044 53.5759 59.0955 53.628C59.504 53.8626 59.9516 54.0503 60.4303 54.1885C60.779 54.2876 61.1355 54.3658 61.4842 54.4153C61.8485 54.4675 62.2258 54.4935 62.6031 54.4935C62.9127 54.4935 63.2223 54.4753 63.5138 54.444C63.8156 54.4101 64.094 54.3684 64.3698 54.311C64.6561 54.2511 64.9163 54.1859 65.1609 54.1129C65.2571 54.0842 65.3482 54.053 65.4419 54.0243C65.6032 54.2459 65.7697 54.4622 65.9493 54.6734C66.3318 55.1296 66.7585 55.5624 67.2035 55.9456C67.6276 56.3184 68.0829 56.6626 68.6112 57.0093C69.0873 57.3195 69.5947 57.6063 70.1334 57.8696C70.6538 58.1225 71.2002 58.3441 71.7544 58.5318C72.3009 58.7169 72.8681 58.8707 73.4458 58.988L73.745 59.0375C74.1587 59.0897 74.5854 59.1158 75.0122 59.1158C75.2151 59.1158 75.4207 59.1105 75.6054 59.1001C76.2117 59.0688 76.8414 58.988 77.4711 58.8603C77.8718 58.7794 78.2751 58.6804 78.6758 58.5631C79.0688 58.4484 79.4643 58.3154 79.891 58.1485C80.2969 57.9895 80.6924 57.8175 81.0567 57.6376C81.4392 57.4499 81.8139 57.2439 82.173 57.0275C82.5555 56.7955 82.9302 56.5452 83.2789 56.2793C83.6353 56.0108 83.9788 55.7188 84.2989 55.419C84.6501 55.0879 84.9806 54.7282 85.298 54.3293C85.5791 53.9721 85.8315 53.6019 86.0552 53.2265C86.253 52.9137 86.4377 52.5904 86.6043 52.2593C86.7864 51.9048 86.9556 51.5268 87.1117 51.1331C87.4135 50.3693 87.809 49.2013 87.7596 47.9161C87.6815 45.5254 86.1255 43.6145 83.7941 43.0462L83.7837 43.0305C83.4896 42.9601 83.1878 42.9106 82.8834 42.8845C83.0161 42.7021 83.1436 42.5144 83.2607 42.3188C83.4558 41.993 83.6223 41.6697 83.7759 41.3282C83.9372 40.9658 84.0751 40.593 84.1844 40.228C84.2989 39.8396 84.3847 39.4381 84.4394 39.0392C84.4732 38.7915 84.4914 38.5413 84.5018 38.2936C84.8661 38.3953 85.2356 38.4761 85.6051 38.5282C85.9954 38.583 86.3909 38.6091 86.7812 38.6091C87.0805 38.6091 87.3953 38.5934 87.7179 38.5621C88.0406 38.5308 88.3685 38.4813 88.6911 38.4135C89.0034 38.3484 89.2896 38.2754 89.568 38.1919C89.8829 38.0981 90.1483 38.0068 90.4033 37.9052C90.7389 37.7722 91.0408 37.634 91.3244 37.4802C91.634 37.3134 91.9072 37.1439 92.157 36.964C92.4667 36.745 92.7555 36.4974 93.0209 36.2315C93.2863 35.9656 93.5491 35.6501 93.7729 35.3268L94.1294 34.6855C94.3115 34.2684 94.4442 33.8695 94.5353 33.4628C94.6524 32.9336 94.6914 32.4044 94.6524 31.8882L94.6602 31.8934Z" fill="#4343FF"/>
<path d="M19.8589 32.4383H19.8641C20.0541 32.2505 20.179 32.0316 20.244 31.7813C20.3091 31.531 20.3065 31.2495 20.244 30.9392C20.1816 30.629 20.1009 30.2901 20.0072 29.9277C19.9136 29.5653 19.8017 29.1743 19.6768 28.7572C19.5493 28.34 19.4322 27.8995 19.3203 27.4354C19.2084 26.9714 19.1069 26.4839 19.0133 25.9703C18.9196 25.4593 18.8806 24.9249 18.9014 24.367C18.9222 23.8091 19.0003 23.2303 19.1382 22.6307C19.3281 22.7689 19.4894 22.907 19.6195 23.0504C19.7496 23.1938 19.8537 23.3372 19.9266 23.4858C19.9994 23.6344 20.0853 23.7882 20.179 23.9525C20.2727 24.1167 20.3793 24.2862 20.4938 24.466C20.5563 24.6251 20.6239 24.7789 20.6916 24.9327C20.7592 25.0865 20.8321 25.2351 20.9049 25.3837C20.9778 25.5323 21.0585 25.6731 21.1443 25.806C21.2302 25.939 21.3239 26.0693 21.4254 26.1893C21.5242 26.3118 21.6309 26.4213 21.7402 26.5177C21.8495 26.6142 21.9666 26.7002 22.0889 26.7758C22.2086 26.8488 22.3335 26.9062 22.4636 26.9427C22.5937 26.9792 22.7264 26.9974 22.8617 26.9974C23.0829 26.9974 23.3118 26.9453 23.5486 26.8384C23.7854 26.7315 24.03 26.5751 24.2824 26.3639C24.3969 26.2701 24.5088 26.1397 24.6129 25.9729C24.7169 25.806 24.8184 25.6053 24.9121 25.3681C25.0058 25.1308 25.102 24.891 25.1957 24.6485C25.2894 24.4061 25.3857 24.161 25.4793 23.9134C25.573 23.6657 25.6667 23.4337 25.7604 23.2173C25.854 23.0009 25.9425 22.8002 26.0336 22.6151C26.122 22.43 26.2157 22.2918 26.3146 22.2006C26.4135 22.1093 26.5123 22.0624 26.619 22.0624C26.7023 22.0624 26.7856 22.0963 26.8688 22.1614C26.9521 22.2266 27.0302 22.3257 27.1108 22.4586C27.1889 22.5916 27.2721 22.7663 27.3606 22.9853C27.4491 23.2042 27.5375 23.4676 27.6338 23.7726C27.7717 24.0672 27.8654 24.3644 27.9227 24.659C27.9799 24.9535 27.9929 25.2507 27.9669 25.5453C27.9409 25.8399 27.894 26.1319 27.829 26.4161C27.7639 26.7002 27.6781 26.9792 27.5714 27.2555C27.4647 27.5293 27.3528 27.7978 27.2357 28.0585C27.1186 28.3192 26.9911 28.5747 26.861 28.8223C26.7283 29.07 26.6112 29.3099 26.5097 29.5419C26.4083 29.7739 26.3198 29.9981 26.2443 30.2145C26.1715 30.4309 26.1246 30.6368 26.1064 30.8323C26.0882 31.0279 26.096 31.213 26.1351 31.385C26.1715 31.5597 26.26 31.7213 26.4005 31.8673C26.541 32.0133 26.7309 32.1489 26.9729 32.2714C27.2149 32.3939 27.5167 32.4982 27.881 32.5869C28.2453 32.6755 28.6668 32.7511 29.1534 32.8085C29.6374 32.8658 30.2072 32.9075 30.8604 32.931C31.5135 32.9544 32.2498 32.9623 33.0721 32.9518C33.2204 32.931 33.3661 32.9075 33.5144 32.8841C33.6628 32.8606 33.8085 32.8345 33.9568 32.8085C34.1051 32.7824 34.2482 32.7511 34.3861 32.7146C34.524 32.6781 34.6619 32.6364 34.792 32.5869C34.9247 32.5399 35.0496 32.4826 35.1667 32.4122C35.2838 32.3418 35.3983 32.2636 35.5024 32.1749C35.6065 32.0863 35.7028 31.982 35.786 31.8621C35.8693 31.7422 35.9447 31.6092 36.0072 31.4632C36.1113 31.1895 36.1919 30.9392 36.2466 30.7124C36.3012 30.4856 36.3324 30.2823 36.3377 30.1024C36.3429 29.9225 36.3298 29.7556 36.3012 29.5992C36.2726 29.4428 36.2258 29.2994 36.1633 29.1691C36.1009 29.0361 36.0254 28.9058 35.9369 28.778C35.8485 28.6503 35.7522 28.5199 35.6403 28.3948C35.5284 28.267 35.4165 28.1263 35.2994 27.9725C35.1823 27.8186 35.0653 27.6466 34.943 27.4615C34.8207 27.2764 34.701 27.0704 34.5787 26.841C34.4564 26.6116 34.3367 26.3587 34.2144 26.085C34.0921 25.8113 33.9802 25.4958 33.8787 25.1439C33.7772 24.7919 33.6836 24.3983 33.5977 23.9655C33.5457 23.8716 33.4884 23.7387 33.4312 23.5692C33.3739 23.3998 33.3141 23.1938 33.249 22.9514C33.1866 22.7089 33.1189 22.4456 33.0487 22.1614C32.9784 21.8773 32.903 21.5697 32.8249 21.2438C32.7468 20.9179 32.6636 20.579 32.5751 20.227C32.4866 19.8751 32.3982 19.5127 32.3019 19.1399C32.2082 18.7645 32.1093 18.3969 32.0053 18.032C31.9012 17.667 31.7971 17.3098 31.6852 16.9553C31.5733 16.6007 31.4588 16.2592 31.3417 15.9307C31.2246 15.6022 31.0997 15.2842 30.9748 14.9765C30.8473 14.6715 30.7172 14.3978 30.5793 14.1527C30.4414 13.9077 30.3009 13.6991 30.1526 13.5192C29.6062 13.2142 29.091 12.9848 28.6122 12.831C28.1334 12.6772 27.6885 12.6016 27.2773 12.6016C26.9729 12.6016 26.6867 12.6407 26.4239 12.7215C26.1611 12.8023 25.9191 12.9196 25.6979 13.0786C25.4767 13.2377 25.266 13.4228 25.0656 13.6365C24.8653 13.8503 24.6753 14.0928 24.4958 14.3613C24.3162 14.6298 24.1419 14.9192 23.9702 15.2242C23.7984 15.5292 23.6319 15.8551 23.468 16.1966C23.304 16.5407 23.1349 16.8927 22.958 17.2525C22.781 17.6122 22.5989 17.985 22.4089 18.363C22.2814 18.1623 22.1747 17.959 22.0863 17.753C21.9978 17.5471 21.9249 17.3385 21.8729 17.1273C21.8209 16.9162 21.7688 16.705 21.7194 16.4938C21.6699 16.2827 21.6205 16.0715 21.5737 15.8603C21.5268 15.6491 21.4722 15.4432 21.4123 15.2425C21.3525 15.0417 21.2848 14.8462 21.212 14.6559C21.1391 14.4656 21.0429 14.2857 20.9284 14.1188C20.8139 13.952 20.676 13.793 20.5172 13.6444C20.4002 13.5714 20.244 13.4984 20.0437 13.428C19.8433 13.3576 19.6013 13.2872 19.3177 13.2168C19.0341 13.149 18.7348 13.0969 18.4252 13.063C18.1156 13.0291 17.7903 13.0109 17.4546 13.0109C17.119 13.0109 16.7911 13.0369 16.4763 13.0891C16.1614 13.1412 15.8544 13.222 15.5604 13.3263C15.2663 13.4332 15.0139 13.5792 14.8032 13.7695C14.5924 13.9598 14.4233 14.1918 14.2984 14.4656C14.0252 15.0678 13.7988 15.6778 13.6218 16.3009C13.4449 16.924 13.3174 17.5575 13.2393 18.1988C13.1613 18.8427 13.0858 19.4841 13.0156 20.1254C12.9453 20.7667 12.8777 21.4054 12.8152 22.0441C12.7528 22.6828 12.6695 23.3163 12.5706 23.942C12.4717 24.5677 12.352 25.1908 12.2141 25.8086C12.0762 26.4265 11.8759 27.0287 11.6131 27.6153C11.3503 28.2019 11.0224 28.778 10.6347 29.3359C10.5514 29.5158 10.4734 29.6905 10.4057 29.8625C10.3381 30.0346 10.2756 30.2014 10.2236 30.3657C10.1715 30.5299 10.1455 30.6968 10.1455 30.8688C10.1455 31.0409 10.1715 31.2156 10.2236 31.3955C10.3277 31.6588 10.463 31.8934 10.6295 32.0993C10.796 32.3053 10.9912 32.4826 11.2175 32.6286C11.4439 32.7772 11.6781 32.8971 11.9253 32.9935C12.1725 33.09 12.4249 33.1578 12.6877 33.1995C13.7832 33.2725 14.7433 33.3116 15.5656 33.3142C16.3878 33.3168 17.0773 33.2829 17.6316 33.2151C18.1832 33.1474 18.6464 33.0483 19.0185 32.9179C19.3906 32.7876 19.669 32.6286 19.8589 32.4383Z" fill="#FFCAD8"/>
<path d="M68.3405 34.1382V34.133C68.7516 34.1825 69.2355 34.2164 69.7898 34.2372C70.344 34.2581 70.9711 34.2633 71.6711 34.2529C71.796 34.2346 71.9209 34.2164 72.0458 34.1955C72.1707 34.1747 72.2955 34.1538 72.423 34.1303C72.5479 34.1069 72.6702 34.0808 72.7899 34.0495C72.9096 34.0182 73.0241 33.9817 73.136 33.9426C73.2479 33.9035 73.3546 33.854 73.4561 33.794C73.5575 33.7367 73.6512 33.6689 73.7423 33.5933C73.8308 33.5177 73.9114 33.4291 73.9843 33.3274C74.0571 33.2257 74.1196 33.1136 74.1716 32.9885C74.2601 32.7565 74.3303 32.5427 74.3772 32.3498C74.424 32.1568 74.45 31.9848 74.4552 31.831C74.4605 31.6798 74.45 31.5364 74.424 31.4034C74.4006 31.2705 74.3616 31.1479 74.3069 31.0358C74.2523 30.9237 74.1898 30.8116 74.1144 30.7021C74.0415 30.5926 73.9556 30.4832 73.862 30.3763C73.7683 30.2694 73.672 30.1495 73.5732 30.0165C73.4743 29.8835 73.3728 29.7402 73.2713 29.5837C73.1672 29.4273 73.0658 29.25 72.9617 29.0571C72.8576 28.8616 72.7561 28.6478 72.652 28.4132C72.5479 28.1812 72.4543 27.9126 72.3658 27.6128C72.2773 27.313 72.1993 26.9793 72.1264 26.6091C72.0822 26.5283 72.0353 26.4162 71.9859 26.2728C71.9365 26.1295 71.8844 25.9548 71.8324 25.7488C71.7777 25.5429 71.7205 25.3187 71.6607 25.0762C71.6008 24.8338 71.5358 24.5731 71.4681 24.2967C71.4004 24.0178 71.3302 23.731 71.2573 23.4312C71.1845 23.1314 71.1064 22.8238 71.0258 22.5057C70.9451 22.1877 70.8618 21.8722 70.7734 21.5646C70.6849 21.2544 70.5964 20.9493 70.5001 20.6495C70.4065 20.3497 70.3076 20.0577 70.2087 19.7788C70.1072 19.4972 70.0032 19.2287 69.8965 18.968C69.7898 18.7073 69.6779 18.4753 69.5608 18.2693C69.4437 18.0634 69.324 17.8835 69.1991 17.7297C68.7334 17.469 68.2962 17.2735 67.8903 17.1457C67.4818 17.0154 67.1045 16.9502 66.7558 16.9502C66.4956 16.9502 66.2536 16.9841 66.0298 17.0519C65.8061 17.1197 65.6005 17.2213 65.4132 17.3543C65.2258 17.4898 65.0463 17.6463 64.8771 17.8288C64.708 18.0112 64.5467 18.2146 64.3932 18.444C64.2396 18.6734 64.0913 18.9185 63.9456 19.1766C63.7999 19.4373 63.6594 19.7136 63.5189 20.003C63.381 20.295 63.2352 20.5948 63.0869 20.9024C62.9386 21.21 62.7825 21.5255 62.6212 21.8488C62.5145 21.6793 62.4208 21.5046 62.3453 21.33C62.2699 21.1553 62.21 20.978 62.1632 20.7981C62.119 20.6182 62.0747 20.4384 62.0331 20.2611C61.9915 20.0838 61.9498 19.9013 61.9082 19.724C61.8692 19.5442 61.8223 19.3695 61.7703 19.2C61.7183 19.0306 61.661 18.8637 61.5986 18.7021C61.5361 18.5405 61.4554 18.3893 61.3566 18.2459C61.2577 18.1025 61.1406 17.9669 61.0079 17.8418C60.909 17.7792 60.7737 17.7167 60.6046 17.6567C60.4354 17.5967 60.2299 17.5368 59.9879 17.4794C59.7459 17.4221 59.4935 17.3777 59.2281 17.3491C58.9627 17.3204 58.6895 17.3047 58.4033 17.3047C58.117 17.3047 57.8386 17.3282 57.5706 17.3725C57.3026 17.4168 57.0424 17.4846 56.7926 17.5733C56.5428 17.6619 56.3268 17.7896 56.1473 17.9513C55.9677 18.1129 55.8246 18.3111 55.7179 18.5431C55.4838 19.054 55.2938 19.5754 55.1429 20.1047C54.992 20.6339 54.8853 21.1709 54.8176 21.7184C54.75 22.2659 54.6875 22.8107 54.6251 23.3556C54.5652 23.9005 54.508 24.4453 54.4534 24.9876C54.3493 26.0512 54.0735 27.0706 53.8289 28.0873C53.5843 29.104 53.3735 30.1208 53.3917 31.1792C53.3943 31.3356 53.4021 31.4921 53.4151 31.6511C53.4282 31.8101 53.449 31.9691 53.4724 32.1282C53.4984 32.2898 53.5296 32.4488 53.5713 32.6079C53.6129 32.7669 53.6675 32.9181 53.7404 33.0641C54.1749 33.9296 54.9738 34.3363 55.8637 34.5005C56.7536 34.6648 57.7397 34.5892 58.5438 34.4875C59.0147 34.4302 59.4076 34.3441 59.7225 34.2346C60.0373 34.1251 60.2767 33.9896 60.438 33.8279C60.5994 33.6663 60.7061 33.4786 60.7607 33.2674C60.8153 33.0537 60.8153 32.8164 60.7607 32.5505C60.7061 32.2872 60.641 31.9978 60.5603 31.6902C60.4797 31.38 60.386 31.0489 60.2793 30.6943C60.1726 30.3398 60.0712 29.9644 59.9775 29.5707C59.8838 29.177 59.7953 28.7599 59.7147 28.3272C59.634 27.8918 59.6028 27.4382 59.621 26.9637C59.6392 26.4892 59.7069 25.9991 59.8214 25.4881C59.9827 25.6054 60.118 25.7228 60.2299 25.8453C60.3418 25.9652 60.4302 26.0903 60.4927 26.2155C60.5551 26.3406 60.628 26.4736 60.7087 26.6118C60.7893 26.7499 60.8778 26.8959 60.9767 27.0497C61.0313 27.1853 61.086 27.3156 61.1458 27.446C61.203 27.5763 61.2655 27.7041 61.3279 27.8292C61.3904 27.9544 61.4581 28.0743 61.5335 28.189C61.6064 28.3037 61.687 28.4132 61.7729 28.5149C61.8588 28.6191 61.9472 28.7104 62.0409 28.7938C62.1346 28.8772 62.2335 28.9502 62.3375 29.0128C62.4416 29.0754 62.5457 29.1223 62.6576 29.1536C62.7695 29.1849 62.8814 29.2005 62.9959 29.2005C63.1832 29.2005 63.3784 29.1562 63.5813 29.0649C63.7843 28.9737 63.9898 28.8407 64.2058 28.6609C64.3047 28.58 64.3984 28.4679 64.4868 28.3272C64.5753 28.1864 64.6612 28.0143 64.7418 27.8136C64.8225 27.6128 64.9031 27.4069 64.9838 27.2009C65.0645 26.995 65.1451 26.7864 65.2258 26.5753C65.3065 26.3641 65.3845 26.166 65.4652 25.9835C65.5433 25.7984 65.6213 25.6289 65.6968 25.4725C65.7722 25.3161 65.8529 25.1988 65.9362 25.1205C66.0194 25.0423 66.1053 25.0032 66.1938 25.0032C66.2666 25.0032 66.3369 25.0319 66.4045 25.0867C66.4748 25.144 66.5424 25.2274 66.6101 25.3395C66.6777 25.4516 66.748 25.6002 66.8209 25.7879C66.8937 25.973 66.9718 26.1972 67.0524 26.4579C67.1695 26.7082 67.2502 26.9611 67.297 27.2114C67.3439 27.4616 67.3569 27.7145 67.3335 27.9648C67.31 28.2151 67.271 28.4627 67.2164 28.7052C67.1591 28.9476 67.0889 29.1849 66.9978 29.4169C66.9093 29.6515 66.8131 29.8783 66.7116 30.0999C66.6101 30.3215 66.5034 30.5379 66.3915 30.7491C66.2796 30.9602 66.1808 31.1636 66.0923 31.3617C66.0038 31.5598 65.931 31.7502 65.8685 31.9326C65.8061 32.1177 65.767 32.2924 65.7514 32.4567C65.7358 32.6209 65.7436 32.7799 65.7748 32.9285C65.8061 33.0771 65.8815 33.2127 65.9986 33.3378C66.1157 33.463 66.2796 33.5777 66.4852 33.6819C66.6908 33.7862 66.9484 33.8749 67.258 33.9505C67.5676 34.0261 67.9267 34.0886 68.3405 34.1382Z" fill="#FFCAD8"/>
<path d="M52.2802 32.9489L52.275 32.9437C52.3843 32.8342 52.4832 32.7143 52.569 32.5892C52.6445 32.4171 52.7017 32.2529 52.7356 32.0991C52.7694 31.9452 52.7824 31.8019 52.772 31.6663C52.7616 31.5307 52.7434 31.3952 52.7147 31.2596C52.6861 31.124 52.6471 30.9833 52.6003 30.8451C52.5508 30.7069 52.4988 30.5557 52.4415 30.3993C52.3843 30.2429 52.3218 30.0708 52.2542 29.8935C52.1865 29.7163 52.1267 29.5207 52.0694 29.3096C52.0122 29.0984 51.9654 28.869 51.9211 28.6239C51.8769 28.3789 51.8457 28.1077 51.8274 27.8131C51.8092 27.5186 51.8014 27.1953 51.8066 26.8512C51.8118 26.5044 51.8379 26.1212 51.8821 25.7041C51.9263 25.287 51.994 24.8307 52.0798 24.3406C52.0981 24.0721 52.1163 23.814 52.1345 23.5663C52.1527 23.3187 52.1657 23.0814 52.1813 22.8546C52.1969 22.6278 52.1891 22.3958 52.1631 22.1586C52.1371 21.9213 52.0903 21.6763 52.0226 21.426C51.9732 21.147 51.8925 20.8733 51.778 20.6048C51.6635 20.3363 51.5152 20.0703 51.3331 19.8122C51.1509 19.5515 50.9428 19.3065 50.7138 19.0771C50.4848 18.8477 50.2298 18.6287 49.9514 18.4279C49.673 18.2272 49.3737 18.0447 49.0511 17.8831C48.7284 17.7214 48.3849 17.5807 48.0207 17.4607C47.4716 17.2782 46.9018 17.1661 46.3267 17.101C45.7517 17.0358 45.1688 17.0228 44.5938 17.0358C44.0708 17.0488 43.5269 17.028 42.814 17.0879C42.101 17.1479 41.2215 17.2861 40.0272 17.6198C38.8797 17.9404 37.9872 18.4462 37.3965 19.064C36.8059 19.6819 36.5144 20.4171 36.5665 21.194C36.5769 21.3426 36.5847 21.5146 36.6159 21.6763C36.6471 21.8405 36.6992 21.9969 36.7981 22.1142C36.8969 22.2342 37.0244 22.3489 37.1623 22.4505C37.3003 22.5496 37.4486 22.6356 37.5917 22.6956C37.7738 22.7712 37.969 22.8155 38.1641 22.8442C38.3593 22.8729 38.5596 22.8833 38.76 22.8937C38.8667 22.8989 38.976 22.9042 39.0827 22.9042C39.1893 22.9042 39.2986 22.8989 39.4027 22.8833C39.5146 22.8677 39.6239 22.8416 39.7332 22.8077C39.8424 22.7764 39.9491 22.7373 40.0558 22.7008C40.2536 22.6304 40.4565 22.5652 40.6543 22.4922C40.852 22.4166 41.0446 22.3306 41.2267 22.2237C41.3985 22.1221 41.539 21.9865 41.6847 21.8535C41.8304 21.7206 41.9761 21.5824 42.1557 21.4781C42.3222 21.3791 42.4913 21.2826 42.6631 21.194C42.8348 21.1079 43.0143 21.0297 43.1991 20.9724C43.402 20.9098 43.6102 20.8733 43.8184 20.8498C44.0291 20.829 44.2399 20.8238 44.4533 20.8238C44.6276 20.8238 44.8045 20.8316 44.9789 20.8551C45.1532 20.8785 45.3223 20.9176 45.4837 20.9854C45.7803 21.1131 46.0275 21.3373 46.1966 21.6137C46.3658 21.89 46.4594 22.2133 46.4516 22.5366C46.4438 22.8077 46.3684 23.0736 46.2435 23.3108C46.1186 23.5507 45.9416 23.7619 45.7283 23.9287C45.4785 24.1242 45.1506 24.2389 44.8097 24.3172C44.4689 24.3954 44.115 24.4319 43.8106 24.4814C42.9779 24.6117 42.1401 24.6821 41.3126 24.8281C40.4852 24.9741 39.6655 25.1905 38.8719 25.6154C38.6585 25.7301 38.4452 25.8553 38.25 25.9961C38.0522 26.1368 37.8701 26.2985 37.7114 26.481C37.1858 27.0936 36.9334 28.0321 36.8839 28.9993C36.8345 29.9665 36.988 30.9572 37.2794 31.6715C37.4043 31.9791 37.5709 32.2607 37.7764 32.511C37.982 32.7638 38.2292 32.988 38.518 33.1862C38.8068 33.3843 39.1243 33.5303 39.4756 33.6294C39.8268 33.7284 40.2067 33.778 40.6205 33.778C41.0342 33.778 41.4271 33.7284 41.8616 33.6268C42.2962 33.5251 42.7515 33.3739 43.2251 33.1731C43.6987 32.9724 44.1957 32.6987 44.7109 32.3572C45.2261 32.0156 45.7647 31.6037 46.3215 31.124C46.2148 31.3926 46.1446 31.6428 46.1082 31.8749C46.0717 32.1069 46.0717 32.318 46.1056 32.5084C46.1394 32.7013 46.1966 32.8759 46.2747 33.035C46.3528 33.194 46.4568 33.3348 46.5817 33.4599C46.7066 33.5851 46.8497 33.6919 47.0111 33.7832C47.1724 33.8744 47.3519 33.95 47.5471 34.0074C47.7449 34.0647 47.9478 34.1091 48.156 34.1377C48.3641 34.1664 48.5801 34.1821 48.8013 34.1821C48.9834 34.1821 49.1682 34.1716 49.3529 34.1534C49.5377 34.1351 49.725 34.1064 49.9124 34.0673C50.0997 34.0282 50.2818 33.9839 50.464 33.9292C50.6461 33.8744 50.8205 33.8171 50.9922 33.7493C51.1639 33.6815 51.3279 33.6085 51.4814 33.5251C51.6349 33.4417 51.778 33.3556 51.9133 33.2592C52.0486 33.1627 52.1709 33.0584 52.2802 32.9489ZM44.3674 28.3919C44.1436 28.5952 43.8158 28.7673 43.6414 28.8533C43.4853 28.9315 43.2954 28.9811 43.1028 29.015C42.9103 29.0515 42.7125 29.0723 42.5408 29.0958C42.4627 29.1062 42.3742 29.1245 42.2884 29.1271C42.2025 29.1297 42.1192 29.1219 42.049 29.0801C42.049 29.0801 42.0412 29.0749 42.0386 29.0749C42.036 29.0749 42.0334 29.0697 42.0282 29.0697C41.9215 28.9941 41.833 28.8194 41.7758 28.6343C41.7185 28.4466 41.6951 28.2485 41.7237 28.1286C41.7628 27.9722 41.8616 27.8444 41.9891 27.7454C42.1166 27.6463 42.2728 27.5733 42.4263 27.5212C42.6917 27.4351 42.9701 27.3908 43.2485 27.3908C43.5269 27.3908 43.8054 27.4325 44.0708 27.5186C44.1436 27.542 44.2165 27.5707 44.2841 27.6046C44.3518 27.6385 44.4168 27.6802 44.4741 27.7323C44.7135 27.9487 44.5938 28.1859 44.3674 28.3919Z" fill="#FFCAD8"/>
<path d="M90.7102 31.7863L90.705 31.7811C90.6764 31.6429 90.6373 31.5047 90.5905 31.3666C90.541 31.2284 90.489 31.0772 90.4318 30.9208C90.3745 30.7644 90.3121 30.5923 90.2444 30.415C90.1768 30.2377 90.1169 30.0422 90.0597 29.831C90.0024 29.6199 89.9556 29.3905 89.9114 29.1454C89.8671 28.9003 89.8359 28.6292 89.8177 28.3346C89.7995 28.04 89.7917 27.7168 89.7969 27.3726C89.8021 27.0259 89.8281 26.6427 89.8723 26.2256C89.9166 25.8084 89.9842 25.3522 90.0701 24.8621C90.0883 24.5936 90.1065 24.3355 90.1247 24.0878C90.1429 23.8402 90.156 23.6029 90.1716 23.3761C90.1872 23.1493 90.1794 22.9173 90.1533 22.68C90.1273 22.4428 90.0805 22.1977 90.0128 21.9475C89.9634 21.6685 89.8827 21.3948 89.7682 21.1263C89.6538 20.8577 89.5054 20.5918 89.3233 20.3337C89.1412 20.073 88.933 19.828 88.704 19.5986C88.475 19.3691 88.22 19.1502 87.9416 18.9494C87.6632 18.7487 87.364 18.5662 87.0413 18.4046C86.7187 18.2429 86.3752 18.1021 86.0109 17.9822C85.4619 17.7997 84.892 17.6876 84.317 17.6225C83.7419 17.5573 83.1591 17.5442 82.584 17.5573C82.061 17.5703 81.5172 17.5495 80.8042 17.6094C80.0913 17.6694 79.2118 17.8075 78.0174 18.1412C76.8699 18.4619 75.9774 18.9677 75.3868 19.5855C74.7961 20.2034 74.5047 20.9386 74.5567 21.7154C74.5671 21.864 74.5749 22.0361 74.6062 22.1977C74.6374 22.362 74.6894 22.5184 74.7883 22.6357C74.8872 22.7556 75.0147 22.8703 75.1526 22.972C75.2905 23.0711 75.4388 23.1571 75.5819 23.2171C75.7641 23.2927 75.9592 23.337 76.1544 23.3657C76.3495 23.3944 76.5499 23.4048 76.7502 23.4152C76.8569 23.4204 76.9662 23.4256 77.0729 23.4256C77.1796 23.4256 77.2889 23.4204 77.3929 23.4048C77.5048 23.3891 77.6141 23.3631 77.7234 23.3292C77.8327 23.2979 77.9394 23.2588 78.0461 23.2223C78.2438 23.1519 78.4468 23.0867 78.6445 23.0137C78.8423 22.9381 79.0348 22.8521 79.217 22.7452C79.3887 22.6435 79.5292 22.508 79.6749 22.375C79.8206 22.2421 79.9664 22.1039 80.1459 21.9996C80.3124 21.9005 80.4816 21.8041 80.6533 21.7154C80.825 21.6294 81.0046 21.5512 81.1893 21.4938C81.3923 21.4313 81.6004 21.3948 81.8086 21.3713C82.0194 21.3505 82.2301 21.3453 82.4435 21.3453C82.6178 21.3453 82.7948 21.3531 82.9691 21.3765C83.1434 21.4 83.3126 21.4391 83.4739 21.5069C83.7705 21.6346 84.0177 21.8588 84.1869 22.1352C84.356 22.4115 84.4497 22.7348 84.4419 23.0581C84.4341 23.3292 84.3586 23.5951 84.2337 23.8323C84.1088 24.0722 83.9319 24.2833 83.7185 24.4502C83.4687 24.6457 83.1408 24.7604 82.8 24.8386C82.4591 24.9168 82.1052 24.9533 81.8008 25.0029C80.9681 25.1332 80.1303 25.2036 79.3028 25.3496C78.4754 25.4956 77.6557 25.712 76.8621 26.1369C76.6488 26.2516 76.4354 26.3768 76.2402 26.5175C76.0425 26.6583 75.8603 26.82 75.7016 27.0024C75.176 27.6151 74.9236 28.5536 74.8742 29.5208C74.8247 30.488 74.9782 31.4787 75.2697 32.193C75.3946 32.5006 75.5611 32.7822 75.7667 33.0325C75.9722 33.2853 76.2194 33.5095 76.5082 33.7077C76.7971 33.9058 77.1145 34.0518 77.4658 34.1509C77.8171 34.2499 78.197 34.2995 78.6107 34.2995C79.0244 34.2995 79.4173 34.2499 79.8519 34.1482C80.2864 34.0466 80.7418 33.8954 81.2153 33.6946C81.6889 33.4939 82.1859 33.2202 82.7011 32.8786C83.2163 32.5371 83.7549 32.1252 84.3118 31.6455C84.2051 31.914 84.1348 32.1643 84.0984 32.3963C84.062 32.6284 84.062 32.8395 84.0958 33.0298C84.1296 33.2228 84.1869 33.3974 84.2649 33.5565C84.343 33.7155 84.4471 33.8563 84.572 33.9814C84.6969 34.1065 84.84 34.2134 85.0013 34.3047C85.1626 34.3959 85.3422 34.4715 85.5373 34.5289C85.7351 34.5862 85.938 34.6305 86.1462 34.6592C86.3544 34.6879 86.5703 34.7035 86.7915 34.7035C86.9736 34.7035 87.1584 34.6931 87.3431 34.6749C87.5279 34.6566 87.7152 34.6279 87.9026 34.5888C88.0899 34.5497 88.2721 34.5054 88.4542 34.4507C88.6364 34.3959 88.8107 34.3386 88.9824 34.2708C89.1542 34.203 89.3181 34.13 89.4716 34.0466C89.6251 33.9632 89.7682 33.8771 89.9036 33.7807C90.0389 33.6842 90.1612 33.5799 90.2704 33.4704C90.3797 33.3609 90.4786 33.241 90.5645 33.1159C90.6399 32.9438 90.6972 32.7796 90.731 32.6258C90.7648 32.4719 90.7778 32.3286 90.7674 32.193C90.757 32.0574 90.7388 31.9219 90.7102 31.7863ZM82.3576 28.9134C82.1339 29.1167 81.806 29.2888 81.6317 29.3748C81.4755 29.453 81.2856 29.5026 81.093 29.5365C80.9005 29.573 80.7027 29.5938 80.531 29.6173C80.4529 29.6277 80.3645 29.646 80.2786 29.6486C80.1927 29.6512 80.1095 29.6433 80.0392 29.6016C80.0366 29.6016 80.0314 29.5964 80.0288 29.5964C80.0262 29.5964 80.0236 29.5912 80.0184 29.5912C79.9117 29.5156 79.8232 29.3409 79.766 29.1558C79.7088 28.9681 79.6853 28.77 79.714 28.6501C79.753 28.4937 79.8519 28.3659 79.9794 28.2668C80.1069 28.1678 80.263 28.0948 80.4165 28.0426C80.6819 27.9566 80.9603 27.9123 81.2388 27.9123C81.5172 27.9123 81.7956 27.954 82.061 28.04C82.1339 28.0635 82.2067 28.0922 82.2744 28.1261C82.342 28.16 82.4071 28.2017 82.4643 28.2538C82.7037 28.4702 82.584 28.7074 82.3576 28.9134Z" fill="#FFCAD8"/>
<path d="M65.9415 47.6659C65.8999 47.546 65.8531 47.4157 65.801 47.2775C65.7516 47.1393 65.6969 46.9907 65.6371 46.8343C65.5772 46.6779 65.5252 46.5084 65.4758 46.3207C65.4263 46.1356 65.3847 45.9349 65.3457 45.7185C65.3066 45.5021 65.2806 45.2649 65.2624 45.0068C65.2442 44.7487 65.239 44.4645 65.2442 44.1621C65.2494 43.8571 65.2702 43.5234 65.3118 43.1558C65.3509 42.7882 65.4107 42.3894 65.4862 41.9592C65.5018 41.722 65.52 41.4952 65.533 41.2788C65.5486 41.0624 65.5616 40.8538 65.5746 40.6557C65.5877 40.4576 65.5824 40.2542 65.559 40.0457C65.5356 39.8371 65.494 39.6233 65.4367 39.4043C65.3951 39.1593 65.3222 38.9194 65.2208 38.6822C65.1193 38.445 64.9892 38.2129 64.8305 37.9861C64.6691 37.7593 64.4896 37.5429 64.2866 37.3396C64.0837 37.1362 63.8625 36.9459 63.6179 36.7687C63.3733 36.5914 63.1105 36.4324 62.8269 36.2916C62.5459 36.1508 62.244 36.0257 61.924 35.9214C61.4426 35.7624 60.943 35.6633 60.4382 35.6059C59.9334 35.5486 59.4234 35.5355 58.9186 35.5486C58.4607 35.5616 57.9819 35.5434 57.3574 35.5955C56.7329 35.6476 55.9601 35.7702 54.9141 36.0622C53.9071 36.3437 53.1239 36.7869 52.6061 37.3292C52.0883 37.8714 51.8307 38.5154 51.8775 39.1984C51.8853 39.3287 51.8931 39.4799 51.9217 39.6233C51.9478 39.7667 51.9946 39.9049 52.0805 40.0092C52.1663 40.1134 52.2782 40.2151 52.4005 40.3038C52.5228 40.3924 52.6529 40.4654 52.7778 40.5175C52.9391 40.5853 53.1083 40.6244 53.28 40.6479C53.4517 40.6713 53.6287 40.6818 53.803 40.6896C53.8967 40.6948 53.993 40.6974 54.0866 40.6974C54.1803 40.6974 54.274 40.6922 54.3676 40.6792C54.4665 40.6661 54.5628 40.6427 54.6565 40.614C54.7527 40.5853 54.8464 40.554 54.9401 40.5201C55.1144 40.4602 55.2914 40.4028 55.4657 40.335C55.64 40.2673 55.8092 40.1943 55.9679 40.0978C56.1162 40.0092 56.2437 39.8918 56.3686 39.7719C56.4961 39.6546 56.6236 39.5347 56.7797 39.4408C56.9255 39.3548 57.0738 39.2688 57.2247 39.1932C57.3756 39.1176 57.5317 39.0498 57.6931 39.0003C57.87 38.9455 58.0521 38.9116 58.2369 38.8934C58.4216 38.8751 58.609 38.8699 58.7937 38.8699C58.9472 38.8699 59.1034 38.8751 59.2543 38.896C59.4078 38.9168 59.5561 38.9507 59.6966 39.0107C59.9568 39.1228 60.1728 39.3209 60.3237 39.5608C60.472 39.8032 60.5553 40.0874 60.5475 40.3715C60.5423 40.6088 60.4746 40.8408 60.3654 41.052C60.2561 41.2631 60.0999 41.4482 59.9152 41.5942C59.6966 41.7663 59.4104 41.868 59.1112 41.9331C58.8119 42.0009 58.5023 42.0348 58.2343 42.0765C57.5031 42.1912 56.7693 42.2538 56.0434 42.3815C55.3174 42.5093 54.5992 42.6996 53.9019 43.0724C53.7145 43.1741 53.5272 43.281 53.3555 43.4061C53.1811 43.5312 53.0224 43.6694 52.8819 43.8336C52.4213 44.3707 52.1975 45.1945 52.1559 46.0418C52.1117 46.889 52.247 47.7572 52.502 48.3855C52.6113 48.6566 52.757 48.9017 52.9365 49.1232C53.1187 49.3448 53.3346 49.543 53.587 49.715C53.8394 49.8871 54.1205 50.0175 54.4275 50.1035C54.7345 50.1895 55.0702 50.2338 55.4319 50.2338C55.7936 50.2338 56.1396 50.1895 56.5221 50.1009C56.902 50.0122 57.3028 49.8793 57.7191 49.702C58.1354 49.5247 58.5699 49.2875 59.0227 48.9877C59.4755 48.6879 59.9464 48.3281 60.4356 47.9058C60.3419 48.143 60.2795 48.362 60.2483 48.5653C60.217 48.7687 60.2144 48.9538 60.2457 49.1232C60.2743 49.2927 60.3237 49.4465 60.394 49.5847C60.4642 49.7229 60.5527 49.848 60.662 49.9575C60.7713 50.067 60.8962 50.1608 61.0367 50.2417C61.1772 50.3225 61.3359 50.3876 61.5077 50.4372C61.6794 50.4867 61.8589 50.5258 62.0411 50.5519C62.2232 50.578 62.4132 50.591 62.6057 50.591C62.7644 50.591 62.9258 50.5832 63.0897 50.5649C63.2536 50.5467 63.4149 50.5232 63.5789 50.4893C63.7428 50.4554 63.9041 50.4163 64.0629 50.3694C64.2216 50.3225 64.3751 50.2703 64.526 50.2104C64.6769 50.1504 64.82 50.0852 64.9554 50.0148C65.0907 49.9445 65.2156 49.8662 65.3352 49.7802C65.4523 49.6968 65.5616 49.6055 65.6579 49.5091C65.7542 49.4126 65.84 49.3083 65.9181 49.1989C65.9858 49.0476 66.0326 48.9043 66.0638 48.7687C66.0924 48.6331 66.1029 48.508 66.095 48.3881C66.0872 48.2708 66.069 48.1508 66.0456 48.0309C66.0196 47.911 65.9858 47.7885 65.9441 47.6659H65.9415ZM58.7157 45.5204V45.5152C58.5205 45.695 58.2343 45.8462 58.0808 45.9245C57.9429 45.9922 57.7763 46.0366 57.6072 46.0678C57.4381 46.0991 57.2637 46.1174 57.1154 46.1382C57.0451 46.1461 56.9697 46.1617 56.8942 46.1669C56.8188 46.1695 56.7459 46.1643 56.6835 46.1252C56.6809 46.1252 56.6783 46.1226 56.6757 46.12C56.6731 46.12 56.6705 46.1174 56.6679 46.1148C56.5742 46.0496 56.4961 45.8958 56.4441 45.7315C56.392 45.5673 56.3738 45.3926 56.3998 45.2883C56.4337 45.1502 56.5195 45.0381 56.6314 44.952C56.7433 44.8634 56.8786 44.8008 57.0139 44.7565C57.2455 44.6809 57.4901 44.6418 57.7347 44.6418C57.9793 44.6418 58.2239 44.6783 58.4555 44.7539C58.5205 44.7748 58.583 44.7982 58.6428 44.8295C58.7026 44.8608 58.7599 44.8947 58.8093 44.9416C59.0201 45.1319 58.9134 45.3405 58.7157 45.5204Z" fill="#FFCAD8"/>
<path d="M32.7342 44.5901L32.7237 44.5849C33.9207 43.9331 34.3474 42.6948 34.4775 41.6181C34.605 40.544 34.4359 39.6315 34.4359 39.6315C33.5798 35.9817 31.1859 34.4175 28.7921 33.7658C26.3982 33.114 24.0017 33.3747 23.1482 33.3747C22.2948 33.3747 21.1811 33.6354 20.4109 34.3524C19.6407 35.0693 19.2139 36.2424 19.7266 38.0673C20.2392 39.8922 21.7796 40.2181 23.1899 40.0878C24.6002 39.9574 25.883 39.3708 25.8856 39.3708C26.2733 39.1936 27.1189 38.6722 27.949 38.3671C28.7791 38.0621 29.5935 37.9761 29.9161 38.6722C30.0827 39.0319 30.0228 39.4543 29.8615 39.8636C29.7002 40.2729 29.4348 40.6665 29.1876 40.9689C28.8571 41.373 28.4434 41.7406 27.9724 42.0561C27.5014 42.3715 26.9706 42.6348 26.4034 42.8382C25.8283 43.0441 25.0581 43.1927 24.4206 43.4769C23.7831 43.761 23.2731 44.1834 23.2185 44.9394C23.2055 45.101 23.2185 45.2679 23.2679 45.4217C23.3174 45.5755 23.3928 45.7189 23.5073 45.8336C23.5724 45.8962 23.6452 45.9483 23.7233 45.9926C23.8013 46.037 23.8846 46.0708 23.9705 46.1021C24.3894 46.2533 24.824 46.2924 25.2611 46.3003C25.6982 46.3081 26.1406 46.2872 26.5751 46.3185C27.0279 46.3498 27.478 46.4176 27.9204 46.5114C28.3627 46.6053 28.8025 46.7252 29.237 46.8634C29.7132 47.0146 30.1451 47.1371 30.5016 47.3248C30.8581 47.5125 31.1391 47.7628 31.3108 48.1695C31.571 48.7821 31.5268 49.5069 31.2432 50.1717C30.9596 50.8365 30.4366 51.4413 29.7444 51.8141C29.5779 51.9027 29.4009 51.9783 29.2136 52.0357C29.0262 52.093 28.8311 52.1321 28.6281 52.1504C27.0877 52.2807 26.4034 52.0852 25.7633 51.6603C25.1232 51.2353 24.5221 50.5862 23.156 49.8041C21.79 49.022 20.7622 49.4782 20.0778 50.13C19.3935 50.7817 19.0526 51.629 19.0526 51.629C19.0526 51.629 18.2824 52.9325 18.54 54.2673C18.7976 55.6021 20.0804 56.9733 24.1838 57.1037C28.2899 57.234 30.6837 56.7778 32.0524 56.2903C33.4211 55.8002 33.762 55.2788 33.762 55.2788C36.8402 52.8021 36.5852 50.1299 35.5574 48.0782C34.5322 46.0239 32.7342 44.5901 32.7342 44.5901Z" fill="#FFCAD8"/>
<path d="M49.5359 36.153L49.5411 36.1425C48.4066 35.5221 46.8558 35.3292 45.8358 35.4595C45.4351 35.5116 45.076 35.6498 44.8262 35.8844C44.5738 36.1191 44.4307 36.4476 44.4593 36.8803C44.4879 37.3157 44.6935 37.665 44.886 38.017C45.0786 38.3689 45.2581 38.7235 45.2321 39.1667C45.2269 39.2449 45.2243 39.3909 45.2035 39.5264C45.1827 39.662 45.141 39.7897 45.063 39.8341C44.9901 39.8732 44.8574 39.8575 44.7221 39.8262C44.5868 39.7976 44.4489 39.7558 44.3708 39.7454C44.121 39.7141 43.8634 39.6933 43.6058 39.6959C43.3508 39.6985 43.0932 39.7272 42.8486 39.7976C42.6249 39.8627 42.3829 39.9383 42.1903 39.9175C41.9978 39.8966 41.8547 39.7767 41.8286 39.4508C41.8052 39.1458 41.8495 38.8147 41.9171 38.4888C41.9848 38.1604 42.0784 37.8371 42.1487 37.5477C42.4089 36.5049 42.0836 35.9835 41.3369 35.7228C40.5901 35.4621 39.4165 35.4621 37.9854 35.4621C36.5543 35.4621 36.0989 36.1139 36.0339 36.9924C35.9688 37.871 36.2941 38.979 36.4242 39.8914C36.5153 40.5249 36.4736 41.161 36.4164 41.7971C36.3566 42.4332 36.2785 43.0693 36.2915 43.7028C36.3071 44.4719 36.3253 45.241 36.3409 46.01C36.3566 46.7791 36.3748 47.5482 36.3904 48.3172C36.3956 48.5154 36.4008 48.7187 36.4294 48.9143C36.458 49.1098 36.5101 49.3001 36.6089 49.4721C36.7521 49.725 36.9264 49.8345 37.1242 49.8762C37.3219 49.9179 37.5431 49.8893 37.7799 49.8632C38.2717 49.8111 38.8337 49.8632 39.3827 49.8632C39.9318 49.8632 40.4626 49.7954 40.8893 49.5034C41.5945 49.0185 41.7298 48.4893 41.6517 47.9236C41.5736 47.3579 41.2848 46.7583 41.1443 46.1378C41.1183 46.0257 41.1053 45.9136 41.1001 45.7989C41.0923 45.6842 41.0923 45.5721 41.0923 45.4574V44.4458C41.0923 44.3364 41.0923 44.2269 41.0975 44.12C41.1027 44.0105 41.1183 43.9036 41.1443 43.7993C41.2614 43.3353 41.5788 43.1163 41.9639 43.0094C42.3491 42.9025 42.8044 42.9051 43.1947 42.879C43.317 42.8712 43.7489 42.8269 44.1523 42.8399C44.5556 42.8556 44.9277 42.9286 44.9355 43.1554C44.9615 44.1773 44.9277 45.1967 44.8886 46.2186C44.847 47.2406 44.8002 48.2625 44.795 49.2871C44.795 49.36 44.795 49.4356 44.8002 49.5113C44.808 49.5842 44.821 49.6572 44.847 49.7276C44.9069 49.8814 45.0213 49.9936 45.1619 50.0796C45.3024 50.1656 45.4663 50.2256 45.6224 50.2699C46.7179 50.5775 48.1828 50.5749 49.182 50.1135C50.1812 49.652 50.7172 48.7292 49.9548 47.2014C49.5645 46.4193 49.4344 45.2462 49.5645 43.8775C49.6946 42.5088 50.0849 40.9446 50.7354 39.3804C51.3859 37.8162 50.6704 36.7734 49.5359 36.153Z" fill="#FFCAD8"/>
<path d="M82.8773 46.855V46.8419C82.4792 46.7455 82.0265 46.7715 81.6049 46.8941C81.1834 47.0166 80.7931 47.2408 80.5173 47.5432C80.2519 47.8326 80.0177 48.1532 79.7653 48.4557C79.5129 48.7581 79.2475 49.0475 78.917 49.2717C78.4669 49.5819 77.9491 49.7435 77.4052 49.8269C76.864 49.9104 76.2968 49.9156 75.7503 49.9182C75.3002 49.9182 74.8266 49.9104 74.3817 49.8243C73.9393 49.7383 73.5256 49.5741 73.2003 49.2612C72.9479 49.0214 72.7788 48.7007 72.7033 48.3618C72.6279 48.0229 72.6461 47.6605 72.771 47.3347C72.7944 47.2747 72.8204 47.2173 72.8517 47.16C72.8829 47.1026 72.9167 47.0505 72.9584 47.001C73.0104 46.9358 73.0728 46.8784 73.1379 46.8263C73.2029 46.7741 73.2732 46.7272 73.3461 46.6829C73.83 46.3805 74.301 46.3101 74.7876 46.3075C75.2742 46.3049 75.7738 46.3648 76.315 46.3283C76.5908 46.3101 76.8666 46.2475 77.1164 46.1406C77.3662 46.0338 77.5952 45.8825 77.7747 45.687C77.9387 45.5097 77.9647 45.2855 77.9413 45.0587C77.9178 44.8293 77.8424 44.5973 77.7981 44.4018C77.7877 44.3522 77.7747 44.3027 77.7617 44.2532C77.7461 44.2036 77.7279 44.1567 77.7045 44.1124C77.6394 43.9925 77.5379 43.896 77.4156 43.8152C77.2959 43.7344 77.1554 43.6692 77.0175 43.6145C76.9707 43.5962 76.9239 43.578 76.8744 43.5623C76.825 43.5493 76.7755 43.5389 76.7235 43.5362C76.6715 43.5362 76.6194 43.5415 76.5674 43.5519C76.5153 43.5623 76.4633 43.578 76.4139 43.5936C76.2994 43.6301 76.1771 43.6536 76.0548 43.6796C75.9325 43.7057 75.8128 43.7318 75.7035 43.7709C75.5812 43.8126 75.4641 43.8856 75.3522 43.9664C75.2403 44.0472 75.1336 44.1333 75.0322 44.2062C74.7772 44.3861 74.4962 44.553 74.1995 44.6703C73.4631 44.9623 72.4718 45.0874 71.9019 44.4174C71.5845 44.0446 71.4518 43.5441 71.4362 43.0566C71.4257 42.7046 71.47 42.3475 71.6053 42.0216C71.7484 41.6722 71.9878 41.3698 72.2584 41.1065C72.8569 40.5225 73.6271 40.1054 74.4545 39.9959C74.8136 39.9464 75.2091 39.9673 75.4979 40.1889C75.6515 40.3088 75.7607 40.473 75.8804 40.6268C76.5544 41.4793 77.8112 41.9199 78.7765 41.4272C79.2527 41.1847 79.6456 40.7754 79.9188 40.3218C80.0307 40.1341 80.1322 39.9412 80.2232 39.7378C80.3143 39.5345 80.3898 39.3311 80.4496 39.1278C80.5095 38.9245 80.5537 38.7185 80.5823 38.5099C80.611 38.304 80.6214 38.1006 80.6136 37.9051C80.6057 37.7096 80.5771 37.5167 80.5303 37.329C80.4834 37.1413 80.4106 36.9666 80.3143 36.8024C80.2154 36.6381 80.0931 36.4869 79.9448 36.3487C79.6118 35.9811 79.2397 35.6787 78.8286 35.4415C78.4174 35.2043 77.9725 35.0296 77.4885 34.9227C77.0045 34.8132 76.5101 34.7585 76.0079 34.7559C75.5057 34.7559 74.9931 34.8028 74.4701 34.9071C73.9653 35.0061 73.471 35.1547 72.9818 35.3503C72.4926 35.5458 72.0112 35.7882 71.535 36.0802C71.0589 36.3722 70.6191 36.7059 70.2158 37.0813C69.8125 37.4567 69.4404 37.8738 69.1073 38.3353C68.7717 38.7941 68.4646 39.2947 68.2018 39.8343C67.939 40.374 67.7256 40.9475 67.5799 41.5601C67.4342 42.1702 67.1636 42.7594 67.0517 43.8439C66.9398 44.9284 66.9893 46.5108 67.4863 49.11C67.5565 49.475 67.6476 49.8322 67.7699 50.1841C67.8948 50.5361 68.0509 50.8776 68.2513 51.2113C68.4516 51.545 68.6806 51.8604 68.933 52.1602C69.1854 52.46 69.4638 52.7416 69.7682 53.0049C70.0727 53.2708 70.3979 53.5133 70.7414 53.7401C71.0849 53.9643 71.4492 54.1702 71.8291 54.3553C72.2116 54.5404 72.6019 54.6994 73.0026 54.835C73.4033 54.9706 73.8118 55.0801 74.2307 55.1661C74.6054 55.213 74.9957 55.2261 75.4095 55.2026C75.8206 55.1817 76.2525 55.127 76.7027 55.0357C76.9993 54.9758 77.296 54.9028 77.5926 54.8167C77.8892 54.7307 78.1832 54.629 78.4799 54.5143C78.7739 54.3996 79.0627 54.2745 79.3438 54.1363C79.6248 53.9982 79.898 53.8496 80.166 53.6879C80.434 53.5263 80.689 53.3542 80.9336 53.1691C81.1782 52.984 81.4098 52.7885 81.631 52.5799C81.8521 52.3714 82.0525 52.1524 82.2372 51.9204C82.4194 51.6883 82.5859 51.4459 82.7316 51.193C82.8747 50.9714 83.01 50.7368 83.1349 50.4891C83.2624 50.2415 83.3795 49.9808 83.4888 49.7044C83.6762 49.2299 83.8869 48.6043 83.8661 48.0542C83.8479 47.5041 83.6007 47.0296 82.8773 46.855Z" fill="#FFCAD8"/>
<path d="M9.12572 52.4528L8.8525 52.4268C7.5775 52.3094 6.25827 52.1895 4.92342 51.9236C3.75771 51.6916 2.77934 51.2718 1.93107 50.6383C1.09322 50.0127 0.492146 49.2332 0.148677 48.3207C-0.475813 46.6757 0.00296231 44.6839 1.30919 43.4795C2.02735 42.8173 2.94847 42.4185 3.92944 42.335C4.65281 40.8647 6.16199 39.874 7.88715 39.874C8.0797 39.874 8.27485 39.8871 8.4674 39.9131C9.76322 40.0852 10.8457 40.7474 11.5951 41.8293C12.1805 42.6739 12.5058 43.6464 12.5916 44.8091C12.6619 45.7424 12.5188 46.5871 12.3861 47.218C12.1753 48.2295 11.8995 49.2097 11.6575 50.0361L11.4051 50.8886C11.1319 51.8297 10.2966 52.4606 9.32868 52.4606L9.12572 52.4502V52.4528Z" fill="#4343FF"/>
<path d="M5.54489 44.7308C5.5527 44.4988 5.5449 44.2668 5.56831 44.04C5.71143 42.7391 6.89796 41.8084 8.19377 41.9805C8.90933 42.0743 9.47138 42.421 9.8825 43.018C10.2884 43.6046 10.4602 44.2642 10.5148 44.9655C10.5616 45.5833 10.4732 46.1882 10.3483 46.793C10.1609 47.6898 9.91632 48.5736 9.65872 49.4521C9.57546 49.7363 9.48959 50.0231 9.40632 50.3072C9.39331 50.3568 9.3751 50.3828 9.31525 50.3776C7.98041 50.2551 6.64556 50.143 5.32893 49.8797C4.54831 49.7259 3.81974 49.4495 3.17704 48.9672C2.69046 48.6049 2.31316 48.1538 2.09459 47.5803C1.76413 46.707 2.03474 45.6433 2.71648 45.015C3.47627 44.3137 4.60556 44.2329 5.48245 44.6996C5.50586 44.7126 5.52928 44.723 5.54489 44.7308Z" fill="#FFCAD8"/>
<path d="M90.6625 11.1683L90.5792 10.905C90.1915 9.68229 89.7882 8.4179 89.5124 7.08311C89.2704 5.91778 89.2782 4.84891 89.5306 3.81914C89.7804 2.80241 90.2643 1.9447 90.9669 1.2721C92.2367 0.0572337 94.2533 -0.279069 95.8691 0.458714C96.759 0.865406 97.4824 1.55626 97.9404 2.43222C99.5744 2.52867 101.073 3.53498 101.745 5.12786C101.82 5.30513 101.882 5.49023 101.934 5.67793C102.281 6.94233 102.093 8.1963 101.391 9.30949C100.842 10.1776 100.074 10.8581 99.0384 11.3899C98.2058 11.8174 97.3757 12.013 96.7434 12.1381C95.7338 12.3362 94.7216 12.464 93.8682 12.563L92.9861 12.6621C92.0155 12.7742 91.1074 12.2528 90.7327 11.3586L90.6625 11.1657V11.1683Z" fill="#4343FF"/>
<path d="M96.3689 4.85825C96.5849 4.77482 96.7956 4.67576 97.0142 4.61058C98.2658 4.23517 99.5824 4.96774 99.9285 6.23214C100.121 6.92821 100.02 7.58257 99.6319 8.19521C99.2494 8.80004 98.7107 9.21455 98.0888 9.53521C97.5398 9.81938 96.9491 9.97319 96.3455 10.0931C95.4478 10.2704 94.5397 10.3877 93.6315 10.492C93.3375 10.5259 93.0409 10.5572 92.7469 10.5937C92.6974 10.5989 92.6636 10.5937 92.6454 10.5363C92.2395 9.25626 91.8231 7.98144 91.5499 6.6649C91.3886 5.88541 91.36 5.10331 91.5499 4.32381C91.6956 3.73463 91.961 3.20802 92.4034 2.78568C93.0773 2.14175 94.1624 1.97751 95.0054 2.36335C95.9474 2.7935 96.46 3.80241 96.3715 4.79307C96.3715 4.81914 96.3689 4.84521 96.3663 4.86346L96.3689 4.85825Z" fill="#FFCAD8"/>
<path d="M87.1835 65.9814L87.0326 65.7519C86.3301 64.6779 85.6041 63.5699 84.9796 62.3602C84.4358 61.3018 84.1547 60.272 84.1209 59.2136C84.0897 58.1656 84.3239 57.2114 84.8209 56.372C85.7186 54.8573 87.5686 53.9944 89.325 54.2681C90.2904 54.4193 91.175 54.8912 91.849 55.6107C93.4492 55.264 95.1614 55.8297 96.236 57.1827C96.3557 57.3339 96.4676 57.4956 96.5665 57.6598C97.2404 58.7834 97.3965 60.0426 97.0166 61.3044C96.7226 62.2872 96.1632 63.1502 95.3097 63.9401C94.6228 64.5762 93.876 64.9881 93.3009 65.2801C92.3798 65.7441 91.4431 66.1378 90.6468 66.4637L89.8246 66.7974C88.9191 67.1676 87.9069 66.9069 87.3032 66.1482L87.1835 65.9814Z" fill="#4343FF"/>
<path d="M90.9879 58.3666C91.1752 58.2284 91.3495 58.0772 91.5421 57.9547C92.648 57.256 94.1129 57.608 94.7842 58.7316C95.1563 59.3521 95.2344 60.0064 95.0262 60.7025C94.8207 61.3855 94.4121 61.933 93.8995 62.4075C93.4442 62.8272 92.9186 63.1374 92.3695 63.4138C91.5525 63.8257 90.7094 64.1828 89.8638 64.5296C89.588 64.6417 89.3121 64.7512 89.0389 64.8633C88.9921 64.8815 88.9609 64.8867 88.927 64.8346C88.1933 63.711 87.4491 62.5952 86.835 61.3986C86.4707 60.6895 86.2313 59.9464 86.2079 59.1435C86.1897 58.5361 86.3042 57.9599 86.6164 57.4333C87.0926 56.6303 88.0918 56.1819 89.0077 56.3253C90.0277 56.4843 90.7953 57.3186 90.9749 58.2962C90.9801 58.3223 90.9853 58.3484 90.9905 58.364L90.9879 58.3666Z" fill="#FFCAD8"/>
</g>
<defs>
<clipPath id="clip0_2026_1139">
<rect width="102" height="67" fill="white"/>
</clipPath>
</defs>
</svg>
